G04 EAGLE Gerber RS-274X export*
G75*
%MOMM*%
%FSLAX34Y34*%
%LPD*%
%INBottom Copper*%
%IPPOS*%
%AMOC8*
5,1,8,0,0,1.08239X$1,22.5*%
G01*
%ADD10C,1.318000*%
%ADD11C,1.879600*%
%ADD12C,0.203200*%
%ADD13C,0.756400*%
%ADD14C,0.787400*%
%ADD15C,0.914400*%

G36*
X750123Y446255D02*
X750123Y446255D01*
X750172Y446265D01*
X750221Y446267D01*
X750327Y446297D01*
X750434Y446319D01*
X750479Y446341D01*
X750527Y446355D01*
X750621Y446411D01*
X750720Y446459D01*
X750758Y446491D01*
X750801Y446517D01*
X750922Y446623D01*
X771208Y466909D01*
X771251Y466965D01*
X771301Y467013D01*
X771348Y467090D01*
X771403Y467161D01*
X771430Y467225D01*
X771467Y467284D01*
X771493Y467370D01*
X771529Y467452D01*
X771540Y467521D01*
X771561Y467588D01*
X771565Y467678D01*
X771579Y467767D01*
X771572Y467836D01*
X771576Y467906D01*
X771558Y467994D01*
X771549Y468083D01*
X771525Y468149D01*
X771511Y468217D01*
X771472Y468298D01*
X771442Y468382D01*
X771402Y468440D01*
X771372Y468503D01*
X771313Y468571D01*
X771263Y468646D01*
X771210Y468692D01*
X771165Y468745D01*
X771092Y468797D01*
X771024Y468856D01*
X770962Y468888D01*
X770905Y468928D01*
X770821Y468960D01*
X770741Y469001D01*
X770673Y469016D01*
X770608Y469041D01*
X770519Y469051D01*
X770431Y469070D01*
X770361Y469068D01*
X770292Y469076D01*
X770203Y469063D01*
X770113Y469061D01*
X770046Y469041D01*
X769977Y469032D01*
X769825Y468979D01*
X769507Y468848D01*
X767193Y468848D01*
X765056Y469733D01*
X763420Y471369D01*
X762535Y473506D01*
X762535Y475640D01*
X762523Y475738D01*
X762520Y475837D01*
X762503Y475895D01*
X762495Y475955D01*
X762459Y476048D01*
X762431Y476143D01*
X762401Y476195D01*
X762378Y476251D01*
X762320Y476331D01*
X762270Y476417D01*
X762204Y476492D01*
X762192Y476509D01*
X762182Y476516D01*
X762164Y476537D01*
X697609Y541092D01*
X695451Y543250D01*
X695451Y610342D01*
X695448Y610371D01*
X695450Y610401D01*
X695428Y610529D01*
X695411Y610658D01*
X695401Y610685D01*
X695396Y610714D01*
X695342Y610833D01*
X695294Y610953D01*
X695277Y610977D01*
X695265Y611004D01*
X695184Y611106D01*
X695108Y611211D01*
X695085Y611230D01*
X695066Y611253D01*
X694963Y611331D01*
X694863Y611414D01*
X694836Y611426D01*
X694812Y611444D01*
X694668Y611515D01*
X692025Y612609D01*
X688809Y615825D01*
X687170Y619784D01*
X687106Y619896D01*
X687047Y620011D01*
X687027Y620034D01*
X687012Y620060D01*
X686922Y620153D01*
X686837Y620250D01*
X686812Y620267D01*
X686791Y620288D01*
X686680Y620356D01*
X686574Y620429D01*
X686545Y620439D01*
X686520Y620455D01*
X686396Y620493D01*
X686275Y620536D01*
X686245Y620539D01*
X686216Y620548D01*
X686087Y620554D01*
X685958Y620567D01*
X685928Y620562D01*
X685898Y620563D01*
X685772Y620537D01*
X685644Y620517D01*
X685616Y620505D01*
X685587Y620499D01*
X685470Y620442D01*
X685352Y620391D01*
X685328Y620373D01*
X685301Y620359D01*
X685203Y620275D01*
X685100Y620196D01*
X685082Y620173D01*
X685059Y620153D01*
X684985Y620047D01*
X684905Y619945D01*
X684893Y619918D01*
X684876Y619893D01*
X684830Y619772D01*
X684779Y619653D01*
X684769Y619612D01*
X684763Y619596D01*
X684761Y619574D01*
X684746Y619509D01*
X684164Y617717D01*
X683311Y616043D01*
X682206Y614522D01*
X680878Y613194D01*
X679357Y612089D01*
X677683Y611236D01*
X675896Y610655D01*
X675639Y610615D01*
X675639Y621030D01*
X675624Y621148D01*
X675617Y621267D01*
X675604Y621305D01*
X675599Y621345D01*
X675556Y621456D01*
X675519Y621569D01*
X675497Y621603D01*
X675482Y621641D01*
X675412Y621737D01*
X675349Y621838D01*
X675319Y621866D01*
X675295Y621898D01*
X675204Y621974D01*
X675117Y622056D01*
X675082Y622075D01*
X675051Y622101D01*
X674943Y622152D01*
X674839Y622209D01*
X674799Y622220D01*
X674763Y622237D01*
X674646Y622259D01*
X674531Y622289D01*
X674470Y622293D01*
X674450Y622297D01*
X674430Y622295D01*
X674370Y622299D01*
X673099Y622299D01*
X673099Y623570D01*
X673084Y623688D01*
X673077Y623807D01*
X673064Y623845D01*
X673059Y623885D01*
X673015Y623996D01*
X672979Y624109D01*
X672957Y624144D01*
X672942Y624181D01*
X672872Y624277D01*
X672809Y624378D01*
X672779Y624406D01*
X672755Y624439D01*
X672664Y624514D01*
X672577Y624596D01*
X672542Y624616D01*
X672510Y624641D01*
X672403Y624692D01*
X672298Y624750D01*
X672259Y624760D01*
X672223Y624777D01*
X672106Y624799D01*
X671991Y624829D01*
X671930Y624833D01*
X671910Y624837D01*
X671890Y624835D01*
X671830Y624839D01*
X648970Y624839D01*
X648852Y624824D01*
X648733Y624817D01*
X648695Y624804D01*
X648655Y624799D01*
X648544Y624756D01*
X648431Y624719D01*
X648397Y624697D01*
X648359Y624682D01*
X648263Y624612D01*
X648162Y624549D01*
X648134Y624519D01*
X648102Y624495D01*
X648026Y624404D01*
X647944Y624317D01*
X647925Y624282D01*
X647899Y624251D01*
X647848Y624143D01*
X647791Y624039D01*
X647780Y623999D01*
X647763Y623963D01*
X647741Y623846D01*
X647711Y623731D01*
X647707Y623670D01*
X647703Y623650D01*
X647705Y623630D01*
X647701Y623570D01*
X647701Y622299D01*
X646430Y622299D01*
X646312Y622284D01*
X646193Y622277D01*
X646155Y622264D01*
X646114Y622259D01*
X646004Y622215D01*
X645891Y622179D01*
X645856Y622157D01*
X645819Y622142D01*
X645723Y622072D01*
X645622Y622009D01*
X645594Y621979D01*
X645561Y621955D01*
X645486Y621864D01*
X645404Y621777D01*
X645384Y621742D01*
X645359Y621710D01*
X645308Y621603D01*
X645250Y621498D01*
X645240Y621459D01*
X645223Y621423D01*
X645201Y621306D01*
X645171Y621191D01*
X645167Y621130D01*
X645163Y621110D01*
X645165Y621090D01*
X645161Y621030D01*
X645161Y610615D01*
X644904Y610655D01*
X643117Y611236D01*
X641443Y612089D01*
X639922Y613194D01*
X638594Y614522D01*
X637489Y616043D01*
X636636Y617717D01*
X636046Y619534D01*
X636021Y619620D01*
X635990Y619746D01*
X635976Y619773D01*
X635968Y619802D01*
X635902Y619913D01*
X635842Y620027D01*
X635821Y620050D01*
X635806Y620076D01*
X635715Y620167D01*
X635628Y620263D01*
X635603Y620279D01*
X635581Y620300D01*
X635470Y620366D01*
X635362Y620437D01*
X635333Y620447D01*
X635308Y620463D01*
X635184Y620499D01*
X635061Y620541D01*
X635031Y620543D01*
X635002Y620551D01*
X634873Y620556D01*
X634744Y620566D01*
X634714Y620561D01*
X634684Y620562D01*
X634558Y620534D01*
X634431Y620511D01*
X634403Y620499D01*
X634374Y620493D01*
X634259Y620434D01*
X634141Y620381D01*
X634117Y620362D01*
X634090Y620348D01*
X633994Y620263D01*
X633892Y620182D01*
X633874Y620158D01*
X633852Y620138D01*
X633779Y620032D01*
X633701Y619928D01*
X633682Y619890D01*
X633673Y619876D01*
X633665Y619855D01*
X633630Y619784D01*
X631991Y615825D01*
X628775Y612609D01*
X624574Y610869D01*
X620026Y610869D01*
X615825Y612609D01*
X612609Y615825D01*
X610869Y620026D01*
X610869Y624574D01*
X612609Y628775D01*
X615825Y631991D01*
X620026Y633731D01*
X624574Y633731D01*
X628775Y631991D01*
X631991Y628775D01*
X633630Y624816D01*
X633694Y624704D01*
X633753Y624589D01*
X633773Y624566D01*
X633788Y624540D01*
X633878Y624447D01*
X633963Y624350D01*
X633988Y624333D01*
X634009Y624312D01*
X634120Y624244D01*
X634226Y624171D01*
X634255Y624161D01*
X634280Y624145D01*
X634404Y624107D01*
X634525Y624064D01*
X634555Y624061D01*
X634584Y624052D01*
X634713Y624046D01*
X634842Y624033D01*
X634872Y624038D01*
X634902Y624037D01*
X635028Y624063D01*
X635156Y624083D01*
X635184Y624095D01*
X635213Y624101D01*
X635330Y624158D01*
X635448Y624209D01*
X635472Y624227D01*
X635499Y624241D01*
X635597Y624325D01*
X635700Y624404D01*
X635718Y624427D01*
X635741Y624447D01*
X635815Y624553D01*
X635895Y624655D01*
X635907Y624682D01*
X635924Y624707D01*
X635970Y624828D01*
X636021Y624947D01*
X636031Y624988D01*
X636037Y625004D01*
X636039Y625026D01*
X636054Y625091D01*
X636636Y626883D01*
X637489Y628557D01*
X638594Y630078D01*
X639922Y631406D01*
X641443Y632511D01*
X643117Y633364D01*
X644437Y633793D01*
X644545Y633844D01*
X644656Y633888D01*
X644688Y633911D01*
X644725Y633928D01*
X644817Y634004D01*
X644913Y634074D01*
X644939Y634105D01*
X644970Y634131D01*
X645040Y634227D01*
X645116Y634319D01*
X645133Y634356D01*
X645157Y634388D01*
X645201Y634499D01*
X645252Y634607D01*
X645259Y634647D01*
X645274Y634684D01*
X645289Y634802D01*
X645311Y634920D01*
X645309Y634960D01*
X645314Y634999D01*
X645299Y635118D01*
X645292Y635237D01*
X645279Y635275D01*
X645274Y635315D01*
X645230Y635426D01*
X645194Y635539D01*
X645172Y635573D01*
X645157Y635611D01*
X645087Y635707D01*
X645024Y635808D01*
X644994Y635836D01*
X644971Y635868D01*
X644879Y635944D01*
X644792Y636026D01*
X644757Y636045D01*
X644726Y636071D01*
X644618Y636122D01*
X644513Y636180D01*
X644475Y636190D01*
X644438Y636207D01*
X644321Y636229D01*
X644205Y636259D01*
X644146Y636263D01*
X644126Y636267D01*
X644105Y636265D01*
X644045Y636269D01*
X279157Y636269D01*
X279019Y636252D01*
X278880Y636239D01*
X278861Y636232D01*
X278841Y636229D01*
X278712Y636178D01*
X278581Y636131D01*
X278564Y636120D01*
X278545Y636112D01*
X278433Y636031D01*
X278318Y635953D01*
X278304Y635937D01*
X278288Y635926D01*
X278199Y635818D01*
X278107Y635714D01*
X278098Y635696D01*
X278085Y635681D01*
X278026Y635555D01*
X277963Y635431D01*
X277958Y635411D01*
X277950Y635393D01*
X277924Y635257D01*
X277893Y635121D01*
X277894Y635100D01*
X277890Y635081D01*
X277898Y634942D01*
X277903Y634803D01*
X277908Y634783D01*
X277910Y634763D01*
X277952Y634631D01*
X277991Y634497D01*
X278001Y634480D01*
X278008Y634461D01*
X278082Y634343D01*
X278153Y634223D01*
X278171Y634202D01*
X278178Y634192D01*
X278193Y634178D01*
X278259Y634103D01*
X282101Y630261D01*
X282195Y630188D01*
X282284Y630109D01*
X282320Y630091D01*
X282352Y630066D01*
X282461Y630019D01*
X282567Y629965D01*
X282606Y629956D01*
X282644Y629940D01*
X282762Y629921D01*
X282877Y629895D01*
X282918Y629896D01*
X282958Y629890D01*
X283076Y629901D01*
X283195Y629905D01*
X283234Y629916D01*
X283274Y629920D01*
X283387Y629960D01*
X283501Y629993D01*
X283536Y630014D01*
X283574Y630027D01*
X283672Y630094D01*
X283775Y630155D01*
X283820Y630194D01*
X283837Y630206D01*
X283850Y630221D01*
X283896Y630261D01*
X285625Y631991D01*
X289826Y633731D01*
X294374Y633731D01*
X298575Y631991D01*
X301791Y628775D01*
X303531Y624574D01*
X303531Y620026D01*
X301791Y615825D01*
X298575Y612609D01*
X295932Y611515D01*
X295907Y611500D01*
X295879Y611491D01*
X295769Y611422D01*
X295656Y611357D01*
X295635Y611337D01*
X295610Y611321D01*
X295521Y611226D01*
X295428Y611136D01*
X295412Y611111D01*
X295392Y611089D01*
X295329Y610976D01*
X295261Y610865D01*
X295253Y610837D01*
X295238Y610811D01*
X295206Y610685D01*
X295168Y610561D01*
X295166Y610531D01*
X295159Y610503D01*
X295149Y610342D01*
X295149Y587193D01*
X295155Y587144D01*
X295153Y587094D01*
X295175Y586987D01*
X295189Y586878D01*
X295207Y586832D01*
X295217Y586783D01*
X295265Y586684D01*
X295306Y586582D01*
X295335Y586542D01*
X295357Y586497D01*
X295428Y586414D01*
X295492Y586325D01*
X295531Y586293D01*
X295563Y586255D01*
X295653Y586192D01*
X295737Y586122D01*
X295782Y586101D01*
X295823Y586072D01*
X295926Y586033D01*
X296025Y585986D01*
X296074Y585977D01*
X296120Y585960D01*
X296230Y585947D01*
X296337Y585927D01*
X296387Y585930D01*
X296436Y585924D01*
X296545Y585940D01*
X296655Y585946D01*
X296702Y585962D01*
X296751Y585969D01*
X296904Y586021D01*
X298881Y586840D01*
X301194Y586840D01*
X303331Y585955D01*
X304967Y584319D01*
X305852Y582182D01*
X305852Y580171D01*
X305867Y580053D01*
X305875Y579935D01*
X305887Y579896D01*
X305892Y579856D01*
X305936Y579745D01*
X305973Y579632D01*
X305994Y579598D01*
X306009Y579560D01*
X306079Y579464D01*
X306143Y579363D01*
X306172Y579336D01*
X306196Y579303D01*
X306288Y579227D01*
X306374Y579145D01*
X306410Y579126D01*
X306441Y579100D01*
X306549Y579049D01*
X306653Y578992D01*
X306692Y578982D01*
X306729Y578965D01*
X306845Y578942D01*
X306961Y578912D01*
X307021Y578909D01*
X307041Y578905D01*
X307061Y578906D01*
X307121Y578902D01*
X309132Y578902D01*
X311269Y578017D01*
X312905Y576381D01*
X313790Y574244D01*
X313790Y572110D01*
X313802Y572012D01*
X313805Y571913D01*
X313822Y571855D01*
X313830Y571795D01*
X313866Y571702D01*
X313894Y571607D01*
X313924Y571555D01*
X313947Y571499D01*
X314005Y571419D01*
X314055Y571333D01*
X314121Y571258D01*
X314133Y571241D01*
X314143Y571234D01*
X314161Y571213D01*
X329504Y555870D01*
X331661Y553713D01*
X331661Y497825D01*
X331674Y497727D01*
X331677Y497628D01*
X331693Y497570D01*
X331701Y497510D01*
X331738Y497418D01*
X331765Y497323D01*
X331796Y497270D01*
X331818Y497214D01*
X331876Y497134D01*
X331927Y497049D01*
X331993Y496973D01*
X332005Y496957D01*
X332014Y496949D01*
X332033Y496928D01*
X333542Y495419D01*
X334427Y493282D01*
X334427Y491148D01*
X334440Y491049D01*
X334443Y490950D01*
X334459Y490892D01*
X334467Y490832D01*
X334504Y490740D01*
X334531Y490645D01*
X334562Y490593D01*
X334584Y490536D01*
X334642Y490456D01*
X334693Y490371D01*
X334759Y490295D01*
X334771Y490279D01*
X334780Y490271D01*
X334799Y490250D01*
X360075Y464974D01*
X360153Y464913D01*
X360225Y464845D01*
X360278Y464816D01*
X360326Y464779D01*
X360417Y464740D01*
X360504Y464692D01*
X360562Y464677D01*
X360618Y464653D01*
X360716Y464637D01*
X360812Y464612D01*
X360912Y464606D01*
X360932Y464603D01*
X360945Y464604D01*
X360973Y464602D01*
X363107Y464602D01*
X365084Y463783D01*
X365132Y463770D01*
X365177Y463749D01*
X365284Y463728D01*
X365391Y463699D01*
X365440Y463699D01*
X365489Y463689D01*
X365599Y463696D01*
X365709Y463694D01*
X365757Y463706D01*
X365806Y463709D01*
X365911Y463743D01*
X366018Y463768D01*
X366062Y463792D01*
X366109Y463807D01*
X366202Y463866D01*
X366299Y463917D01*
X366336Y463951D01*
X366378Y463977D01*
X366453Y464057D01*
X366534Y464131D01*
X366562Y464173D01*
X366596Y464209D01*
X366649Y464305D01*
X366709Y464397D01*
X366725Y464444D01*
X366749Y464487D01*
X366777Y464594D01*
X366812Y464698D01*
X366816Y464747D01*
X366829Y464795D01*
X366839Y464956D01*
X366839Y550661D01*
X366826Y550760D01*
X366823Y550859D01*
X366807Y550917D01*
X366799Y550977D01*
X366762Y551069D01*
X366735Y551164D01*
X366704Y551216D01*
X366682Y551273D01*
X366624Y551353D01*
X366573Y551438D01*
X366507Y551513D01*
X366495Y551530D01*
X366486Y551538D01*
X366467Y551559D01*
X359062Y558964D01*
X358984Y559024D01*
X358912Y559092D01*
X358859Y559121D01*
X358811Y559158D01*
X358720Y559198D01*
X358634Y559246D01*
X358575Y559261D01*
X358519Y559285D01*
X358421Y559300D01*
X358326Y559325D01*
X358226Y559331D01*
X358205Y559335D01*
X358193Y559333D01*
X358165Y559335D01*
X356031Y559335D01*
X353894Y560220D01*
X352258Y561856D01*
X351373Y563993D01*
X351373Y566307D01*
X352258Y568444D01*
X353894Y570080D01*
X356031Y570965D01*
X358344Y570965D01*
X360481Y570080D01*
X362117Y568444D01*
X363002Y566307D01*
X363002Y564173D01*
X363015Y564074D01*
X363018Y563975D01*
X363034Y563917D01*
X363042Y563857D01*
X363079Y563765D01*
X363106Y563670D01*
X363137Y563618D01*
X363159Y563561D01*
X363217Y563481D01*
X363268Y563396D01*
X363334Y563321D01*
X363346Y563304D01*
X363355Y563296D01*
X363374Y563275D01*
X370779Y555870D01*
X372936Y553713D01*
X372936Y491943D01*
X372942Y491894D01*
X372940Y491844D01*
X372962Y491737D01*
X372976Y491628D01*
X372994Y491582D01*
X373004Y491533D01*
X373053Y491434D01*
X373093Y491332D01*
X373122Y491292D01*
X373144Y491247D01*
X373215Y491164D01*
X373280Y491075D01*
X373318Y491043D01*
X373350Y491005D01*
X373440Y490942D01*
X373525Y490872D01*
X373570Y490851D01*
X373611Y490822D01*
X373713Y490783D01*
X373813Y490736D01*
X373861Y490727D01*
X373908Y490710D01*
X374017Y490697D01*
X374125Y490677D01*
X374174Y490680D01*
X374224Y490674D01*
X374333Y490690D01*
X374442Y490696D01*
X374490Y490712D01*
X374539Y490719D01*
X374691Y490771D01*
X376668Y491590D01*
X378802Y491590D01*
X378901Y491602D01*
X379000Y491605D01*
X379058Y491622D01*
X379118Y491630D01*
X379210Y491666D01*
X379305Y491694D01*
X379357Y491724D01*
X379414Y491747D01*
X379494Y491805D01*
X379579Y491855D01*
X379654Y491921D01*
X379671Y491933D01*
X379679Y491943D01*
X379700Y491961D01*
X435779Y548041D01*
X435873Y548162D01*
X435967Y548280D01*
X435970Y548286D01*
X435974Y548292D01*
X436034Y548432D01*
X436096Y548571D01*
X436098Y548577D01*
X436100Y548584D01*
X436124Y548734D01*
X436150Y548884D01*
X436149Y548891D01*
X436150Y548898D01*
X436136Y549050D01*
X436123Y549201D01*
X436121Y549208D01*
X436120Y549214D01*
X436069Y549358D01*
X436019Y549502D01*
X436015Y549507D01*
X436013Y549514D01*
X435928Y549639D01*
X435843Y549767D01*
X435838Y549771D01*
X435834Y549777D01*
X435721Y549877D01*
X435607Y549980D01*
X435601Y549983D01*
X435596Y549987D01*
X435459Y550057D01*
X435325Y550127D01*
X435319Y550129D01*
X435312Y550132D01*
X435164Y550165D01*
X435016Y550200D01*
X435009Y550200D01*
X435002Y550202D01*
X434849Y550197D01*
X434698Y550194D01*
X434691Y550192D01*
X434684Y550192D01*
X434538Y550149D01*
X434391Y550109D01*
X434383Y550105D01*
X434379Y550103D01*
X434370Y550098D01*
X434247Y550037D01*
X429198Y547122D01*
X422544Y545339D01*
X415656Y545339D01*
X409002Y547122D01*
X403037Y550566D01*
X398166Y555437D01*
X394722Y561402D01*
X394523Y562144D01*
X394473Y562267D01*
X394429Y562391D01*
X394413Y562414D01*
X394403Y562439D01*
X394324Y562545D01*
X394250Y562654D01*
X394230Y562672D01*
X394214Y562694D01*
X394111Y562777D01*
X394011Y562865D01*
X393987Y562877D01*
X393966Y562894D01*
X393846Y562949D01*
X393728Y563010D01*
X393702Y563015D01*
X393677Y563027D01*
X393547Y563050D01*
X393418Y563079D01*
X393391Y563078D01*
X393364Y563083D01*
X393233Y563074D01*
X393100Y563070D01*
X393074Y563062D01*
X393047Y563060D01*
X392922Y563018D01*
X392795Y562981D01*
X392771Y562968D01*
X392746Y562959D01*
X392635Y562887D01*
X392521Y562820D01*
X392492Y562794D01*
X392479Y562786D01*
X392464Y562770D01*
X392400Y562713D01*
X388774Y559087D01*
X388713Y559009D01*
X388645Y558937D01*
X388616Y558884D01*
X388579Y558836D01*
X388540Y558745D01*
X388492Y558659D01*
X388477Y558600D01*
X388453Y558544D01*
X388437Y558446D01*
X388412Y558351D01*
X388406Y558251D01*
X388403Y558230D01*
X388404Y558218D01*
X388402Y558190D01*
X388402Y556056D01*
X387517Y553919D01*
X385881Y552283D01*
X383744Y551398D01*
X381431Y551398D01*
X379294Y552283D01*
X377658Y553919D01*
X376773Y556056D01*
X376773Y558369D01*
X377658Y560506D01*
X379294Y562142D01*
X381431Y563027D01*
X383565Y563027D01*
X383663Y563040D01*
X383762Y563043D01*
X383820Y563059D01*
X383880Y563067D01*
X383973Y563104D01*
X384068Y563131D01*
X384120Y563162D01*
X384176Y563184D01*
X384256Y563242D01*
X384342Y563293D01*
X384417Y563359D01*
X384433Y563371D01*
X384441Y563380D01*
X384462Y563399D01*
X387105Y566041D01*
X387165Y566119D01*
X387233Y566191D01*
X387262Y566244D01*
X387299Y566292D01*
X387339Y566383D01*
X387387Y566470D01*
X387402Y566529D01*
X387426Y566584D01*
X387441Y566682D01*
X387466Y566778D01*
X387472Y566878D01*
X387476Y566898D01*
X387474Y566910D01*
X387476Y566939D01*
X387476Y583875D01*
X413817Y610216D01*
X413848Y610256D01*
X413884Y610289D01*
X413945Y610380D01*
X414012Y610467D01*
X414032Y610513D01*
X414059Y610555D01*
X414095Y610658D01*
X414138Y610759D01*
X414146Y610808D01*
X414162Y610855D01*
X414171Y610965D01*
X414188Y611073D01*
X414184Y611123D01*
X414187Y611172D01*
X414169Y611280D01*
X414158Y611390D01*
X414142Y611437D01*
X414133Y611486D01*
X414088Y611586D01*
X414051Y611689D01*
X414023Y611730D01*
X414003Y611776D01*
X413934Y611862D01*
X413872Y611952D01*
X413835Y611985D01*
X413804Y612024D01*
X413716Y612090D01*
X413634Y612163D01*
X413589Y612186D01*
X413550Y612215D01*
X413405Y612286D01*
X412625Y612610D01*
X409409Y615825D01*
X407669Y620026D01*
X407669Y624574D01*
X409409Y628775D01*
X412625Y631991D01*
X416826Y633731D01*
X421374Y633731D01*
X425575Y631991D01*
X428791Y628775D01*
X430531Y624574D01*
X430531Y620026D01*
X428791Y615825D01*
X427781Y614815D01*
X427696Y614706D01*
X427607Y614599D01*
X427598Y614580D01*
X427586Y614564D01*
X427531Y614437D01*
X427472Y614311D01*
X427468Y614291D01*
X427460Y614272D01*
X427438Y614134D01*
X427412Y613998D01*
X427413Y613978D01*
X427410Y613958D01*
X427423Y613819D01*
X427432Y613681D01*
X427438Y613662D01*
X427440Y613642D01*
X427487Y613510D01*
X427530Y613379D01*
X427540Y613361D01*
X427547Y613342D01*
X427625Y613227D01*
X427700Y613110D01*
X427714Y613096D01*
X427726Y613079D01*
X427830Y612987D01*
X427931Y612892D01*
X427949Y612882D01*
X427964Y612869D01*
X428088Y612806D01*
X428210Y612738D01*
X428229Y612733D01*
X428247Y612724D01*
X428383Y612694D01*
X428518Y612659D01*
X428546Y612657D01*
X428558Y612654D01*
X428578Y612655D01*
X428678Y612649D01*
X434922Y612649D01*
X435060Y612666D01*
X435198Y612679D01*
X435217Y612686D01*
X435237Y612689D01*
X435366Y612740D01*
X435497Y612787D01*
X435514Y612798D01*
X435533Y612806D01*
X435645Y612887D01*
X435760Y612965D01*
X435774Y612981D01*
X435790Y612992D01*
X435879Y613100D01*
X435971Y613204D01*
X435980Y613222D01*
X435993Y613237D01*
X436052Y613363D01*
X436115Y613487D01*
X436120Y613507D01*
X436128Y613525D01*
X436155Y613662D01*
X436185Y613797D01*
X436184Y613818D01*
X436188Y613837D01*
X436180Y613976D01*
X436175Y614115D01*
X436170Y614135D01*
X436168Y614155D01*
X436126Y614287D01*
X436087Y614421D01*
X436077Y614438D01*
X436070Y614457D01*
X435996Y614575D01*
X435925Y614695D01*
X435907Y614716D01*
X435900Y614726D01*
X435885Y614740D01*
X435819Y614815D01*
X434809Y615825D01*
X433069Y620026D01*
X433069Y624574D01*
X434809Y628775D01*
X438025Y631991D01*
X442226Y633731D01*
X446774Y633731D01*
X450975Y631991D01*
X454191Y628775D01*
X455931Y624574D01*
X455931Y620026D01*
X454191Y615825D01*
X450975Y612609D01*
X448332Y611515D01*
X448307Y611500D01*
X448279Y611491D01*
X448169Y611422D01*
X448056Y611357D01*
X448035Y611337D01*
X448010Y611321D01*
X447921Y611226D01*
X447828Y611136D01*
X447812Y611111D01*
X447792Y611089D01*
X447729Y610976D01*
X447661Y610865D01*
X447653Y610837D01*
X447638Y610811D01*
X447606Y610685D01*
X447568Y610561D01*
X447566Y610531D01*
X447559Y610503D01*
X447549Y610342D01*
X447549Y608337D01*
X445763Y606551D01*
X419301Y606551D01*
X419203Y606539D01*
X419104Y606536D01*
X419046Y606519D01*
X418986Y606511D01*
X418893Y606475D01*
X418798Y606447D01*
X418746Y606417D01*
X418690Y606394D01*
X418610Y606336D01*
X418524Y606286D01*
X418449Y606220D01*
X418433Y606208D01*
X418425Y606198D01*
X418404Y606180D01*
X411122Y598898D01*
X411032Y598782D01*
X410941Y598670D01*
X410935Y598657D01*
X410927Y598647D01*
X410869Y598512D01*
X410808Y598380D01*
X410806Y598367D01*
X410801Y598355D01*
X410778Y598210D01*
X410752Y598067D01*
X410753Y598054D01*
X410751Y598041D01*
X410764Y597895D01*
X410775Y597750D01*
X410779Y597737D01*
X410781Y597724D01*
X410830Y597586D01*
X410876Y597449D01*
X410884Y597438D01*
X410888Y597425D01*
X410970Y597304D01*
X411049Y597182D01*
X411059Y597173D01*
X411067Y597162D01*
X411176Y597065D01*
X411283Y596966D01*
X411295Y596960D01*
X411305Y596951D01*
X411435Y596885D01*
X411563Y596816D01*
X411576Y596813D01*
X411588Y596807D01*
X411731Y596775D01*
X411872Y596740D01*
X411886Y596740D01*
X411899Y596737D01*
X412045Y596741D01*
X412190Y596743D01*
X412208Y596746D01*
X412217Y596747D01*
X412233Y596751D01*
X412348Y596774D01*
X415656Y597661D01*
X422544Y597661D01*
X429198Y595878D01*
X435163Y592434D01*
X440034Y587563D01*
X443478Y581598D01*
X445261Y574944D01*
X445261Y568056D01*
X443478Y561402D01*
X440563Y556353D01*
X440504Y556213D01*
X440443Y556073D01*
X440442Y556066D01*
X440439Y556060D01*
X440417Y555909D01*
X440393Y555759D01*
X440394Y555752D01*
X440393Y555745D01*
X440409Y555595D01*
X440423Y555442D01*
X440425Y555436D01*
X440426Y555429D01*
X440479Y555287D01*
X440531Y555143D01*
X440535Y555137D01*
X440537Y555131D01*
X440624Y555006D01*
X440709Y554880D01*
X440714Y554875D01*
X440718Y554870D01*
X440834Y554770D01*
X440948Y554669D01*
X440954Y554666D01*
X440959Y554662D01*
X441097Y554593D01*
X441231Y554525D01*
X441238Y554523D01*
X441244Y554520D01*
X441394Y554488D01*
X441541Y554455D01*
X441548Y554455D01*
X441555Y554454D01*
X441707Y554460D01*
X441859Y554465D01*
X441866Y554467D01*
X441872Y554467D01*
X442019Y554511D01*
X442165Y554553D01*
X442170Y554556D01*
X442177Y554558D01*
X442308Y554638D01*
X442439Y554715D01*
X442445Y554721D01*
X442449Y554723D01*
X442457Y554731D01*
X442559Y554821D01*
X447839Y560100D01*
X447899Y560178D01*
X447967Y560250D01*
X447996Y560303D01*
X448033Y560351D01*
X448073Y560442D01*
X448121Y560529D01*
X448136Y560588D01*
X448160Y560643D01*
X448175Y560741D01*
X448200Y560837D01*
X448206Y560937D01*
X448210Y560957D01*
X448208Y560970D01*
X448210Y560998D01*
X448210Y563132D01*
X449095Y565269D01*
X450731Y566905D01*
X452868Y567790D01*
X455182Y567790D01*
X457319Y566905D01*
X458955Y565269D01*
X459840Y563132D01*
X459840Y562466D01*
X459857Y562328D01*
X459870Y562189D01*
X459877Y562170D01*
X459880Y562150D01*
X459931Y562021D01*
X459978Y561890D01*
X459989Y561873D01*
X459997Y561854D01*
X460078Y561742D01*
X460156Y561627D01*
X460172Y561613D01*
X460183Y561597D01*
X460291Y561508D01*
X460395Y561416D01*
X460413Y561407D01*
X460428Y561394D01*
X460554Y561335D01*
X460678Y561272D01*
X460698Y561267D01*
X460716Y561259D01*
X460852Y561233D01*
X460988Y561202D01*
X461009Y561203D01*
X461028Y561199D01*
X461167Y561207D01*
X461306Y561212D01*
X461326Y561217D01*
X461346Y561219D01*
X461478Y561261D01*
X461612Y561300D01*
X461629Y561310D01*
X461648Y561317D01*
X461766Y561391D01*
X461886Y561462D01*
X461907Y561480D01*
X461917Y561487D01*
X461931Y561502D01*
X462006Y561568D01*
X481176Y580738D01*
X481237Y580816D01*
X481305Y580888D01*
X481334Y580941D01*
X481371Y580989D01*
X481410Y581080D01*
X481458Y581166D01*
X481473Y581225D01*
X481497Y581281D01*
X481513Y581379D01*
X481538Y581474D01*
X481544Y581574D01*
X481547Y581595D01*
X481546Y581607D01*
X481548Y581635D01*
X481548Y583769D01*
X482433Y585906D01*
X484069Y587542D01*
X486206Y588427D01*
X488519Y588427D01*
X490496Y587608D01*
X490544Y587595D01*
X490589Y587574D01*
X490697Y587553D01*
X490803Y587524D01*
X490853Y587524D01*
X490902Y587514D01*
X491011Y587521D01*
X491121Y587519D01*
X491169Y587531D01*
X491219Y587534D01*
X491323Y587568D01*
X491430Y587593D01*
X491474Y587617D01*
X491521Y587632D01*
X491614Y587691D01*
X491711Y587742D01*
X491748Y587776D01*
X491790Y587802D01*
X491865Y587882D01*
X491947Y587956D01*
X491974Y587998D01*
X492008Y588034D01*
X492061Y588130D01*
X492121Y588222D01*
X492138Y588269D01*
X492162Y588312D01*
X492189Y588418D01*
X492225Y588523D01*
X492229Y588572D01*
X492241Y588620D01*
X492251Y588781D01*
X492251Y610342D01*
X492248Y610371D01*
X492250Y610401D01*
X492228Y610529D01*
X492211Y610658D01*
X492201Y610685D01*
X492196Y610714D01*
X492142Y610833D01*
X492094Y610953D01*
X492077Y610977D01*
X492065Y611004D01*
X491984Y611106D01*
X491908Y611211D01*
X491885Y611230D01*
X491866Y611253D01*
X491763Y611331D01*
X491663Y611414D01*
X491636Y611426D01*
X491612Y611444D01*
X491468Y611515D01*
X488825Y612609D01*
X485609Y615825D01*
X483869Y620026D01*
X483869Y624574D01*
X485609Y628775D01*
X488825Y631991D01*
X493026Y633731D01*
X497574Y633731D01*
X501775Y631991D01*
X504991Y628775D01*
X506731Y624574D01*
X506731Y620026D01*
X504991Y615825D01*
X501775Y612609D01*
X499132Y611515D01*
X499107Y611500D01*
X499079Y611491D01*
X498969Y611422D01*
X498856Y611357D01*
X498835Y611337D01*
X498810Y611321D01*
X498721Y611226D01*
X498628Y611136D01*
X498612Y611111D01*
X498592Y611089D01*
X498529Y610976D01*
X498461Y610865D01*
X498453Y610837D01*
X498438Y610811D01*
X498406Y610685D01*
X498368Y610561D01*
X498366Y610531D01*
X498359Y610503D01*
X498349Y610342D01*
X498349Y538364D01*
X498361Y538265D01*
X498364Y538166D01*
X498381Y538108D01*
X498389Y538048D01*
X498425Y537956D01*
X498453Y537861D01*
X498483Y537809D01*
X498506Y537752D01*
X498564Y537672D01*
X498614Y537587D01*
X498680Y537512D01*
X498692Y537495D01*
X498702Y537487D01*
X498720Y537466D01*
X502950Y533236D01*
X503028Y533176D01*
X503100Y533108D01*
X503153Y533079D01*
X503201Y533042D01*
X503292Y533002D01*
X503379Y532954D01*
X503438Y532939D01*
X503493Y532915D01*
X503591Y532900D01*
X503687Y532875D01*
X503787Y532869D01*
X503807Y532865D01*
X503820Y532867D01*
X503848Y532865D01*
X505982Y532865D01*
X507959Y532046D01*
X508007Y532033D01*
X508052Y532011D01*
X508159Y531991D01*
X508266Y531962D01*
X508315Y531961D01*
X508364Y531952D01*
X508474Y531959D01*
X508584Y531957D01*
X508632Y531968D01*
X508681Y531971D01*
X508786Y532005D01*
X508893Y532031D01*
X508937Y532054D01*
X508984Y532069D01*
X509077Y532128D01*
X509174Y532180D01*
X509211Y532213D01*
X509253Y532240D01*
X509328Y532320D01*
X509409Y532394D01*
X509437Y532435D01*
X509471Y532471D01*
X509524Y532567D01*
X509584Y532659D01*
X509600Y532706D01*
X509624Y532750D01*
X509652Y532856D01*
X509687Y532960D01*
X509691Y533010D01*
X509704Y533058D01*
X509714Y533218D01*
X509714Y562625D01*
X509701Y562723D01*
X509698Y562822D01*
X509682Y562880D01*
X509674Y562940D01*
X509637Y563032D01*
X509610Y563127D01*
X509579Y563180D01*
X509557Y563236D01*
X509499Y563316D01*
X509448Y563401D01*
X509382Y563477D01*
X509370Y563493D01*
X509361Y563501D01*
X509342Y563522D01*
X507833Y565031D01*
X506948Y567168D01*
X506948Y569482D01*
X507833Y571619D01*
X509469Y573255D01*
X511606Y574140D01*
X513919Y574140D01*
X516056Y573255D01*
X517692Y571619D01*
X518577Y569482D01*
X518577Y567168D01*
X517692Y565031D01*
X516183Y563522D01*
X516122Y563444D01*
X516054Y563372D01*
X516025Y563319D01*
X515988Y563271D01*
X515949Y563180D01*
X515901Y563093D01*
X515886Y563035D01*
X515862Y562979D01*
X515846Y562881D01*
X515821Y562785D01*
X515815Y562685D01*
X515812Y562665D01*
X515813Y562653D01*
X515811Y562625D01*
X515811Y511500D01*
X315749Y311437D01*
X315688Y311359D01*
X315620Y311287D01*
X315591Y311234D01*
X315554Y311186D01*
X315515Y311095D01*
X315467Y311009D01*
X315452Y310950D01*
X315428Y310894D01*
X315412Y310796D01*
X315387Y310701D01*
X315381Y310601D01*
X315378Y310580D01*
X315379Y310568D01*
X315377Y310540D01*
X315377Y308406D01*
X314492Y306269D01*
X312983Y304760D01*
X312922Y304681D01*
X312854Y304609D01*
X312825Y304556D01*
X312788Y304508D01*
X312749Y304417D01*
X312701Y304331D01*
X312686Y304272D01*
X312662Y304217D01*
X312646Y304119D01*
X312621Y304023D01*
X312615Y303923D01*
X312612Y303903D01*
X312613Y303890D01*
X312611Y303862D01*
X312611Y218425D01*
X312624Y218327D01*
X312627Y218228D01*
X312644Y218170D01*
X312651Y218110D01*
X312688Y218018D01*
X312715Y217922D01*
X312746Y217870D01*
X312768Y217814D01*
X312826Y217734D01*
X312877Y217648D01*
X312896Y217626D01*
X313790Y215469D01*
X313790Y213156D01*
X312905Y211019D01*
X311269Y209383D01*
X309132Y208498D01*
X306818Y208498D01*
X304841Y209317D01*
X304793Y209330D01*
X304748Y209351D01*
X304641Y209372D01*
X304534Y209401D01*
X304485Y209401D01*
X304436Y209411D01*
X304326Y209404D01*
X304216Y209406D01*
X304168Y209394D01*
X304119Y209391D01*
X304014Y209357D01*
X303907Y209332D01*
X303863Y209308D01*
X303816Y209293D01*
X303723Y209234D01*
X303626Y209183D01*
X303589Y209149D01*
X303547Y209123D01*
X303472Y209043D01*
X303391Y208969D01*
X303363Y208927D01*
X303329Y208891D01*
X303276Y208795D01*
X303216Y208703D01*
X303200Y208656D01*
X303176Y208613D01*
X303148Y208506D01*
X303113Y208402D01*
X303109Y208353D01*
X303096Y208305D01*
X303086Y208144D01*
X303086Y170800D01*
X303099Y170702D01*
X303102Y170603D01*
X303118Y170545D01*
X303126Y170485D01*
X303163Y170393D01*
X303190Y170298D01*
X303221Y170245D01*
X303243Y170189D01*
X303301Y170109D01*
X303352Y170024D01*
X303418Y169948D01*
X303430Y169932D01*
X303439Y169924D01*
X303458Y169903D01*
X304967Y168394D01*
X305852Y166257D01*
X305852Y164003D01*
X305870Y163865D01*
X305883Y163727D01*
X305890Y163708D01*
X305892Y163687D01*
X305943Y163558D01*
X305990Y163427D01*
X306002Y163411D01*
X306009Y163392D01*
X306091Y163280D01*
X306169Y163164D01*
X306184Y163151D01*
X306196Y163134D01*
X306303Y163046D01*
X306407Y162954D01*
X306425Y162945D01*
X306441Y162932D01*
X306567Y162872D01*
X306691Y162809D01*
X306710Y162805D01*
X306729Y162796D01*
X306865Y162770D01*
X307001Y162740D01*
X307021Y162740D01*
X307041Y162736D01*
X307179Y162745D01*
X307319Y162749D01*
X307338Y162755D01*
X307358Y162756D01*
X307491Y162799D01*
X307624Y162838D01*
X307642Y162848D01*
X307661Y162854D01*
X307778Y162928D01*
X307898Y162999D01*
X307919Y163018D01*
X307930Y163024D01*
X307944Y163039D01*
X308019Y163106D01*
X350592Y205679D01*
X350653Y205757D01*
X350721Y205829D01*
X350750Y205882D01*
X350787Y205930D01*
X350826Y206021D01*
X350874Y206107D01*
X350889Y206166D01*
X350913Y206222D01*
X350929Y206320D01*
X350954Y206415D01*
X350960Y206515D01*
X350963Y206536D01*
X350962Y206548D01*
X350964Y206576D01*
X350964Y244150D01*
X352750Y245936D01*
X537961Y245936D01*
X538060Y245949D01*
X538159Y245952D01*
X538217Y245968D01*
X538277Y245976D01*
X538369Y246013D01*
X538464Y246040D01*
X538516Y246071D01*
X538573Y246093D01*
X538653Y246151D01*
X538738Y246202D01*
X538813Y246268D01*
X538830Y246280D01*
X538838Y246289D01*
X538859Y246308D01*
X736764Y444213D01*
X736824Y444291D01*
X736892Y444363D01*
X736921Y444416D01*
X736958Y444464D01*
X736998Y444555D01*
X737046Y444641D01*
X737061Y444700D01*
X737085Y444756D01*
X737100Y444854D01*
X737125Y444949D01*
X737131Y445049D01*
X737135Y445070D01*
X737133Y445082D01*
X737135Y445110D01*
X737135Y447244D01*
X738020Y449381D01*
X739656Y451017D01*
X741793Y451902D01*
X744107Y451902D01*
X746244Y451017D01*
X747880Y449381D01*
X748851Y447035D01*
X748876Y446992D01*
X748893Y446945D01*
X748955Y446854D01*
X749009Y446759D01*
X749043Y446723D01*
X749071Y446682D01*
X749154Y446609D01*
X749230Y446530D01*
X749273Y446504D01*
X749310Y446471D01*
X749408Y446421D01*
X749501Y446364D01*
X749549Y446349D01*
X749593Y446327D01*
X749700Y446303D01*
X749805Y446270D01*
X749855Y446268D01*
X749903Y446257D01*
X750013Y446260D01*
X750123Y446255D01*
G37*
G36*
X802796Y141483D02*
X802796Y141483D01*
X802824Y141495D01*
X802853Y141501D01*
X802970Y141558D01*
X803088Y141609D01*
X803112Y141627D01*
X803139Y141641D01*
X803237Y141725D01*
X803340Y141804D01*
X803358Y141827D01*
X803381Y141847D01*
X803455Y141953D01*
X803535Y142055D01*
X803547Y142082D01*
X803564Y142107D01*
X803610Y142228D01*
X803661Y142347D01*
X803671Y142388D01*
X803677Y142404D01*
X803679Y142426D01*
X803694Y142491D01*
X804276Y144283D01*
X805129Y145957D01*
X806234Y147478D01*
X807562Y148806D01*
X809083Y149911D01*
X810757Y150764D01*
X812544Y151345D01*
X812801Y151385D01*
X812801Y140970D01*
X812816Y140852D01*
X812823Y140733D01*
X812836Y140695D01*
X812841Y140655D01*
X812884Y140544D01*
X812921Y140431D01*
X812943Y140397D01*
X812958Y140359D01*
X813028Y140263D01*
X813091Y140162D01*
X813121Y140134D01*
X813144Y140102D01*
X813236Y140026D01*
X813323Y139944D01*
X813358Y139925D01*
X813389Y139899D01*
X813497Y139848D01*
X813601Y139791D01*
X813641Y139780D01*
X813677Y139763D01*
X813794Y139741D01*
X813909Y139711D01*
X813970Y139707D01*
X813990Y139703D01*
X814010Y139705D01*
X814070Y139701D01*
X816610Y139701D01*
X816728Y139716D01*
X816847Y139723D01*
X816885Y139736D01*
X816925Y139741D01*
X817036Y139785D01*
X817149Y139821D01*
X817184Y139843D01*
X817221Y139858D01*
X817317Y139928D01*
X817418Y139991D01*
X817446Y140021D01*
X817479Y140045D01*
X817554Y140136D01*
X817636Y140223D01*
X817656Y140258D01*
X817681Y140290D01*
X817732Y140397D01*
X817790Y140502D01*
X817800Y140541D01*
X817817Y140577D01*
X817839Y140694D01*
X817869Y140809D01*
X817873Y140870D01*
X817877Y140890D01*
X817875Y140910D01*
X817879Y140970D01*
X817879Y151385D01*
X818136Y151345D01*
X819923Y150764D01*
X821597Y149911D01*
X823118Y148806D01*
X824446Y147478D01*
X825551Y145957D01*
X826404Y144283D01*
X826994Y142466D01*
X827019Y142380D01*
X827050Y142254D01*
X827064Y142227D01*
X827072Y142198D01*
X827138Y142087D01*
X827198Y141973D01*
X827219Y141950D01*
X827234Y141924D01*
X827325Y141833D01*
X827412Y141737D01*
X827437Y141721D01*
X827459Y141700D01*
X827570Y141634D01*
X827678Y141563D01*
X827707Y141553D01*
X827732Y141537D01*
X827856Y141501D01*
X827979Y141459D01*
X828009Y141457D01*
X828038Y141449D01*
X828167Y141444D01*
X828296Y141434D01*
X828326Y141439D01*
X828356Y141438D01*
X828482Y141466D01*
X828609Y141489D01*
X828637Y141501D01*
X828666Y141507D01*
X828781Y141566D01*
X828899Y141619D01*
X828923Y141638D01*
X828950Y141652D01*
X829046Y141737D01*
X829148Y141818D01*
X829166Y141842D01*
X829188Y141862D01*
X829261Y141968D01*
X829339Y142072D01*
X829358Y142110D01*
X829367Y142124D01*
X829375Y142145D01*
X829410Y142216D01*
X831049Y146175D01*
X834265Y149391D01*
X838466Y151131D01*
X843014Y151131D01*
X847215Y149391D01*
X850431Y146175D01*
X852171Y141974D01*
X852171Y137426D01*
X850431Y133225D01*
X847215Y130009D01*
X843014Y128269D01*
X838466Y128269D01*
X834265Y130009D01*
X831049Y133225D01*
X829410Y137184D01*
X829346Y137296D01*
X829287Y137411D01*
X829267Y137434D01*
X829252Y137460D01*
X829162Y137553D01*
X829077Y137650D01*
X829052Y137667D01*
X829031Y137688D01*
X828921Y137756D01*
X828814Y137829D01*
X828786Y137839D01*
X828760Y137855D01*
X828636Y137893D01*
X828515Y137936D01*
X828485Y137939D01*
X828456Y137948D01*
X828327Y137954D01*
X828198Y137967D01*
X828168Y137962D01*
X828138Y137963D01*
X828012Y137937D01*
X827884Y137917D01*
X827856Y137905D01*
X827827Y137899D01*
X827711Y137842D01*
X827592Y137791D01*
X827568Y137773D01*
X827541Y137759D01*
X827443Y137675D01*
X827341Y137596D01*
X827322Y137573D01*
X827299Y137553D01*
X827225Y137447D01*
X827145Y137345D01*
X827133Y137318D01*
X827116Y137293D01*
X827070Y137172D01*
X827019Y137053D01*
X827009Y137011D01*
X827003Y136996D01*
X827001Y136974D01*
X826986Y136909D01*
X826404Y135117D01*
X825551Y133443D01*
X824446Y131922D01*
X823118Y130594D01*
X821597Y129489D01*
X819923Y128636D01*
X818603Y128207D01*
X818495Y128156D01*
X818384Y128112D01*
X818352Y128089D01*
X818315Y128072D01*
X818223Y127996D01*
X818127Y127926D01*
X818101Y127895D01*
X818070Y127869D01*
X818000Y127773D01*
X817924Y127681D01*
X817907Y127644D01*
X817883Y127612D01*
X817839Y127500D01*
X817788Y127393D01*
X817781Y127354D01*
X817766Y127316D01*
X817751Y127197D01*
X817729Y127080D01*
X817731Y127041D01*
X817726Y127001D01*
X817741Y126882D01*
X817748Y126763D01*
X817761Y126725D01*
X817766Y126685D01*
X817810Y126574D01*
X817846Y126461D01*
X817868Y126427D01*
X817883Y126389D01*
X817953Y126293D01*
X818017Y126192D01*
X818046Y126164D01*
X818069Y126132D01*
X818161Y126056D01*
X818248Y125974D01*
X818283Y125955D01*
X818314Y125929D01*
X818422Y125878D01*
X818527Y125820D01*
X818565Y125810D01*
X818602Y125793D01*
X818719Y125771D01*
X818835Y125741D01*
X818894Y125737D01*
X818914Y125733D01*
X818935Y125735D01*
X818995Y125731D01*
X863600Y125731D01*
X863718Y125746D01*
X863837Y125753D01*
X863875Y125766D01*
X863916Y125771D01*
X864026Y125814D01*
X864139Y125851D01*
X864174Y125873D01*
X864211Y125888D01*
X864307Y125957D01*
X864408Y126021D01*
X864436Y126051D01*
X864469Y126074D01*
X864545Y126166D01*
X864626Y126253D01*
X864646Y126288D01*
X864671Y126319D01*
X864722Y126427D01*
X864780Y126531D01*
X864790Y126571D01*
X864807Y126607D01*
X864829Y126724D01*
X864859Y126839D01*
X864863Y126899D01*
X864867Y126919D01*
X864865Y126940D01*
X864869Y127000D01*
X864869Y635000D01*
X864854Y635118D01*
X864847Y635237D01*
X864834Y635275D01*
X864829Y635316D01*
X864786Y635426D01*
X864749Y635539D01*
X864727Y635574D01*
X864712Y635611D01*
X864643Y635707D01*
X864579Y635808D01*
X864549Y635836D01*
X864526Y635869D01*
X864434Y635945D01*
X864347Y636026D01*
X864312Y636046D01*
X864281Y636071D01*
X864173Y636122D01*
X864069Y636180D01*
X864029Y636190D01*
X863993Y636207D01*
X863876Y636229D01*
X863761Y636259D01*
X863701Y636263D01*
X863681Y636267D01*
X863660Y636265D01*
X863600Y636269D01*
X727754Y636269D01*
X727684Y636261D01*
X727614Y636262D01*
X727527Y636241D01*
X727438Y636229D01*
X727373Y636204D01*
X727305Y636187D01*
X727226Y636145D01*
X727142Y636112D01*
X727086Y636071D01*
X727024Y636039D01*
X726958Y635978D01*
X726885Y635926D01*
X726840Y635872D01*
X726789Y635825D01*
X726739Y635750D01*
X726682Y635681D01*
X726652Y635617D01*
X726614Y635559D01*
X726585Y635474D01*
X726547Y635393D01*
X726534Y635324D01*
X726511Y635258D01*
X726504Y635169D01*
X726487Y635081D01*
X726491Y635011D01*
X726486Y634941D01*
X726501Y634853D01*
X726507Y634763D01*
X726528Y634697D01*
X726540Y634628D01*
X726577Y634546D01*
X726605Y634461D01*
X726642Y634402D01*
X726671Y634338D01*
X726727Y634268D01*
X726775Y634192D01*
X726826Y634144D01*
X726869Y634090D01*
X726941Y634035D01*
X727006Y633974D01*
X727067Y633940D01*
X727123Y633898D01*
X727268Y633827D01*
X730663Y632421D01*
X734021Y629063D01*
X735702Y625004D01*
X735771Y624884D01*
X735836Y624760D01*
X735850Y624745D01*
X735860Y624728D01*
X735957Y624628D01*
X736050Y624525D01*
X736067Y624514D01*
X736081Y624499D01*
X736199Y624427D01*
X736316Y624350D01*
X736335Y624344D01*
X736352Y624333D01*
X736485Y624292D01*
X736617Y624247D01*
X736637Y624246D01*
X736656Y624240D01*
X736795Y624233D01*
X736934Y624222D01*
X736954Y624225D01*
X736974Y624224D01*
X737110Y624253D01*
X737247Y624276D01*
X737265Y624285D01*
X737285Y624289D01*
X737410Y624350D01*
X737537Y624407D01*
X737553Y624420D01*
X737571Y624428D01*
X737677Y624519D01*
X737785Y624605D01*
X737798Y624622D01*
X737813Y624635D01*
X737893Y624748D01*
X737977Y624860D01*
X737989Y624885D01*
X737996Y624895D01*
X738003Y624914D01*
X738048Y625004D01*
X739609Y628775D01*
X742825Y631991D01*
X747026Y633731D01*
X751574Y633731D01*
X755775Y631991D01*
X758991Y628775D01*
X760731Y624574D01*
X760731Y620026D01*
X758991Y615825D01*
X755775Y612609D01*
X751574Y610869D01*
X747026Y610869D01*
X742825Y612609D01*
X739609Y615825D01*
X738048Y619596D01*
X737979Y619717D01*
X737914Y619840D01*
X737900Y619855D01*
X737890Y619872D01*
X737793Y619972D01*
X737700Y620075D01*
X737683Y620086D01*
X737669Y620101D01*
X737550Y620173D01*
X737434Y620250D01*
X737415Y620256D01*
X737398Y620267D01*
X737265Y620308D01*
X737133Y620353D01*
X737113Y620354D01*
X737094Y620360D01*
X736955Y620367D01*
X736816Y620378D01*
X736796Y620375D01*
X736776Y620376D01*
X736640Y620347D01*
X736503Y620324D01*
X736484Y620315D01*
X736465Y620311D01*
X736339Y620250D01*
X736213Y620193D01*
X736197Y620180D01*
X736179Y620172D01*
X736073Y620081D01*
X735964Y619995D01*
X735952Y619978D01*
X735937Y619965D01*
X735857Y619851D01*
X735773Y619740D01*
X735761Y619715D01*
X735754Y619705D01*
X735746Y619686D01*
X735702Y619596D01*
X734021Y615537D01*
X730663Y612179D01*
X726275Y610361D01*
X721525Y610361D01*
X717137Y612179D01*
X713779Y615537D01*
X712098Y619596D01*
X712029Y619716D01*
X711964Y619840D01*
X711950Y619855D01*
X711940Y619872D01*
X711843Y619972D01*
X711750Y620075D01*
X711733Y620086D01*
X711719Y620101D01*
X711601Y620173D01*
X711484Y620250D01*
X711465Y620256D01*
X711448Y620267D01*
X711315Y620308D01*
X711183Y620353D01*
X711163Y620354D01*
X711144Y620360D01*
X711005Y620367D01*
X710866Y620378D01*
X710846Y620375D01*
X710826Y620376D01*
X710690Y620347D01*
X710553Y620324D01*
X710535Y620315D01*
X710515Y620311D01*
X710390Y620250D01*
X710263Y620193D01*
X710247Y620180D01*
X710229Y620172D01*
X710123Y620081D01*
X710015Y619995D01*
X710002Y619978D01*
X709987Y619965D01*
X709907Y619852D01*
X709823Y619740D01*
X709811Y619715D01*
X709804Y619705D01*
X709797Y619686D01*
X709752Y619596D01*
X708191Y615825D01*
X704975Y612609D01*
X702332Y611515D01*
X702307Y611500D01*
X702279Y611491D01*
X702169Y611422D01*
X702056Y611357D01*
X702035Y611337D01*
X702010Y611321D01*
X701921Y611226D01*
X701828Y611136D01*
X701812Y611111D01*
X701792Y611089D01*
X701729Y610976D01*
X701661Y610865D01*
X701653Y610837D01*
X701638Y610811D01*
X701606Y610685D01*
X701568Y610561D01*
X701566Y610531D01*
X701559Y610503D01*
X701549Y610342D01*
X701549Y546301D01*
X701561Y546203D01*
X701564Y546104D01*
X701581Y546046D01*
X701589Y545986D01*
X701625Y545893D01*
X701653Y545798D01*
X701683Y545746D01*
X701706Y545690D01*
X701764Y545610D01*
X701814Y545524D01*
X701880Y545449D01*
X701892Y545433D01*
X701902Y545425D01*
X701920Y545404D01*
X766475Y480849D01*
X766553Y480788D01*
X766625Y480720D01*
X766678Y480691D01*
X766726Y480654D01*
X766817Y480615D01*
X766904Y480567D01*
X766962Y480552D01*
X767018Y480528D01*
X767116Y480512D01*
X767212Y480487D01*
X767312Y480481D01*
X767332Y480478D01*
X767345Y480479D01*
X767373Y480477D01*
X769507Y480477D01*
X771644Y479592D01*
X773279Y477956D01*
X773708Y476921D01*
X773733Y476878D01*
X773750Y476831D01*
X773812Y476740D01*
X773866Y476645D01*
X773900Y476609D01*
X773928Y476568D01*
X774011Y476495D01*
X774087Y476416D01*
X774130Y476390D01*
X774167Y476357D01*
X774265Y476307D01*
X774358Y476250D01*
X774406Y476235D01*
X774450Y476213D01*
X774557Y476189D01*
X774662Y476156D01*
X774712Y476154D01*
X774760Y476143D01*
X774870Y476146D01*
X774980Y476141D01*
X775029Y476151D01*
X775078Y476153D01*
X775184Y476183D01*
X775291Y476205D01*
X775336Y476227D01*
X775384Y476241D01*
X775478Y476297D01*
X775577Y476345D01*
X775615Y476377D01*
X775658Y476403D01*
X775779Y476509D01*
X776039Y476769D01*
X778466Y477775D01*
X781094Y477775D01*
X783521Y476769D01*
X785379Y474911D01*
X786385Y472484D01*
X786385Y469856D01*
X785379Y467429D01*
X783521Y465571D01*
X781094Y464565D01*
X778429Y464565D01*
X778376Y464577D01*
X778251Y464612D01*
X778221Y464612D01*
X778192Y464618D01*
X778138Y464617D01*
X778080Y464620D01*
X778068Y464620D01*
X778025Y464615D01*
X777933Y464617D01*
X777904Y464610D01*
X777874Y464609D01*
X777796Y464586D01*
X777752Y464581D01*
X777706Y464562D01*
X777623Y464542D01*
X777597Y464529D01*
X777569Y464520D01*
X777505Y464483D01*
X777457Y464464D01*
X777409Y464429D01*
X777342Y464394D01*
X777320Y464374D01*
X777295Y464359D01*
X777213Y464287D01*
X777199Y464277D01*
X777193Y464269D01*
X777174Y464252D01*
X745100Y432179D01*
X745040Y432101D01*
X744972Y432029D01*
X744943Y431976D01*
X744906Y431928D01*
X744866Y431837D01*
X744818Y431750D01*
X744803Y431691D01*
X744779Y431636D01*
X744764Y431538D01*
X744739Y431442D01*
X744733Y431342D01*
X744729Y431322D01*
X744731Y431309D01*
X744729Y431281D01*
X744729Y421107D01*
X744741Y421009D01*
X744744Y420910D01*
X744761Y420852D01*
X744769Y420792D01*
X744805Y420700D01*
X744833Y420604D01*
X744863Y420552D01*
X744886Y420496D01*
X744944Y420416D01*
X744994Y420331D01*
X745060Y420255D01*
X745072Y420239D01*
X745082Y420231D01*
X745100Y420210D01*
X745397Y419913D01*
X746403Y417485D01*
X746403Y414858D01*
X745397Y412430D01*
X743539Y410572D01*
X741112Y409567D01*
X738484Y409567D01*
X736057Y410572D01*
X734199Y412430D01*
X733193Y414858D01*
X733193Y417485D01*
X734199Y419913D01*
X736057Y421771D01*
X737848Y422513D01*
X737873Y422527D01*
X737901Y422536D01*
X738011Y422606D01*
X738124Y422670D01*
X738145Y422691D01*
X738170Y422707D01*
X738259Y422801D01*
X738352Y422892D01*
X738368Y422917D01*
X738388Y422938D01*
X738451Y423052D01*
X738519Y423163D01*
X738527Y423191D01*
X738542Y423217D01*
X738574Y423343D01*
X738612Y423467D01*
X738614Y423496D01*
X738621Y423525D01*
X738631Y423685D01*
X738631Y434393D01*
X738614Y434531D01*
X738601Y434669D01*
X738594Y434688D01*
X738591Y434709D01*
X738540Y434838D01*
X738493Y434969D01*
X738482Y434985D01*
X738474Y435004D01*
X738393Y435117D01*
X738315Y435232D01*
X738299Y435245D01*
X738288Y435262D01*
X738180Y435350D01*
X738076Y435442D01*
X738058Y435451D01*
X738043Y435464D01*
X737917Y435524D01*
X737793Y435587D01*
X737773Y435591D01*
X737755Y435600D01*
X737619Y435626D01*
X737483Y435656D01*
X737462Y435656D01*
X737443Y435660D01*
X737304Y435651D01*
X737165Y435647D01*
X737145Y435641D01*
X737125Y435640D01*
X736993Y435597D01*
X736859Y435558D01*
X736842Y435548D01*
X736823Y435542D01*
X736705Y435468D01*
X736585Y435397D01*
X736564Y435378D01*
X736554Y435372D01*
X736540Y435357D01*
X736465Y435290D01*
X543170Y241996D01*
X541013Y239839D01*
X523693Y239839D01*
X523644Y239833D01*
X523594Y239835D01*
X523487Y239813D01*
X523378Y239799D01*
X523332Y239781D01*
X523283Y239771D01*
X523184Y239722D01*
X523082Y239682D01*
X523042Y239653D01*
X522997Y239631D01*
X522914Y239560D01*
X522825Y239495D01*
X522793Y239457D01*
X522755Y239425D01*
X522692Y239335D01*
X522622Y239250D01*
X522601Y239205D01*
X522572Y239164D01*
X522533Y239062D01*
X522486Y238962D01*
X522477Y238914D01*
X522460Y238867D01*
X522447Y238758D01*
X522427Y238650D01*
X522430Y238601D01*
X522424Y238551D01*
X522440Y238442D01*
X522446Y238333D01*
X522462Y238285D01*
X522469Y238236D01*
X522521Y238084D01*
X523340Y236107D01*
X523340Y233973D01*
X523352Y233874D01*
X523355Y233775D01*
X523372Y233717D01*
X523380Y233657D01*
X523416Y233565D01*
X523444Y233470D01*
X523474Y233417D01*
X523497Y233361D01*
X523555Y233281D01*
X523605Y233196D01*
X523671Y233121D01*
X523683Y233104D01*
X523693Y233096D01*
X523712Y233075D01*
X523749Y233038D01*
X523749Y151658D01*
X523752Y151629D01*
X523750Y151599D01*
X523772Y151471D01*
X523789Y151342D01*
X523799Y151315D01*
X523804Y151286D01*
X523858Y151167D01*
X523906Y151047D01*
X523923Y151023D01*
X523935Y150996D01*
X524016Y150894D01*
X524092Y150789D01*
X524115Y150770D01*
X524134Y150747D01*
X524237Y150669D01*
X524337Y150586D01*
X524364Y150574D01*
X524388Y150556D01*
X524532Y150485D01*
X527175Y149391D01*
X528185Y148381D01*
X528294Y148296D01*
X528401Y148207D01*
X528420Y148198D01*
X528436Y148186D01*
X528563Y148131D01*
X528689Y148072D01*
X528709Y148068D01*
X528728Y148060D01*
X528866Y148038D01*
X529002Y148012D01*
X529022Y148013D01*
X529042Y148010D01*
X529181Y148023D01*
X529319Y148032D01*
X529338Y148038D01*
X529358Y148040D01*
X529490Y148087D01*
X529621Y148130D01*
X529639Y148140D01*
X529658Y148147D01*
X529773Y148225D01*
X529890Y148300D01*
X529904Y148314D01*
X529921Y148326D01*
X530013Y148430D01*
X530108Y148531D01*
X530118Y148549D01*
X530131Y148564D01*
X530194Y148688D01*
X530262Y148810D01*
X530267Y148829D01*
X530276Y148847D01*
X530306Y148983D01*
X530341Y149118D01*
X530343Y149146D01*
X530346Y149158D01*
X530345Y149178D01*
X530351Y149278D01*
X530351Y209225D01*
X532137Y211011D01*
X547486Y211011D01*
X547585Y211024D01*
X547684Y211027D01*
X547742Y211043D01*
X547802Y211051D01*
X547894Y211088D01*
X547989Y211115D01*
X548041Y211146D01*
X548098Y211168D01*
X548178Y211226D01*
X548263Y211277D01*
X548339Y211343D01*
X548355Y211355D01*
X548363Y211364D01*
X548384Y211383D01*
X733589Y396588D01*
X733649Y396666D01*
X733717Y396738D01*
X733746Y396791D01*
X733783Y396839D01*
X733823Y396930D01*
X733871Y397016D01*
X733886Y397075D01*
X733910Y397131D01*
X733925Y397229D01*
X733950Y397324D01*
X733956Y397424D01*
X733960Y397445D01*
X733958Y397457D01*
X733960Y397485D01*
X733960Y399619D01*
X734845Y401756D01*
X736481Y403392D01*
X738618Y404277D01*
X740932Y404277D01*
X743069Y403392D01*
X744705Y401756D01*
X745590Y399619D01*
X745590Y397306D01*
X744705Y395169D01*
X743069Y393533D01*
X740932Y392648D01*
X738798Y392648D01*
X738699Y392635D01*
X738600Y392632D01*
X738542Y392616D01*
X738482Y392608D01*
X738390Y392571D01*
X738295Y392544D01*
X738243Y392513D01*
X738186Y392491D01*
X738106Y392433D01*
X738021Y392382D01*
X737945Y392316D01*
X737929Y392304D01*
X737921Y392295D01*
X737900Y392276D01*
X552695Y207071D01*
X550884Y205260D01*
X550811Y205165D01*
X550732Y205076D01*
X550713Y205040D01*
X550689Y205008D01*
X550641Y204899D01*
X550587Y204793D01*
X550578Y204754D01*
X550562Y204716D01*
X550544Y204599D01*
X550518Y204483D01*
X550519Y204442D01*
X550513Y204402D01*
X550524Y204283D01*
X550527Y204165D01*
X550539Y204126D01*
X550542Y204086D01*
X550583Y203973D01*
X550616Y203859D01*
X550636Y203825D01*
X550650Y203786D01*
X550717Y203688D01*
X550777Y203585D01*
X550817Y203540D01*
X550829Y203523D01*
X550844Y203510D01*
X550884Y203465D01*
X551030Y203319D01*
X551915Y201182D01*
X551915Y198868D01*
X551030Y196731D01*
X549520Y195222D01*
X549460Y195144D01*
X549392Y195072D01*
X549363Y195019D01*
X549326Y194971D01*
X549286Y194880D01*
X549238Y194793D01*
X549223Y194735D01*
X549199Y194679D01*
X549184Y194581D01*
X549159Y194485D01*
X549153Y194385D01*
X549149Y194365D01*
X549151Y194353D01*
X549149Y194325D01*
X549149Y151658D01*
X549152Y151629D01*
X549150Y151599D01*
X549172Y151471D01*
X549189Y151342D01*
X549199Y151315D01*
X549204Y151286D01*
X549258Y151167D01*
X549306Y151047D01*
X549323Y151023D01*
X549335Y150996D01*
X549416Y150894D01*
X549492Y150789D01*
X549515Y150770D01*
X549534Y150747D01*
X549637Y150669D01*
X549737Y150586D01*
X549764Y150574D01*
X549788Y150556D01*
X549932Y150485D01*
X552575Y149391D01*
X555791Y146175D01*
X557531Y141974D01*
X557531Y137426D01*
X555791Y133225D01*
X552575Y130009D01*
X548374Y128269D01*
X543826Y128269D01*
X539625Y130009D01*
X537896Y131739D01*
X537805Y131809D01*
X537779Y131834D01*
X537773Y131837D01*
X537712Y131891D01*
X537676Y131909D01*
X537644Y131934D01*
X537535Y131981D01*
X537429Y132035D01*
X537390Y132044D01*
X537352Y132060D01*
X537235Y132079D01*
X537119Y132105D01*
X537078Y132104D01*
X537038Y132110D01*
X536920Y132099D01*
X536801Y132095D01*
X536762Y132084D01*
X536722Y132080D01*
X536609Y132040D01*
X536495Y132007D01*
X536461Y131986D01*
X536422Y131973D01*
X536324Y131906D01*
X536221Y131845D01*
X536176Y131806D01*
X536159Y131794D01*
X536146Y131779D01*
X536101Y131739D01*
X532259Y127897D01*
X532174Y127788D01*
X532085Y127681D01*
X532077Y127662D01*
X532064Y127646D01*
X532009Y127518D01*
X531950Y127393D01*
X531946Y127373D01*
X531938Y127354D01*
X531916Y127216D01*
X531890Y127080D01*
X531891Y127060D01*
X531888Y127040D01*
X531901Y126901D01*
X531910Y126763D01*
X531916Y126744D01*
X531918Y126724D01*
X531965Y126592D01*
X532008Y126461D01*
X532018Y126443D01*
X532025Y126424D01*
X532103Y126309D01*
X532178Y126192D01*
X532193Y126178D01*
X532204Y126161D01*
X532308Y126069D01*
X532409Y125974D01*
X532427Y125964D01*
X532442Y125951D01*
X532566Y125887D01*
X532688Y125820D01*
X532707Y125815D01*
X532726Y125806D01*
X532861Y125776D01*
X532996Y125741D01*
X533024Y125739D01*
X533036Y125736D01*
X533056Y125737D01*
X533157Y125731D01*
X811685Y125731D01*
X811803Y125746D01*
X811922Y125753D01*
X811960Y125766D01*
X812000Y125771D01*
X812111Y125814D01*
X812225Y125851D01*
X812259Y125873D01*
X812296Y125888D01*
X812392Y125958D01*
X812493Y126022D01*
X812521Y126051D01*
X812553Y126074D01*
X812629Y126166D01*
X812711Y126253D01*
X812731Y126289D01*
X812756Y126319D01*
X812807Y126427D01*
X812865Y126532D01*
X812875Y126571D01*
X812892Y126607D01*
X812914Y126724D01*
X812944Y126840D01*
X812944Y126880D01*
X812951Y126919D01*
X812944Y127039D01*
X812944Y127158D01*
X812934Y127197D01*
X812932Y127237D01*
X812895Y127350D01*
X812865Y127466D01*
X812846Y127501D01*
X812834Y127539D01*
X812770Y127640D01*
X812712Y127745D01*
X812685Y127774D01*
X812663Y127808D01*
X812576Y127890D01*
X812495Y127977D01*
X812461Y127999D01*
X812432Y128026D01*
X812327Y128084D01*
X812227Y128148D01*
X812171Y128170D01*
X812153Y128180D01*
X812134Y128185D01*
X812077Y128207D01*
X810757Y128636D01*
X809083Y129489D01*
X807562Y130594D01*
X806234Y131922D01*
X805129Y133443D01*
X804276Y135117D01*
X803686Y136934D01*
X803660Y137020D01*
X803630Y137146D01*
X803616Y137173D01*
X803608Y137202D01*
X803542Y137313D01*
X803482Y137427D01*
X803461Y137450D01*
X803446Y137476D01*
X803355Y137567D01*
X803268Y137663D01*
X803243Y137679D01*
X803221Y137701D01*
X803110Y137766D01*
X803002Y137837D01*
X802973Y137847D01*
X802948Y137863D01*
X802824Y137899D01*
X802701Y137941D01*
X802671Y137943D01*
X802642Y137951D01*
X802513Y137956D01*
X802384Y137966D01*
X802354Y137961D01*
X802324Y137962D01*
X802198Y137934D01*
X802071Y137911D01*
X802043Y137899D01*
X802014Y137892D01*
X801899Y137834D01*
X801781Y137781D01*
X801757Y137762D01*
X801730Y137748D01*
X801633Y137663D01*
X801532Y137582D01*
X801514Y137558D01*
X801492Y137538D01*
X801419Y137431D01*
X801341Y137328D01*
X801322Y137289D01*
X801313Y137275D01*
X801305Y137255D01*
X801270Y137184D01*
X799631Y133225D01*
X796415Y130009D01*
X792214Y128269D01*
X787666Y128269D01*
X783465Y130009D01*
X780249Y133225D01*
X778509Y137426D01*
X778509Y141974D01*
X780249Y146175D01*
X783465Y149391D01*
X787666Y151131D01*
X792214Y151131D01*
X796415Y149391D01*
X799631Y146175D01*
X801270Y142216D01*
X801334Y142104D01*
X801393Y141989D01*
X801413Y141966D01*
X801428Y141940D01*
X801518Y141847D01*
X801603Y141750D01*
X801628Y141733D01*
X801649Y141712D01*
X801760Y141644D01*
X801866Y141571D01*
X801895Y141561D01*
X801920Y141545D01*
X802044Y141507D01*
X802165Y141464D01*
X802195Y141461D01*
X802224Y141452D01*
X802353Y141446D01*
X802482Y141433D01*
X802512Y141438D01*
X802542Y141437D01*
X802668Y141463D01*
X802796Y141483D01*
G37*
G36*
X151215Y144379D02*
X151215Y144379D01*
X151307Y144408D01*
X151401Y144427D01*
X151458Y144455D01*
X151518Y144474D01*
X151600Y144524D01*
X151687Y144567D01*
X151735Y144608D01*
X151789Y144641D01*
X151855Y144711D01*
X151929Y144773D01*
X151965Y144825D01*
X152009Y144870D01*
X152056Y144954D01*
X152112Y145033D01*
X152134Y145092D01*
X152165Y145147D01*
X152217Y145300D01*
X153422Y149798D01*
X156866Y155763D01*
X161737Y160634D01*
X167702Y164078D01*
X174356Y165861D01*
X181244Y165861D01*
X187898Y164078D01*
X193863Y160634D01*
X198734Y155763D01*
X202178Y149798D01*
X203383Y145300D01*
X203407Y145241D01*
X203422Y145180D01*
X203467Y145095D01*
X203503Y145005D01*
X203541Y144955D01*
X203570Y144899D01*
X203635Y144827D01*
X203693Y144750D01*
X203742Y144710D01*
X203784Y144663D01*
X203865Y144610D01*
X203940Y144550D01*
X203997Y144523D01*
X204050Y144489D01*
X204141Y144457D01*
X204229Y144417D01*
X204291Y144406D01*
X204351Y144385D01*
X204447Y144378D01*
X204542Y144361D01*
X204605Y144365D01*
X204668Y144360D01*
X204763Y144377D01*
X204859Y144384D01*
X204919Y144404D01*
X204981Y144415D01*
X205069Y144454D01*
X205161Y144485D01*
X205214Y144519D01*
X205271Y144545D01*
X205347Y144606D01*
X205428Y144658D01*
X205470Y144704D01*
X205520Y144744D01*
X205578Y144821D01*
X205643Y144892D01*
X205673Y144948D01*
X205711Y144998D01*
X205782Y145142D01*
X206209Y146175D01*
X209425Y149391D01*
X212068Y150485D01*
X212093Y150500D01*
X212121Y150509D01*
X212231Y150578D01*
X212344Y150643D01*
X212365Y150663D01*
X212390Y150679D01*
X212479Y150774D01*
X212572Y150864D01*
X212588Y150889D01*
X212608Y150911D01*
X212671Y151024D01*
X212739Y151135D01*
X212747Y151163D01*
X212762Y151189D01*
X212794Y151315D01*
X212832Y151439D01*
X212834Y151469D01*
X212841Y151497D01*
X212851Y151658D01*
X212851Y153663D01*
X214637Y155449D01*
X299836Y155449D01*
X299935Y155461D01*
X300034Y155464D01*
X300092Y155481D01*
X300152Y155489D01*
X300244Y155525D01*
X300339Y155553D01*
X300391Y155583D01*
X300448Y155606D01*
X300528Y155664D01*
X300613Y155714D01*
X300688Y155780D01*
X300705Y155792D01*
X300713Y155802D01*
X300734Y155820D01*
X302032Y157119D01*
X302117Y157228D01*
X302206Y157335D01*
X302215Y157354D01*
X302227Y157370D01*
X302282Y157497D01*
X302341Y157623D01*
X302345Y157643D01*
X302353Y157662D01*
X302375Y157800D01*
X302401Y157936D01*
X302400Y157956D01*
X302403Y157976D01*
X302390Y158115D01*
X302381Y158253D01*
X302375Y158272D01*
X302373Y158292D01*
X302326Y158424D01*
X302283Y158555D01*
X302273Y158573D01*
X302266Y158592D01*
X302188Y158707D01*
X302113Y158824D01*
X302098Y158838D01*
X302087Y158855D01*
X301983Y158947D01*
X301882Y159042D01*
X301864Y159052D01*
X301849Y159065D01*
X301725Y159129D01*
X301603Y159196D01*
X301584Y159201D01*
X301565Y159210D01*
X301430Y159240D01*
X301295Y159275D01*
X301267Y159277D01*
X301255Y159280D01*
X301235Y159279D01*
X301134Y159285D01*
X298881Y159285D01*
X296744Y160170D01*
X295108Y161806D01*
X294223Y163943D01*
X294223Y166257D01*
X295108Y168394D01*
X296617Y169903D01*
X296678Y169981D01*
X296746Y170053D01*
X296775Y170106D01*
X296812Y170154D01*
X296851Y170245D01*
X296899Y170332D01*
X296914Y170390D01*
X296938Y170446D01*
X296954Y170544D01*
X296979Y170640D01*
X296985Y170740D01*
X296988Y170760D01*
X296987Y170772D01*
X296989Y170800D01*
X296989Y320350D01*
X299146Y322508D01*
X302934Y326295D01*
X302977Y326351D01*
X303027Y326399D01*
X303074Y326476D01*
X303129Y326547D01*
X303157Y326611D01*
X303193Y326670D01*
X303219Y326756D01*
X303255Y326838D01*
X303266Y326908D01*
X303287Y326974D01*
X303291Y327064D01*
X303305Y327153D01*
X303298Y327222D01*
X303302Y327292D01*
X303284Y327380D01*
X303275Y327469D01*
X303251Y327535D01*
X303237Y327603D01*
X303198Y327684D01*
X303168Y327768D01*
X303128Y327826D01*
X303098Y327889D01*
X303039Y327957D01*
X302989Y328032D01*
X302937Y328078D01*
X302891Y328131D01*
X302818Y328183D01*
X302751Y328242D01*
X302688Y328274D01*
X302631Y328314D01*
X302547Y328346D01*
X302467Y328387D01*
X302399Y328402D01*
X302334Y328427D01*
X302245Y328437D01*
X302157Y328456D01*
X302087Y328454D01*
X302018Y328462D01*
X301929Y328449D01*
X301839Y328447D01*
X301772Y328427D01*
X301703Y328418D01*
X301551Y328365D01*
X299607Y327560D01*
X297293Y327560D01*
X295156Y328445D01*
X293520Y330081D01*
X292828Y331753D01*
X292794Y331813D01*
X292768Y331878D01*
X292715Y331951D01*
X292671Y332029D01*
X292622Y332079D01*
X292581Y332136D01*
X292512Y332193D01*
X292449Y332257D01*
X292390Y332294D01*
X292336Y332338D01*
X292255Y332377D01*
X292178Y332424D01*
X292111Y332444D01*
X292048Y332474D01*
X291960Y332491D01*
X291874Y332517D01*
X291804Y332521D01*
X291736Y332534D01*
X291646Y332528D01*
X291557Y332533D01*
X291488Y332518D01*
X291419Y332514D01*
X291333Y332486D01*
X291245Y332468D01*
X291182Y332438D01*
X291116Y332416D01*
X291040Y332368D01*
X290959Y332328D01*
X290906Y332283D01*
X290847Y332246D01*
X290786Y332180D01*
X290717Y332122D01*
X290677Y332065D01*
X290629Y332014D01*
X290586Y331936D01*
X290534Y331862D01*
X290510Y331797D01*
X290476Y331736D01*
X290454Y331649D01*
X290422Y331565D01*
X290414Y331495D01*
X290396Y331428D01*
X290386Y331267D01*
X290386Y247975D01*
X231450Y189039D01*
X114625Y189039D01*
X112839Y190825D01*
X112839Y276407D01*
X112833Y276456D01*
X112835Y276506D01*
X112813Y276613D01*
X112799Y276722D01*
X112781Y276768D01*
X112771Y276817D01*
X112722Y276916D01*
X112682Y277018D01*
X112653Y277058D01*
X112631Y277103D01*
X112560Y277186D01*
X112495Y277275D01*
X112457Y277307D01*
X112425Y277345D01*
X112335Y277408D01*
X112250Y277478D01*
X112205Y277499D01*
X112164Y277528D01*
X112062Y277567D01*
X111962Y277614D01*
X111914Y277623D01*
X111867Y277640D01*
X111758Y277653D01*
X111650Y277673D01*
X111601Y277670D01*
X111551Y277676D01*
X111442Y277660D01*
X111333Y277654D01*
X111285Y277638D01*
X111236Y277631D01*
X111084Y277579D01*
X109107Y276760D01*
X106793Y276760D01*
X104656Y277645D01*
X103020Y279281D01*
X102135Y281418D01*
X102135Y283732D01*
X103020Y285869D01*
X104530Y287378D01*
X104590Y287456D01*
X104658Y287528D01*
X104687Y287581D01*
X104724Y287629D01*
X104764Y287720D01*
X104812Y287807D01*
X104827Y287865D01*
X104851Y287921D01*
X104866Y288019D01*
X104891Y288115D01*
X104897Y288215D01*
X104901Y288235D01*
X104899Y288247D01*
X104901Y288275D01*
X104901Y309361D01*
X104889Y309460D01*
X104886Y309559D01*
X104869Y309617D01*
X104861Y309677D01*
X104825Y309769D01*
X104797Y309864D01*
X104767Y309916D01*
X104744Y309973D01*
X104686Y310053D01*
X104636Y310138D01*
X104570Y310213D01*
X104558Y310230D01*
X104548Y310238D01*
X104530Y310259D01*
X100300Y314489D01*
X100222Y314549D01*
X100150Y314617D01*
X100097Y314646D01*
X100049Y314683D01*
X99958Y314723D01*
X99871Y314771D01*
X99813Y314786D01*
X99757Y314810D01*
X99659Y314825D01*
X99563Y314850D01*
X99463Y314856D01*
X99443Y314860D01*
X99430Y314858D01*
X99402Y314860D01*
X97268Y314860D01*
X95131Y315745D01*
X93495Y317381D01*
X92610Y319518D01*
X92610Y321832D01*
X93495Y323969D01*
X95131Y325605D01*
X97268Y326490D01*
X99582Y326490D01*
X101719Y325605D01*
X103355Y323969D01*
X104240Y321832D01*
X104240Y319698D01*
X104252Y319599D01*
X104255Y319500D01*
X104272Y319442D01*
X104280Y319382D01*
X104316Y319290D01*
X104344Y319195D01*
X104374Y319143D01*
X104397Y319086D01*
X104455Y319006D01*
X104505Y318921D01*
X104571Y318846D01*
X104583Y318829D01*
X104593Y318821D01*
X104611Y318800D01*
X108841Y314570D01*
X110672Y312740D01*
X110782Y312654D01*
X110889Y312566D01*
X110907Y312557D01*
X110923Y312545D01*
X111051Y312489D01*
X111177Y312430D01*
X111196Y312426D01*
X111215Y312418D01*
X111353Y312396D01*
X111489Y312370D01*
X111509Y312372D01*
X111529Y312368D01*
X111668Y312381D01*
X111806Y312390D01*
X111826Y312396D01*
X111846Y312398D01*
X111977Y312445D01*
X112109Y312488D01*
X112126Y312499D01*
X112145Y312506D01*
X112260Y312584D01*
X112378Y312658D01*
X112392Y312673D01*
X112408Y312684D01*
X112500Y312789D01*
X112596Y312890D01*
X112605Y312908D01*
X112619Y312923D01*
X112682Y313047D01*
X112749Y313168D01*
X112754Y313188D01*
X112763Y313206D01*
X112794Y313342D01*
X112829Y313476D01*
X112830Y313504D01*
X112833Y313516D01*
X112832Y313537D01*
X112839Y313637D01*
X112839Y327207D01*
X112833Y327256D01*
X112835Y327306D01*
X112813Y327413D01*
X112799Y327522D01*
X112781Y327568D01*
X112771Y327617D01*
X112722Y327716D01*
X112682Y327818D01*
X112653Y327858D01*
X112631Y327903D01*
X112560Y327986D01*
X112495Y328075D01*
X112457Y328107D01*
X112425Y328145D01*
X112335Y328208D01*
X112250Y328278D01*
X112205Y328299D01*
X112164Y328328D01*
X112062Y328367D01*
X111962Y328414D01*
X111914Y328423D01*
X111867Y328440D01*
X111758Y328453D01*
X111650Y328473D01*
X111601Y328470D01*
X111551Y328476D01*
X111442Y328460D01*
X111333Y328454D01*
X111285Y328438D01*
X111236Y328431D01*
X111084Y328379D01*
X109107Y327560D01*
X106793Y327560D01*
X104656Y328445D01*
X103020Y330081D01*
X102135Y332218D01*
X102135Y334532D01*
X103020Y336669D01*
X104530Y338178D01*
X104590Y338256D01*
X104658Y338328D01*
X104687Y338381D01*
X104724Y338429D01*
X104764Y338520D01*
X104812Y338607D01*
X104827Y338665D01*
X104851Y338721D01*
X104866Y338819D01*
X104891Y338915D01*
X104897Y339015D01*
X104901Y339035D01*
X104899Y339047D01*
X104901Y339075D01*
X104901Y344932D01*
X104886Y345050D01*
X104879Y345169D01*
X104866Y345207D01*
X104861Y345248D01*
X104818Y345358D01*
X104781Y345471D01*
X104759Y345506D01*
X104744Y345543D01*
X104675Y345639D01*
X104611Y345740D01*
X104581Y345768D01*
X104558Y345801D01*
X104466Y345877D01*
X104379Y345958D01*
X104344Y345978D01*
X104313Y346003D01*
X104205Y346054D01*
X104101Y346112D01*
X104061Y346122D01*
X104025Y346139D01*
X103908Y346161D01*
X103793Y346191D01*
X103733Y346195D01*
X103713Y346199D01*
X103692Y346197D01*
X103632Y346201D01*
X59675Y346201D01*
X59577Y346189D01*
X59478Y346186D01*
X59420Y346169D01*
X59360Y346161D01*
X59268Y346125D01*
X59173Y346097D01*
X59120Y346067D01*
X59064Y346044D01*
X58984Y345986D01*
X58899Y345936D01*
X58823Y345870D01*
X58807Y345858D01*
X58799Y345848D01*
X58778Y345830D01*
X57269Y344320D01*
X55132Y343435D01*
X52818Y343435D01*
X50681Y344320D01*
X49045Y345956D01*
X48160Y348093D01*
X48160Y350407D01*
X49045Y352544D01*
X50681Y354180D01*
X52818Y355065D01*
X55132Y355065D01*
X57269Y354180D01*
X58778Y352670D01*
X58856Y352610D01*
X58928Y352542D01*
X58981Y352513D01*
X59029Y352476D01*
X59120Y352436D01*
X59207Y352388D01*
X59265Y352373D01*
X59321Y352349D01*
X59419Y352334D01*
X59515Y352309D01*
X59615Y352303D01*
X59635Y352299D01*
X59647Y352301D01*
X59675Y352299D01*
X109213Y352299D01*
X110672Y350840D01*
X110782Y350754D01*
X110889Y350666D01*
X110907Y350657D01*
X110923Y350645D01*
X111051Y350589D01*
X111177Y350530D01*
X111196Y350526D01*
X111215Y350518D01*
X111353Y350496D01*
X111489Y350470D01*
X111509Y350472D01*
X111529Y350468D01*
X111668Y350481D01*
X111806Y350490D01*
X111826Y350496D01*
X111846Y350498D01*
X111977Y350545D01*
X112109Y350588D01*
X112126Y350599D01*
X112145Y350606D01*
X112260Y350684D01*
X112378Y350758D01*
X112392Y350773D01*
X112408Y350784D01*
X112500Y350889D01*
X112596Y350990D01*
X112605Y351008D01*
X112619Y351023D01*
X112682Y351147D01*
X112749Y351268D01*
X112754Y351288D01*
X112763Y351306D01*
X112794Y351442D01*
X112829Y351576D01*
X112830Y351604D01*
X112833Y351616D01*
X112832Y351637D01*
X112839Y351737D01*
X112839Y358574D01*
X112826Y358672D01*
X112823Y358771D01*
X112807Y358829D01*
X112799Y358889D01*
X112762Y358982D01*
X112735Y359077D01*
X112704Y359129D01*
X112682Y359185D01*
X112624Y359265D01*
X112573Y359351D01*
X112507Y359426D01*
X112495Y359442D01*
X112486Y359450D01*
X112467Y359471D01*
X103475Y368464D01*
X103397Y368524D01*
X103325Y368592D01*
X103272Y368621D01*
X103224Y368658D01*
X103133Y368698D01*
X103046Y368746D01*
X102987Y368761D01*
X102932Y368785D01*
X102834Y368800D01*
X102738Y368825D01*
X102638Y368831D01*
X102618Y368835D01*
X102605Y368833D01*
X102577Y368835D01*
X100443Y368835D01*
X98466Y369654D01*
X98418Y369667D01*
X98373Y369689D01*
X98266Y369709D01*
X98159Y369738D01*
X98110Y369739D01*
X98061Y369748D01*
X97951Y369741D01*
X97841Y369743D01*
X97793Y369732D01*
X97744Y369729D01*
X97639Y369695D01*
X97532Y369669D01*
X97488Y369646D01*
X97441Y369631D01*
X97348Y369572D01*
X97251Y369520D01*
X97214Y369487D01*
X97172Y369460D01*
X97097Y369380D01*
X97016Y369306D01*
X96988Y369265D01*
X96954Y369229D01*
X96901Y369133D01*
X96841Y369041D01*
X96825Y368994D01*
X96801Y368950D01*
X96773Y368844D01*
X96738Y368740D01*
X96734Y368690D01*
X96721Y368642D01*
X96711Y368482D01*
X96711Y367037D01*
X94925Y365251D01*
X59675Y365251D01*
X59577Y365239D01*
X59478Y365236D01*
X59420Y365219D01*
X59360Y365211D01*
X59268Y365175D01*
X59173Y365147D01*
X59120Y365117D01*
X59064Y365094D01*
X58984Y365036D01*
X58899Y364986D01*
X58823Y364920D01*
X58807Y364908D01*
X58799Y364898D01*
X58778Y364880D01*
X57269Y363370D01*
X55132Y362485D01*
X52818Y362485D01*
X50681Y363370D01*
X49045Y365006D01*
X48160Y367143D01*
X48160Y369457D01*
X49045Y371594D01*
X50681Y373230D01*
X52818Y374115D01*
X55132Y374115D01*
X57269Y373230D01*
X58778Y371720D01*
X58856Y371660D01*
X58928Y371592D01*
X58981Y371563D01*
X59029Y371526D01*
X59120Y371486D01*
X59207Y371438D01*
X59265Y371423D01*
X59321Y371399D01*
X59419Y371384D01*
X59515Y371359D01*
X59615Y371353D01*
X59635Y371349D01*
X59647Y371351D01*
X59675Y371349D01*
X89345Y371349D01*
X89463Y371364D01*
X89581Y371371D01*
X89620Y371384D01*
X89660Y371389D01*
X89771Y371432D01*
X89884Y371469D01*
X89918Y371491D01*
X89956Y371506D01*
X90052Y371575D01*
X90153Y371639D01*
X90180Y371669D01*
X90213Y371692D01*
X90289Y371784D01*
X90371Y371871D01*
X90390Y371906D01*
X90416Y371937D01*
X90467Y372045D01*
X90524Y372149D01*
X90534Y372189D01*
X90551Y372225D01*
X90574Y372342D01*
X90604Y372457D01*
X90607Y372517D01*
X90611Y372537D01*
X90610Y372558D01*
X90614Y372618D01*
X90614Y379088D01*
X97162Y385636D01*
X121338Y385636D01*
X121476Y385654D01*
X121614Y385667D01*
X121633Y385674D01*
X121654Y385676D01*
X121783Y385727D01*
X121914Y385774D01*
X121930Y385786D01*
X121949Y385793D01*
X122061Y385875D01*
X122177Y385953D01*
X122190Y385968D01*
X122207Y385980D01*
X122295Y386087D01*
X122387Y386191D01*
X122396Y386209D01*
X122409Y386225D01*
X122469Y386351D01*
X122532Y386475D01*
X122536Y386494D01*
X122545Y386513D01*
X122571Y386649D01*
X122601Y386785D01*
X122601Y386805D01*
X122605Y386825D01*
X122596Y386963D01*
X122592Y387103D01*
X122586Y387122D01*
X122585Y387142D01*
X122542Y387275D01*
X122503Y387408D01*
X122493Y387426D01*
X122487Y387445D01*
X122413Y387562D01*
X122342Y387682D01*
X122323Y387703D01*
X122317Y387714D01*
X122302Y387728D01*
X122235Y387803D01*
X101887Y408151D01*
X101809Y408212D01*
X101737Y408280D01*
X101684Y408309D01*
X101636Y408346D01*
X101545Y408385D01*
X101459Y408433D01*
X101400Y408448D01*
X101344Y408472D01*
X101246Y408488D01*
X101151Y408513D01*
X101051Y408519D01*
X101030Y408522D01*
X101018Y408521D01*
X100990Y408523D01*
X98856Y408523D01*
X96719Y409408D01*
X95083Y411044D01*
X94198Y413181D01*
X94198Y415494D01*
X95083Y417631D01*
X96816Y419365D01*
X96889Y419459D01*
X96968Y419548D01*
X96986Y419584D01*
X97011Y419616D01*
X97059Y419725D01*
X97113Y419831D01*
X97122Y419871D01*
X97138Y419908D01*
X97156Y420026D01*
X97182Y420142D01*
X97181Y420182D01*
X97187Y420222D01*
X97176Y420341D01*
X97173Y420459D01*
X97161Y420498D01*
X97158Y420538D01*
X97117Y420651D01*
X97084Y420765D01*
X97064Y420800D01*
X97050Y420838D01*
X96983Y420936D01*
X96923Y421039D01*
X96883Y421084D01*
X96871Y421101D01*
X96856Y421114D01*
X96816Y421160D01*
X96592Y421384D01*
X90614Y427362D01*
X90614Y441770D01*
X90599Y441888D01*
X90591Y442006D01*
X90579Y442045D01*
X90574Y442085D01*
X90530Y442195D01*
X90493Y442309D01*
X90472Y442343D01*
X90457Y442381D01*
X90387Y442477D01*
X90323Y442578D01*
X90294Y442605D01*
X90270Y442638D01*
X90178Y442714D01*
X90092Y442796D01*
X90056Y442815D01*
X90025Y442841D01*
X89917Y442892D01*
X89813Y442949D01*
X89774Y442959D01*
X89737Y442976D01*
X89621Y442999D01*
X89505Y443029D01*
X89445Y443032D01*
X89425Y443036D01*
X89405Y443035D01*
X89345Y443039D01*
X59675Y443039D01*
X59577Y443026D01*
X59478Y443023D01*
X59420Y443007D01*
X59360Y442999D01*
X59268Y442963D01*
X59173Y442935D01*
X59120Y442904D01*
X59064Y442882D01*
X58984Y442824D01*
X58899Y442773D01*
X58823Y442707D01*
X58807Y442695D01*
X58799Y442686D01*
X58778Y442667D01*
X57269Y441158D01*
X55132Y440273D01*
X52818Y440273D01*
X50681Y441158D01*
X49045Y442794D01*
X48160Y444931D01*
X48160Y447244D01*
X49045Y449381D01*
X50681Y451017D01*
X52818Y451902D01*
X55132Y451902D01*
X57269Y451017D01*
X57979Y450307D01*
X58778Y449508D01*
X58856Y449447D01*
X58928Y449379D01*
X58981Y449350D01*
X59029Y449313D01*
X59120Y449274D01*
X59207Y449226D01*
X59265Y449211D01*
X59321Y449187D01*
X59419Y449171D01*
X59515Y449146D01*
X59615Y449140D01*
X59635Y449137D01*
X59647Y449138D01*
X59675Y449136D01*
X94925Y449136D01*
X96711Y447350D01*
X96711Y437968D01*
X96717Y437919D01*
X96715Y437869D01*
X96737Y437762D01*
X96751Y437653D01*
X96769Y437607D01*
X96779Y437558D01*
X96828Y437459D01*
X96868Y437357D01*
X96897Y437317D01*
X96919Y437272D01*
X96990Y437189D01*
X97055Y437100D01*
X97093Y437068D01*
X97125Y437030D01*
X97215Y436967D01*
X97300Y436897D01*
X97345Y436876D01*
X97386Y436847D01*
X97488Y436808D01*
X97588Y436761D01*
X97636Y436752D01*
X97683Y436735D01*
X97792Y436722D01*
X97900Y436702D01*
X97949Y436705D01*
X97999Y436699D01*
X98108Y436715D01*
X98217Y436721D01*
X98265Y436737D01*
X98314Y436744D01*
X98466Y436796D01*
X100443Y437615D01*
X102577Y437615D01*
X102676Y437627D01*
X102775Y437630D01*
X102833Y437647D01*
X102893Y437655D01*
X102985Y437691D01*
X103080Y437719D01*
X103132Y437749D01*
X103189Y437772D01*
X103269Y437830D01*
X103354Y437880D01*
X103429Y437946D01*
X103446Y437958D01*
X103454Y437968D01*
X103475Y437986D01*
X169617Y504129D01*
X169678Y504207D01*
X169746Y504279D01*
X169775Y504332D01*
X169812Y504380D01*
X169851Y504471D01*
X169899Y504557D01*
X169914Y504616D01*
X169938Y504672D01*
X169954Y504770D01*
X169979Y504865D01*
X169985Y504965D01*
X169988Y504986D01*
X169987Y504998D01*
X169989Y505026D01*
X169989Y568507D01*
X169983Y568556D01*
X169985Y568606D01*
X169963Y568713D01*
X169949Y568822D01*
X169931Y568868D01*
X169921Y568917D01*
X169872Y569016D01*
X169832Y569118D01*
X169803Y569158D01*
X169781Y569203D01*
X169710Y569286D01*
X169645Y569375D01*
X169607Y569407D01*
X169575Y569445D01*
X169485Y569508D01*
X169400Y569578D01*
X169355Y569599D01*
X169314Y569628D01*
X169212Y569667D01*
X169112Y569714D01*
X169064Y569723D01*
X169017Y569740D01*
X168908Y569753D01*
X168800Y569773D01*
X168751Y569770D01*
X168701Y569776D01*
X168592Y569760D01*
X168483Y569754D01*
X168435Y569738D01*
X168386Y569731D01*
X168234Y569679D01*
X166257Y568860D01*
X163943Y568860D01*
X161806Y569745D01*
X160170Y571381D01*
X159285Y573518D01*
X159285Y575832D01*
X160170Y577969D01*
X161680Y579478D01*
X161740Y579556D01*
X161808Y579628D01*
X161837Y579681D01*
X161874Y579729D01*
X161914Y579820D01*
X161962Y579907D01*
X161977Y579965D01*
X162001Y580021D01*
X162016Y580119D01*
X162041Y580215D01*
X162047Y580315D01*
X162051Y580335D01*
X162049Y580347D01*
X162051Y580375D01*
X162051Y610342D01*
X162048Y610371D01*
X162050Y610401D01*
X162028Y610529D01*
X162011Y610658D01*
X162001Y610685D01*
X161996Y610714D01*
X161942Y610833D01*
X161894Y610953D01*
X161877Y610977D01*
X161865Y611004D01*
X161784Y611106D01*
X161708Y611211D01*
X161685Y611230D01*
X161666Y611253D01*
X161563Y611331D01*
X161463Y611414D01*
X161436Y611426D01*
X161412Y611444D01*
X161268Y611515D01*
X158625Y612609D01*
X157615Y613619D01*
X157506Y613704D01*
X157399Y613793D01*
X157380Y613802D01*
X157364Y613814D01*
X157237Y613869D01*
X157111Y613928D01*
X157091Y613932D01*
X157072Y613940D01*
X156934Y613962D01*
X156798Y613988D01*
X156778Y613987D01*
X156758Y613990D01*
X156619Y613977D01*
X156481Y613968D01*
X156462Y613962D01*
X156442Y613960D01*
X156310Y613913D01*
X156179Y613870D01*
X156161Y613860D01*
X156142Y613853D01*
X156027Y613775D01*
X155910Y613700D01*
X155896Y613686D01*
X155879Y613674D01*
X155787Y613570D01*
X155692Y613469D01*
X155682Y613451D01*
X155669Y613436D01*
X155606Y613312D01*
X155538Y613190D01*
X155533Y613171D01*
X155524Y613153D01*
X155494Y613017D01*
X155459Y612882D01*
X155457Y612854D01*
X155454Y612842D01*
X155455Y612822D01*
X155449Y612722D01*
X155449Y541662D01*
X72700Y458914D01*
X59675Y458914D01*
X59577Y458901D01*
X59478Y458898D01*
X59420Y458882D01*
X59360Y458874D01*
X59330Y458862D01*
X59268Y458837D01*
X59231Y458827D01*
X59173Y458810D01*
X59120Y458779D01*
X59064Y458757D01*
X58984Y458699D01*
X58933Y458669D01*
X58899Y458648D01*
X58823Y458582D01*
X58807Y458570D01*
X58799Y458561D01*
X58778Y458542D01*
X57269Y457033D01*
X55132Y456148D01*
X52818Y456148D01*
X50681Y457033D01*
X49045Y458669D01*
X48160Y460806D01*
X48160Y463119D01*
X49045Y465256D01*
X50681Y466892D01*
X52818Y467777D01*
X55132Y467777D01*
X57269Y466892D01*
X58778Y465383D01*
X58856Y465322D01*
X58928Y465254D01*
X58981Y465225D01*
X59029Y465188D01*
X59120Y465149D01*
X59207Y465101D01*
X59265Y465086D01*
X59321Y465062D01*
X59354Y465057D01*
X59419Y465046D01*
X59515Y465021D01*
X59615Y465015D01*
X59635Y465012D01*
X59647Y465013D01*
X59675Y465011D01*
X69649Y465011D01*
X69747Y465024D01*
X69846Y465027D01*
X69904Y465043D01*
X69964Y465051D01*
X70057Y465088D01*
X70152Y465115D01*
X70204Y465146D01*
X70260Y465168D01*
X70340Y465226D01*
X70426Y465277D01*
X70501Y465343D01*
X70517Y465355D01*
X70525Y465364D01*
X70546Y465383D01*
X79616Y474453D01*
X79701Y474562D01*
X79790Y474669D01*
X79798Y474688D01*
X79811Y474704D01*
X79866Y474832D01*
X79925Y474957D01*
X79929Y474977D01*
X79937Y474996D01*
X79959Y475134D01*
X79985Y475270D01*
X79984Y475290D01*
X79987Y475310D01*
X79974Y475449D01*
X79965Y475587D01*
X79959Y475606D01*
X79957Y475626D01*
X79910Y475758D01*
X79867Y475889D01*
X79857Y475907D01*
X79850Y475926D01*
X79772Y476041D01*
X79697Y476158D01*
X79682Y476172D01*
X79671Y476189D01*
X79567Y476281D01*
X79466Y476376D01*
X79448Y476386D01*
X79433Y476399D01*
X79309Y476463D01*
X79187Y476530D01*
X79168Y476535D01*
X79149Y476544D01*
X79014Y476574D01*
X78879Y476609D01*
X78851Y476611D01*
X78839Y476614D01*
X78819Y476613D01*
X78718Y476619D01*
X74056Y476619D01*
X67749Y479232D01*
X62922Y484059D01*
X60309Y490366D01*
X60309Y497194D01*
X62922Y503501D01*
X67749Y508328D01*
X74056Y510941D01*
X80884Y510941D01*
X87191Y508328D01*
X92018Y503501D01*
X94631Y497194D01*
X94631Y492532D01*
X94647Y492401D01*
X94653Y492307D01*
X94658Y492293D01*
X94661Y492255D01*
X94668Y492236D01*
X94671Y492216D01*
X94722Y492087D01*
X94749Y492010D01*
X94751Y492005D01*
X94752Y492004D01*
X94769Y491956D01*
X94780Y491939D01*
X94788Y491920D01*
X94869Y491808D01*
X94947Y491693D01*
X94963Y491679D01*
X94974Y491663D01*
X95082Y491574D01*
X95186Y491482D01*
X95204Y491473D01*
X95219Y491460D01*
X95345Y491401D01*
X95469Y491338D01*
X95489Y491333D01*
X95507Y491325D01*
X95643Y491299D01*
X95779Y491268D01*
X95800Y491269D01*
X95819Y491265D01*
X95958Y491273D01*
X96097Y491278D01*
X96117Y491283D01*
X96137Y491285D01*
X96269Y491327D01*
X96403Y491366D01*
X96420Y491376D01*
X96439Y491383D01*
X96505Y491424D01*
X96524Y491432D01*
X96566Y491462D01*
X96677Y491528D01*
X96698Y491546D01*
X96708Y491553D01*
X96722Y491568D01*
X96774Y491613D01*
X96781Y491618D01*
X96784Y491622D01*
X96797Y491634D01*
X148980Y543816D01*
X149040Y543894D01*
X149108Y543966D01*
X149137Y544019D01*
X149174Y544067D01*
X149214Y544158D01*
X149262Y544245D01*
X149277Y544304D01*
X149301Y544359D01*
X149316Y544457D01*
X149341Y544553D01*
X149347Y544653D01*
X149351Y544673D01*
X149349Y544686D01*
X149351Y544714D01*
X149351Y561264D01*
X149346Y561303D01*
X149349Y561343D01*
X149326Y561461D01*
X149311Y561579D01*
X149297Y561617D01*
X149289Y561656D01*
X149238Y561764D01*
X149194Y561875D01*
X149171Y561907D01*
X149154Y561943D01*
X149078Y562036D01*
X149008Y562133D01*
X148977Y562158D01*
X148952Y562189D01*
X148855Y562259D01*
X148763Y562335D01*
X148727Y562352D01*
X148694Y562376D01*
X148583Y562420D01*
X148475Y562471D01*
X148436Y562478D01*
X148399Y562493D01*
X148280Y562508D01*
X148163Y562531D01*
X148123Y562528D01*
X148083Y562533D01*
X147965Y562518D01*
X147845Y562511D01*
X147807Y562499D01*
X147768Y562494D01*
X147657Y562450D01*
X147543Y562413D01*
X147509Y562392D01*
X147472Y562377D01*
X147336Y562291D01*
X145957Y561289D01*
X144283Y560436D01*
X142496Y559855D01*
X142239Y559815D01*
X142239Y570230D01*
X142224Y570348D01*
X142217Y570467D01*
X142204Y570505D01*
X142199Y570545D01*
X142156Y570656D01*
X142119Y570769D01*
X142097Y570803D01*
X142082Y570841D01*
X142012Y570937D01*
X141949Y571038D01*
X141919Y571066D01*
X141895Y571098D01*
X141804Y571174D01*
X141717Y571256D01*
X141682Y571275D01*
X141651Y571301D01*
X141543Y571352D01*
X141439Y571409D01*
X141399Y571420D01*
X141363Y571437D01*
X141246Y571459D01*
X141131Y571489D01*
X141070Y571493D01*
X141050Y571497D01*
X141030Y571495D01*
X140970Y571499D01*
X139699Y571499D01*
X139699Y571501D01*
X140970Y571501D01*
X141088Y571516D01*
X141207Y571523D01*
X141245Y571536D01*
X141285Y571541D01*
X141396Y571585D01*
X141509Y571621D01*
X141544Y571643D01*
X141581Y571658D01*
X141677Y571728D01*
X141778Y571791D01*
X141806Y571821D01*
X141839Y571845D01*
X141914Y571936D01*
X141996Y572023D01*
X142016Y572058D01*
X142041Y572090D01*
X142092Y572197D01*
X142150Y572302D01*
X142160Y572341D01*
X142177Y572377D01*
X142199Y572494D01*
X142229Y572609D01*
X142233Y572670D01*
X142237Y572690D01*
X142235Y572710D01*
X142239Y572770D01*
X142239Y583185D01*
X142496Y583145D01*
X144283Y582564D01*
X145957Y581711D01*
X147336Y580709D01*
X147371Y580690D01*
X147401Y580665D01*
X147510Y580614D01*
X147615Y580556D01*
X147653Y580546D01*
X147689Y580529D01*
X147806Y580507D01*
X147923Y580477D01*
X147963Y580477D01*
X148002Y580469D01*
X148121Y580477D01*
X148241Y580477D01*
X148279Y580487D01*
X148319Y580489D01*
X148433Y580526D01*
X148549Y580556D01*
X148584Y580575D01*
X148621Y580587D01*
X148723Y580651D01*
X148827Y580709D01*
X148856Y580736D01*
X148890Y580757D01*
X148972Y580845D01*
X149059Y580926D01*
X149081Y580960D01*
X149108Y580989D01*
X149166Y581094D01*
X149230Y581195D01*
X149242Y581233D01*
X149262Y581267D01*
X149291Y581383D01*
X149329Y581497D01*
X149331Y581537D01*
X149341Y581575D01*
X149351Y581736D01*
X149351Y635000D01*
X149336Y635118D01*
X149329Y635237D01*
X149316Y635275D01*
X149311Y635316D01*
X149268Y635426D01*
X149231Y635539D01*
X149209Y635574D01*
X149194Y635611D01*
X149125Y635707D01*
X149061Y635808D01*
X149031Y635836D01*
X149008Y635869D01*
X148916Y635945D01*
X148829Y636026D01*
X148794Y636046D01*
X148763Y636071D01*
X148655Y636122D01*
X148551Y636180D01*
X148511Y636190D01*
X148475Y636207D01*
X148358Y636229D01*
X148243Y636259D01*
X148183Y636263D01*
X148163Y636267D01*
X148142Y636265D01*
X148082Y636269D01*
X138641Y636269D01*
X138510Y636253D01*
X138378Y636242D01*
X138352Y636233D01*
X138326Y636229D01*
X138203Y636181D01*
X138077Y636137D01*
X138055Y636122D01*
X138030Y636112D01*
X137923Y636035D01*
X137812Y635961D01*
X137794Y635941D01*
X137772Y635926D01*
X137688Y635823D01*
X137599Y635725D01*
X137587Y635701D01*
X137570Y635681D01*
X137513Y635561D01*
X137452Y635444D01*
X137446Y635417D01*
X137434Y635393D01*
X137409Y635263D01*
X137379Y635134D01*
X137379Y635107D01*
X137374Y635081D01*
X137383Y634949D01*
X137385Y634816D01*
X137392Y634790D01*
X137394Y634763D01*
X137435Y634637D01*
X137470Y634510D01*
X137487Y634475D01*
X137492Y634461D01*
X137504Y634442D01*
X137542Y634365D01*
X138678Y632398D01*
X140461Y625744D01*
X140461Y618856D01*
X138678Y612202D01*
X135234Y606237D01*
X130363Y601366D01*
X124398Y597922D01*
X117744Y596139D01*
X110856Y596139D01*
X104202Y597922D01*
X98237Y601366D01*
X93366Y606237D01*
X89922Y612202D01*
X88906Y615996D01*
X88862Y616104D01*
X88830Y616201D01*
X88818Y616220D01*
X88807Y616251D01*
X88794Y616269D01*
X88786Y616290D01*
X88704Y616400D01*
X88660Y616469D01*
X88649Y616480D01*
X88626Y616513D01*
X88609Y616528D01*
X88596Y616546D01*
X88489Y616632D01*
X88462Y616656D01*
X88428Y616687D01*
X88421Y616691D01*
X88386Y616722D01*
X88366Y616732D01*
X88349Y616746D01*
X88225Y616803D01*
X88164Y616833D01*
X88150Y616841D01*
X88147Y616842D01*
X88102Y616864D01*
X88080Y616869D01*
X88060Y616878D01*
X87925Y616902D01*
X87791Y616932D01*
X87769Y616931D01*
X87747Y616935D01*
X87686Y616930D01*
X87681Y616930D01*
X87674Y616930D01*
X87653Y616928D01*
X87610Y616925D01*
X87473Y616920D01*
X87452Y616913D01*
X87430Y616912D01*
X87373Y616892D01*
X87358Y616891D01*
X87308Y616871D01*
X87300Y616868D01*
X87168Y616829D01*
X87149Y616817D01*
X87128Y616810D01*
X87085Y616783D01*
X87063Y616774D01*
X86998Y616727D01*
X86896Y616665D01*
X86872Y616645D01*
X86861Y616637D01*
X86847Y616622D01*
X86819Y616597D01*
X86805Y616587D01*
X86798Y616578D01*
X86776Y616558D01*
X73582Y603168D01*
X73525Y603095D01*
X73462Y603027D01*
X73429Y602969D01*
X73389Y602915D01*
X73352Y602830D01*
X73307Y602749D01*
X73290Y602684D01*
X73264Y602623D01*
X73251Y602531D01*
X73227Y602441D01*
X73219Y602325D01*
X73217Y602308D01*
X73218Y602300D01*
X73216Y602281D01*
X73028Y532913D01*
X73028Y532911D01*
X73028Y532907D01*
X73032Y530634D01*
X72157Y528537D01*
X72156Y528535D01*
X72154Y528531D01*
X71289Y526432D01*
X69679Y524831D01*
X69678Y524829D01*
X69675Y524827D01*
X68071Y523216D01*
X65971Y522353D01*
X65969Y522352D01*
X65965Y522351D01*
X63867Y521477D01*
X61597Y521484D01*
X61596Y521483D01*
X61592Y521484D01*
X61583Y521483D01*
X58874Y521479D01*
X4684Y521383D01*
X4588Y521371D01*
X4491Y521368D01*
X4430Y521351D01*
X4368Y521343D01*
X4278Y521307D01*
X4185Y521280D01*
X4131Y521248D01*
X4073Y521225D01*
X3994Y521168D01*
X3911Y521119D01*
X3831Y521049D01*
X3816Y521038D01*
X3809Y521029D01*
X3790Y521013D01*
X-766Y516474D01*
X-827Y516395D01*
X-896Y516322D01*
X-925Y516270D01*
X-961Y516223D01*
X-1001Y516131D01*
X-1050Y516043D01*
X-1064Y515986D01*
X-1088Y515931D01*
X-1104Y515832D01*
X-1129Y515735D01*
X-1135Y515638D01*
X-1139Y515617D01*
X-1137Y515605D01*
X-1139Y515575D01*
X-1140Y500228D01*
X-1123Y500091D01*
X-1110Y499952D01*
X-1103Y499933D01*
X-1101Y499913D01*
X-1049Y499783D01*
X-1002Y499653D01*
X-991Y499636D01*
X-984Y499617D01*
X-902Y499504D01*
X-824Y499390D01*
X-809Y499376D01*
X-797Y499360D01*
X-690Y499271D01*
X-585Y499179D01*
X-567Y499170D01*
X-552Y499157D01*
X-426Y499098D01*
X-302Y499034D01*
X-282Y499030D01*
X-264Y499021D01*
X-127Y498995D01*
X8Y498965D01*
X28Y498965D01*
X48Y498962D01*
X187Y498970D01*
X326Y498974D01*
X346Y498980D01*
X366Y498981D01*
X498Y499024D01*
X632Y499063D01*
X649Y499073D01*
X668Y499079D01*
X786Y499154D01*
X906Y499224D01*
X927Y499243D01*
X937Y499249D01*
X951Y499264D01*
X1026Y499331D01*
X2586Y500890D01*
X5755Y502203D01*
X9185Y502203D01*
X12354Y500890D01*
X14780Y498464D01*
X16093Y495295D01*
X16093Y491865D01*
X14780Y488696D01*
X12354Y486270D01*
X9185Y484957D01*
X5755Y484957D01*
X2586Y486270D01*
X1025Y487830D01*
X915Y487916D01*
X809Y488004D01*
X790Y488013D01*
X774Y488025D01*
X646Y488080D01*
X521Y488140D01*
X501Y488143D01*
X482Y488151D01*
X345Y488173D01*
X209Y488199D01*
X188Y488198D01*
X168Y488201D01*
X30Y488188D01*
X-109Y488180D01*
X-128Y488173D01*
X-148Y488172D01*
X-279Y488124D01*
X-411Y488082D01*
X-429Y488071D01*
X-448Y488064D01*
X-563Y487986D01*
X-680Y487912D01*
X-694Y487897D01*
X-711Y487885D01*
X-803Y487781D01*
X-898Y487680D01*
X-908Y487662D01*
X-921Y487647D01*
X-985Y487523D01*
X-1052Y487401D01*
X-1057Y487382D01*
X-1066Y487364D01*
X-1096Y487228D01*
X-1131Y487093D01*
X-1133Y487065D01*
X-1136Y487053D01*
X-1135Y487033D01*
X-1141Y486933D01*
X-1154Y310614D01*
X-1137Y310477D01*
X-1124Y310338D01*
X-1117Y310319D01*
X-1114Y310299D01*
X-1063Y310170D01*
X-1016Y310039D01*
X-1005Y310022D01*
X-997Y310003D01*
X-915Y309890D01*
X-838Y309776D01*
X-822Y309762D01*
X-811Y309746D01*
X-703Y309657D01*
X-599Y309565D01*
X-581Y309556D01*
X-566Y309543D01*
X-440Y309484D01*
X-316Y309421D01*
X-296Y309416D01*
X-278Y309407D01*
X-141Y309381D01*
X-6Y309351D01*
X15Y309352D01*
X34Y309348D01*
X173Y309356D01*
X312Y309361D01*
X332Y309366D01*
X352Y309367D01*
X484Y309410D01*
X618Y309449D01*
X635Y309459D01*
X654Y309465D01*
X772Y309540D01*
X892Y309611D01*
X913Y309629D01*
X923Y309636D01*
X937Y309651D01*
X1013Y309717D01*
X2586Y311290D01*
X5755Y312603D01*
X9185Y312603D01*
X12354Y311290D01*
X14780Y308864D01*
X16093Y305695D01*
X16093Y302265D01*
X14780Y299096D01*
X12354Y296670D01*
X9185Y295357D01*
X5755Y295357D01*
X2586Y296670D01*
X1012Y298244D01*
X901Y298329D01*
X795Y298418D01*
X776Y298427D01*
X760Y298439D01*
X632Y298494D01*
X507Y298553D01*
X487Y298557D01*
X468Y298565D01*
X331Y298587D01*
X195Y298613D01*
X174Y298612D01*
X154Y298615D01*
X16Y298602D01*
X-123Y298594D01*
X-142Y298587D01*
X-162Y298585D01*
X-293Y298538D01*
X-425Y298496D01*
X-442Y298485D01*
X-462Y298478D01*
X-576Y298400D01*
X-694Y298325D01*
X-708Y298311D01*
X-725Y298299D01*
X-817Y298195D01*
X-912Y298094D01*
X-922Y298076D01*
X-935Y298061D01*
X-999Y297937D01*
X-1065Y297815D01*
X-1071Y297796D01*
X-1080Y297778D01*
X-1110Y297642D01*
X-1145Y297507D01*
X-1147Y297479D01*
X-1149Y297467D01*
X-1149Y297447D01*
X-1155Y297347D01*
X-1156Y283636D01*
X-1154Y283620D01*
X-1156Y283604D01*
X-1134Y283461D01*
X-1116Y283320D01*
X-1110Y283305D01*
X-1108Y283289D01*
X-1052Y283158D01*
X-999Y283025D01*
X-990Y283011D01*
X-983Y282997D01*
X-894Y282863D01*
X1281Y280031D01*
X1297Y280015D01*
X1309Y279996D01*
X1409Y279902D01*
X1505Y279805D01*
X1524Y279793D01*
X1541Y279778D01*
X1660Y279712D01*
X1778Y279641D01*
X1800Y279635D01*
X1819Y279624D01*
X1952Y279590D01*
X2083Y279551D01*
X2105Y279550D01*
X2127Y279545D01*
X2288Y279534D01*
X60568Y279515D01*
X60570Y279515D01*
X60595Y279518D01*
X60721Y279534D01*
X60869Y279552D01*
X63071Y279514D01*
X63078Y279515D01*
X63093Y279514D01*
X65325Y279513D01*
X65419Y279488D01*
X67438Y278610D01*
X67445Y278608D01*
X67458Y278602D01*
X69521Y277746D01*
X69598Y277687D01*
X71127Y276103D01*
X71133Y276099D01*
X71143Y276088D01*
X72721Y274508D01*
X72776Y274412D01*
X72777Y274410D01*
X72777Y274409D01*
X72779Y274407D01*
X72880Y274289D01*
X95720Y250647D01*
X95729Y250640D01*
X95747Y250621D01*
X97259Y249145D01*
X97293Y249088D01*
X97367Y248958D01*
X97375Y248948D01*
X97378Y248943D01*
X97388Y248933D01*
X97427Y248887D01*
X98196Y246936D01*
X98201Y246926D01*
X98210Y246902D01*
X99043Y244959D01*
X99052Y244895D01*
X99058Y244844D01*
X99060Y244803D01*
X99064Y244791D01*
X99070Y244746D01*
X99074Y244733D01*
X99075Y244727D01*
X99080Y244715D01*
X99098Y244658D01*
X99062Y242561D01*
X99064Y242549D01*
X99062Y242523D01*
X100266Y145010D01*
X100279Y144919D01*
X100281Y144828D01*
X100300Y144762D01*
X100310Y144695D01*
X100344Y144610D01*
X100370Y144523D01*
X100405Y144464D01*
X100430Y144400D01*
X100485Y144327D01*
X100531Y144249D01*
X100611Y144158D01*
X100620Y144145D01*
X100627Y144140D01*
X100638Y144128D01*
X101503Y143262D01*
X101543Y143232D01*
X101576Y143195D01*
X101668Y143134D01*
X101755Y143067D01*
X101800Y143047D01*
X101842Y143020D01*
X101946Y142984D01*
X102047Y142941D01*
X102096Y142933D01*
X102143Y142917D01*
X102252Y142908D01*
X102361Y142891D01*
X102410Y142896D01*
X102460Y142892D01*
X102568Y142911D01*
X102677Y142921D01*
X102724Y142938D01*
X102773Y142946D01*
X102873Y142991D01*
X102977Y143028D01*
X103018Y143056D01*
X103063Y143077D01*
X103149Y143145D01*
X103240Y143207D01*
X103273Y143244D01*
X103311Y143275D01*
X103377Y143363D01*
X103450Y143445D01*
X103473Y143490D01*
X103503Y143529D01*
X103574Y143674D01*
X104609Y146175D01*
X107825Y149391D01*
X112026Y151131D01*
X116574Y151131D01*
X120775Y149391D01*
X123991Y146175D01*
X125731Y141974D01*
X125731Y137426D01*
X123991Y133225D01*
X120775Y130009D01*
X118274Y128974D01*
X118231Y128949D01*
X118184Y128932D01*
X118093Y128870D01*
X117998Y128816D01*
X117962Y128781D01*
X117921Y128754D01*
X117848Y128671D01*
X117769Y128595D01*
X117743Y128552D01*
X117710Y128515D01*
X117660Y128417D01*
X117603Y128324D01*
X117588Y128276D01*
X117566Y128232D01*
X117542Y128125D01*
X117509Y128020D01*
X117507Y127970D01*
X117496Y127922D01*
X117499Y127812D01*
X117494Y127702D01*
X117504Y127653D01*
X117506Y127604D01*
X117536Y127498D01*
X117559Y127391D01*
X117580Y127346D01*
X117594Y127298D01*
X117650Y127204D01*
X117698Y127105D01*
X117730Y127067D01*
X117756Y127024D01*
X117862Y126903D01*
X118663Y126102D01*
X118741Y126042D01*
X118813Y125974D01*
X118866Y125945D01*
X118914Y125908D01*
X119005Y125868D01*
X119092Y125820D01*
X119150Y125805D01*
X119206Y125781D01*
X119304Y125766D01*
X119400Y125741D01*
X119500Y125735D01*
X119520Y125731D01*
X119533Y125733D01*
X119561Y125731D01*
X153459Y125731D01*
X153590Y125747D01*
X153722Y125758D01*
X153748Y125767D01*
X153774Y125771D01*
X153897Y125819D01*
X154023Y125863D01*
X154045Y125878D01*
X154070Y125888D01*
X154177Y125965D01*
X154288Y126039D01*
X154306Y126059D01*
X154328Y126074D01*
X154412Y126177D01*
X154501Y126275D01*
X154513Y126299D01*
X154530Y126319D01*
X154587Y126439D01*
X154648Y126556D01*
X154654Y126583D01*
X154666Y126607D01*
X154691Y126737D01*
X154721Y126866D01*
X154721Y126893D01*
X154726Y126919D01*
X154717Y127051D01*
X154715Y127184D01*
X154708Y127210D01*
X154706Y127237D01*
X154665Y127363D01*
X154630Y127490D01*
X154613Y127525D01*
X154608Y127539D01*
X154596Y127558D01*
X154558Y127635D01*
X153422Y129602D01*
X152217Y134100D01*
X152193Y134159D01*
X152178Y134220D01*
X152133Y134305D01*
X152097Y134395D01*
X152059Y134445D01*
X152030Y134501D01*
X151965Y134573D01*
X151907Y134650D01*
X151858Y134690D01*
X151816Y134737D01*
X151735Y134790D01*
X151660Y134850D01*
X151603Y134877D01*
X151550Y134911D01*
X151459Y134943D01*
X151371Y134983D01*
X151309Y134994D01*
X151249Y135015D01*
X151153Y135022D01*
X151058Y135039D01*
X150995Y135035D01*
X150932Y135040D01*
X150837Y135023D01*
X150741Y135016D01*
X150681Y134996D01*
X150619Y134985D01*
X150531Y134946D01*
X150439Y134915D01*
X150386Y134881D01*
X150329Y134855D01*
X150253Y134794D01*
X150172Y134742D01*
X150130Y134696D01*
X150080Y134656D01*
X150022Y134579D01*
X149957Y134508D01*
X149927Y134452D01*
X149889Y134402D01*
X149818Y134258D01*
X149391Y133225D01*
X146175Y130009D01*
X141974Y128269D01*
X137426Y128269D01*
X133225Y130009D01*
X130009Y133225D01*
X128269Y137426D01*
X128269Y141974D01*
X130009Y146175D01*
X133225Y149391D01*
X137426Y151131D01*
X141974Y151131D01*
X146175Y149391D01*
X149391Y146175D01*
X149818Y145142D01*
X149849Y145088D01*
X149872Y145029D01*
X149928Y144950D01*
X149976Y144866D01*
X150020Y144821D01*
X150056Y144769D01*
X150130Y144707D01*
X150197Y144638D01*
X150251Y144605D01*
X150299Y144564D01*
X150386Y144522D01*
X150468Y144472D01*
X150528Y144453D01*
X150585Y144425D01*
X150680Y144406D01*
X150772Y144378D01*
X150835Y144375D01*
X150897Y144362D01*
X150993Y144367D01*
X151090Y144363D01*
X151152Y144376D01*
X151215Y144379D01*
G37*
G36*
X312345Y339876D02*
X312345Y339876D01*
X312434Y339888D01*
X312523Y339891D01*
X312590Y339910D01*
X312660Y339920D01*
X312812Y339972D01*
X314756Y340777D01*
X317069Y340777D01*
X319206Y339892D01*
X320842Y338256D01*
X321727Y336119D01*
X321727Y333806D01*
X320842Y331669D01*
X319206Y330033D01*
X317069Y329148D01*
X314935Y329148D01*
X314837Y329135D01*
X314738Y329132D01*
X314680Y329116D01*
X314620Y329108D01*
X314527Y329071D01*
X314432Y329044D01*
X314380Y329013D01*
X314324Y328991D01*
X314244Y328933D01*
X314158Y328882D01*
X314083Y328816D01*
X314067Y328804D01*
X314059Y328795D01*
X314038Y328776D01*
X303458Y318196D01*
X303397Y318118D01*
X303329Y318046D01*
X303300Y317993D01*
X303263Y317945D01*
X303224Y317854D01*
X303176Y317768D01*
X303161Y317709D01*
X303137Y317653D01*
X303121Y317555D01*
X303096Y317460D01*
X303090Y317360D01*
X303087Y317339D01*
X303088Y317327D01*
X303086Y317299D01*
X303086Y314374D01*
X303104Y314236D01*
X303117Y314097D01*
X303124Y314078D01*
X303126Y314058D01*
X303177Y313929D01*
X303224Y313798D01*
X303236Y313781D01*
X303243Y313763D01*
X303325Y313650D01*
X303403Y313535D01*
X303418Y313522D01*
X303430Y313505D01*
X303537Y313416D01*
X303641Y313324D01*
X303659Y313315D01*
X303675Y313302D01*
X303801Y313243D01*
X303925Y313180D01*
X303944Y313175D01*
X303963Y313167D01*
X304099Y313141D01*
X304235Y313110D01*
X304255Y313111D01*
X304275Y313107D01*
X304413Y313116D01*
X304553Y313120D01*
X304572Y313126D01*
X304592Y313127D01*
X304724Y313170D01*
X304858Y313208D01*
X304876Y313219D01*
X304895Y313225D01*
X305013Y313299D01*
X305132Y313370D01*
X305153Y313388D01*
X305164Y313395D01*
X305178Y313410D01*
X305253Y313476D01*
X306269Y314492D01*
X308406Y315377D01*
X310540Y315377D01*
X310638Y315390D01*
X310737Y315393D01*
X310795Y315409D01*
X310855Y315417D01*
X310948Y315454D01*
X311043Y315481D01*
X311095Y315512D01*
X311151Y315534D01*
X311231Y315592D01*
X311317Y315643D01*
X311392Y315709D01*
X311408Y315721D01*
X311416Y315730D01*
X311437Y315749D01*
X509342Y513654D01*
X509403Y513732D01*
X509471Y513804D01*
X509500Y513857D01*
X509537Y513905D01*
X509576Y513996D01*
X509624Y514082D01*
X509639Y514141D01*
X509663Y514197D01*
X509679Y514295D01*
X509704Y514390D01*
X509710Y514490D01*
X509713Y514511D01*
X509712Y514523D01*
X509714Y514551D01*
X509714Y520882D01*
X509708Y520931D01*
X509710Y520981D01*
X509688Y521088D01*
X509674Y521197D01*
X509656Y521243D01*
X509646Y521292D01*
X509597Y521391D01*
X509557Y521493D01*
X509528Y521533D01*
X509506Y521578D01*
X509435Y521661D01*
X509370Y521750D01*
X509332Y521782D01*
X509300Y521820D01*
X509210Y521883D01*
X509125Y521953D01*
X509080Y521974D01*
X509039Y522003D01*
X508937Y522042D01*
X508837Y522089D01*
X508789Y522098D01*
X508742Y522115D01*
X508633Y522128D01*
X508525Y522148D01*
X508476Y522145D01*
X508426Y522151D01*
X508317Y522135D01*
X508208Y522129D01*
X508160Y522113D01*
X508111Y522106D01*
X507959Y522054D01*
X505982Y521235D01*
X503668Y521235D01*
X501531Y522120D01*
X499895Y523756D01*
X499010Y525893D01*
X499010Y528027D01*
X498998Y528126D01*
X498995Y528225D01*
X498978Y528283D01*
X498970Y528343D01*
X498934Y528435D01*
X498906Y528530D01*
X498876Y528582D01*
X498853Y528639D01*
X498795Y528719D01*
X498745Y528804D01*
X498679Y528879D01*
X498667Y528896D01*
X498657Y528904D01*
X498639Y528925D01*
X492251Y535312D01*
X492251Y576444D01*
X492245Y576493D01*
X492247Y576543D01*
X492225Y576650D01*
X492211Y576760D01*
X492193Y576806D01*
X492183Y576854D01*
X492135Y576953D01*
X492094Y577055D01*
X492065Y577095D01*
X492043Y577140D01*
X491972Y577224D01*
X491908Y577313D01*
X491869Y577344D01*
X491837Y577382D01*
X491747Y577445D01*
X491663Y577515D01*
X491618Y577537D01*
X491577Y577565D01*
X491474Y577604D01*
X491375Y577651D01*
X491326Y577660D01*
X491280Y577678D01*
X491170Y577690D01*
X491063Y577711D01*
X491013Y577708D01*
X490964Y577713D01*
X490855Y577698D01*
X490745Y577691D01*
X490698Y577676D01*
X490649Y577669D01*
X490496Y577617D01*
X488519Y576798D01*
X486385Y576798D01*
X486287Y576785D01*
X486188Y576782D01*
X486130Y576766D01*
X486070Y576758D01*
X485977Y576721D01*
X485882Y576694D01*
X485830Y576663D01*
X485774Y576641D01*
X485694Y576583D01*
X485608Y576532D01*
X485533Y576466D01*
X485516Y576454D01*
X485509Y576445D01*
X485488Y576426D01*
X378070Y469009D01*
X378010Y468931D01*
X377942Y468859D01*
X377913Y468806D01*
X377876Y468758D01*
X377836Y468667D01*
X377788Y468580D01*
X377773Y468521D01*
X377749Y468466D01*
X377734Y468368D01*
X377709Y468272D01*
X377703Y468172D01*
X377699Y468152D01*
X377701Y468139D01*
X377699Y468111D01*
X377699Y397200D01*
X344324Y363825D01*
X344263Y363747D01*
X344195Y363675D01*
X344166Y363622D01*
X344129Y363574D01*
X344090Y363483D01*
X344042Y363396D01*
X344027Y363338D01*
X344003Y363282D01*
X343987Y363184D01*
X343962Y363088D01*
X343956Y362988D01*
X343953Y362968D01*
X343954Y362955D01*
X343952Y362927D01*
X343952Y360793D01*
X343067Y358656D01*
X341431Y357020D01*
X339294Y356135D01*
X336981Y356135D01*
X334844Y357020D01*
X333208Y358656D01*
X332422Y360554D01*
X332397Y360597D01*
X332381Y360644D01*
X332319Y360734D01*
X332265Y360830D01*
X332230Y360866D01*
X332202Y360907D01*
X332120Y360979D01*
X332043Y361058D01*
X332001Y361084D01*
X331964Y361117D01*
X331866Y361167D01*
X331772Y361225D01*
X331725Y361239D01*
X331680Y361262D01*
X331573Y361286D01*
X331468Y361318D01*
X331419Y361321D01*
X331370Y361331D01*
X331260Y361328D01*
X331151Y361333D01*
X331102Y361323D01*
X331052Y361322D01*
X330947Y361291D01*
X330839Y361269D01*
X330794Y361247D01*
X330747Y361233D01*
X330652Y361178D01*
X330553Y361129D01*
X330516Y361097D01*
X330473Y361072D01*
X330352Y360965D01*
X311429Y342042D01*
X311386Y341987D01*
X311336Y341938D01*
X311289Y341862D01*
X311234Y341791D01*
X311206Y341727D01*
X311170Y341667D01*
X311143Y341582D01*
X311107Y341499D01*
X311096Y341430D01*
X311076Y341363D01*
X311072Y341274D01*
X311058Y341185D01*
X311064Y341115D01*
X311061Y341046D01*
X311079Y340958D01*
X311087Y340868D01*
X311111Y340802D01*
X311125Y340734D01*
X311165Y340654D01*
X311195Y340569D01*
X311234Y340511D01*
X311265Y340449D01*
X311323Y340380D01*
X311374Y340306D01*
X311426Y340260D01*
X311471Y340207D01*
X311545Y340155D01*
X311612Y340095D01*
X311674Y340064D01*
X311731Y340023D01*
X311815Y339992D01*
X311895Y339951D01*
X311963Y339936D01*
X312029Y339911D01*
X312118Y339901D01*
X312206Y339881D01*
X312275Y339883D01*
X312345Y339876D01*
G37*
G36*
X454078Y130049D02*
X454078Y130049D01*
X460322Y130049D01*
X460460Y130066D01*
X460598Y130079D01*
X460617Y130086D01*
X460637Y130089D01*
X460766Y130140D01*
X460897Y130187D01*
X460914Y130198D01*
X460933Y130206D01*
X461045Y130287D01*
X461160Y130365D01*
X461174Y130381D01*
X461190Y130392D01*
X461279Y130500D01*
X461371Y130604D01*
X461380Y130622D01*
X461393Y130637D01*
X461452Y130763D01*
X461515Y130887D01*
X461520Y130907D01*
X461528Y130925D01*
X461555Y131062D01*
X461585Y131197D01*
X461584Y131218D01*
X461588Y131237D01*
X461580Y131376D01*
X461575Y131515D01*
X461570Y131535D01*
X461568Y131555D01*
X461526Y131687D01*
X461487Y131821D01*
X461477Y131838D01*
X461470Y131857D01*
X461396Y131975D01*
X461325Y132095D01*
X461307Y132116D01*
X461300Y132126D01*
X461285Y132140D01*
X461219Y132215D01*
X460209Y133225D01*
X458469Y137426D01*
X458469Y141974D01*
X460209Y146175D01*
X463425Y149391D01*
X466068Y150485D01*
X466093Y150500D01*
X466121Y150509D01*
X466231Y150578D01*
X466344Y150643D01*
X466365Y150663D01*
X466390Y150679D01*
X466479Y150774D01*
X466572Y150864D01*
X466588Y150889D01*
X466608Y150911D01*
X466671Y151024D01*
X466739Y151135D01*
X466747Y151163D01*
X466762Y151189D01*
X466794Y151315D01*
X466832Y151439D01*
X466834Y151469D01*
X466841Y151497D01*
X466851Y151658D01*
X466851Y176657D01*
X466836Y176775D01*
X466829Y176894D01*
X466816Y176932D01*
X466811Y176973D01*
X466768Y177083D01*
X466731Y177196D01*
X466709Y177231D01*
X466694Y177268D01*
X466625Y177364D01*
X466561Y177465D01*
X466531Y177493D01*
X466508Y177526D01*
X466416Y177602D01*
X466329Y177683D01*
X466294Y177703D01*
X466263Y177728D01*
X466155Y177779D01*
X466051Y177837D01*
X466011Y177847D01*
X465975Y177864D01*
X465858Y177886D01*
X465743Y177916D01*
X465683Y177920D01*
X465663Y177924D01*
X465642Y177922D01*
X465582Y177926D01*
X391463Y177926D01*
X391365Y177914D01*
X391266Y177911D01*
X391207Y177894D01*
X391147Y177886D01*
X391055Y177850D01*
X390960Y177822D01*
X390908Y177792D01*
X390852Y177769D01*
X390772Y177711D01*
X390686Y177661D01*
X390611Y177595D01*
X390594Y177583D01*
X390586Y177573D01*
X390565Y177555D01*
X389056Y176045D01*
X386919Y175160D01*
X384606Y175160D01*
X382469Y176045D01*
X380833Y177681D01*
X379948Y179818D01*
X379948Y182132D01*
X380833Y184269D01*
X382469Y185905D01*
X384606Y186790D01*
X386919Y186790D01*
X389056Y185905D01*
X390565Y184395D01*
X390644Y184335D01*
X390716Y184267D01*
X390769Y184238D01*
X390817Y184201D01*
X390908Y184161D01*
X390994Y184113D01*
X391053Y184098D01*
X391108Y184074D01*
X391206Y184059D01*
X391302Y184034D01*
X391402Y184028D01*
X391423Y184024D01*
X391435Y184026D01*
X391463Y184024D01*
X471163Y184024D01*
X472949Y182238D01*
X472949Y151658D01*
X472952Y151629D01*
X472950Y151599D01*
X472972Y151471D01*
X472989Y151342D01*
X472999Y151315D01*
X473004Y151286D01*
X473058Y151167D01*
X473106Y151047D01*
X473123Y151023D01*
X473135Y150996D01*
X473216Y150894D01*
X473292Y150789D01*
X473315Y150770D01*
X473334Y150747D01*
X473437Y150669D01*
X473537Y150586D01*
X473564Y150574D01*
X473588Y150556D01*
X473732Y150485D01*
X476375Y149391D01*
X479591Y146175D01*
X481331Y141974D01*
X481331Y137426D01*
X479591Y133225D01*
X478581Y132215D01*
X478496Y132106D01*
X478407Y131999D01*
X478398Y131980D01*
X478386Y131964D01*
X478331Y131837D01*
X478272Y131711D01*
X478268Y131691D01*
X478260Y131672D01*
X478238Y131534D01*
X478212Y131398D01*
X478213Y131378D01*
X478210Y131358D01*
X478223Y131219D01*
X478232Y131081D01*
X478238Y131062D01*
X478240Y131042D01*
X478287Y130910D01*
X478330Y130779D01*
X478340Y130761D01*
X478347Y130742D01*
X478425Y130627D01*
X478500Y130510D01*
X478514Y130496D01*
X478526Y130479D01*
X478630Y130387D01*
X478731Y130292D01*
X478749Y130282D01*
X478764Y130269D01*
X478888Y130206D01*
X479010Y130138D01*
X479029Y130133D01*
X479047Y130124D01*
X479183Y130094D01*
X479318Y130059D01*
X479346Y130057D01*
X479358Y130054D01*
X479378Y130055D01*
X479478Y130049D01*
X485722Y130049D01*
X485860Y130066D01*
X485998Y130079D01*
X486017Y130086D01*
X486037Y130089D01*
X486166Y130140D01*
X486297Y130187D01*
X486314Y130198D01*
X486333Y130206D01*
X486445Y130287D01*
X486560Y130365D01*
X486574Y130381D01*
X486590Y130392D01*
X486679Y130500D01*
X486771Y130604D01*
X486780Y130622D01*
X486793Y130637D01*
X486852Y130763D01*
X486915Y130887D01*
X486920Y130907D01*
X486928Y130925D01*
X486955Y131062D01*
X486985Y131197D01*
X486984Y131218D01*
X486988Y131237D01*
X486980Y131376D01*
X486975Y131515D01*
X486970Y131535D01*
X486968Y131555D01*
X486926Y131687D01*
X486887Y131821D01*
X486877Y131838D01*
X486870Y131857D01*
X486796Y131975D01*
X486725Y132095D01*
X486707Y132116D01*
X486700Y132126D01*
X486685Y132140D01*
X486619Y132215D01*
X485609Y133225D01*
X483869Y137426D01*
X483869Y141974D01*
X485609Y146175D01*
X488825Y149391D01*
X491468Y150485D01*
X491493Y150500D01*
X491521Y150509D01*
X491631Y150578D01*
X491744Y150643D01*
X491765Y150663D01*
X491790Y150679D01*
X491879Y150774D01*
X491972Y150864D01*
X491988Y150889D01*
X492008Y150911D01*
X492071Y151024D01*
X492139Y151135D01*
X492147Y151163D01*
X492162Y151189D01*
X492194Y151315D01*
X492232Y151439D01*
X492234Y151469D01*
X492241Y151497D01*
X492251Y151658D01*
X492251Y199087D01*
X492239Y199185D01*
X492236Y199284D01*
X492219Y199343D01*
X492211Y199403D01*
X492175Y199495D01*
X492147Y199590D01*
X492117Y199642D01*
X492094Y199698D01*
X492036Y199779D01*
X491986Y199864D01*
X491920Y199939D01*
X491908Y199956D01*
X491898Y199964D01*
X491880Y199985D01*
X490370Y201494D01*
X489485Y203631D01*
X489485Y205944D01*
X490304Y207921D01*
X490317Y207969D01*
X490339Y208014D01*
X490359Y208122D01*
X490388Y208228D01*
X490389Y208278D01*
X490398Y208327D01*
X490391Y208436D01*
X490393Y208546D01*
X490382Y208594D01*
X490379Y208644D01*
X490345Y208748D01*
X490319Y208855D01*
X490296Y208899D01*
X490281Y208946D01*
X490222Y209039D01*
X490170Y209136D01*
X490137Y209173D01*
X490110Y209215D01*
X490030Y209290D01*
X489956Y209372D01*
X489915Y209399D01*
X489879Y209433D01*
X489783Y209486D01*
X489691Y209546D01*
X489644Y209563D01*
X489600Y209587D01*
X489494Y209614D01*
X489390Y209650D01*
X489340Y209654D01*
X489292Y209666D01*
X489132Y209676D01*
X368118Y209676D01*
X368069Y209670D01*
X368019Y209672D01*
X367912Y209650D01*
X367803Y209636D01*
X367757Y209618D01*
X367708Y209608D01*
X367609Y209560D01*
X367507Y209519D01*
X367467Y209490D01*
X367422Y209468D01*
X367339Y209397D01*
X367250Y209333D01*
X367218Y209294D01*
X367180Y209262D01*
X367117Y209172D01*
X367047Y209088D01*
X367026Y209043D01*
X366997Y209002D01*
X366958Y208899D01*
X366911Y208800D01*
X366902Y208751D01*
X366885Y208705D01*
X366872Y208595D01*
X366852Y208488D01*
X366855Y208438D01*
X366849Y208389D01*
X366865Y208280D01*
X366871Y208170D01*
X366887Y208123D01*
X366894Y208074D01*
X366946Y207921D01*
X367765Y205944D01*
X367765Y203631D01*
X366880Y201494D01*
X365244Y199858D01*
X363107Y198973D01*
X360793Y198973D01*
X358656Y199858D01*
X356923Y201591D01*
X356829Y201664D01*
X356740Y201743D01*
X356704Y201761D01*
X356672Y201786D01*
X356562Y201834D01*
X356456Y201888D01*
X356417Y201897D01*
X356380Y201913D01*
X356262Y201931D01*
X356146Y201957D01*
X356106Y201956D01*
X356066Y201962D01*
X355947Y201951D01*
X355828Y201948D01*
X355789Y201936D01*
X355749Y201933D01*
X355637Y201892D01*
X355523Y201859D01*
X355488Y201839D01*
X355450Y201825D01*
X355351Y201758D01*
X355249Y201698D01*
X355203Y201658D01*
X355187Y201646D01*
X355173Y201631D01*
X355128Y201591D01*
X305045Y151509D01*
X302888Y149351D01*
X301678Y149351D01*
X301540Y149334D01*
X301402Y149321D01*
X301383Y149314D01*
X301363Y149311D01*
X301234Y149260D01*
X301103Y149213D01*
X301086Y149202D01*
X301067Y149194D01*
X300955Y149113D01*
X300840Y149035D01*
X300826Y149019D01*
X300810Y149008D01*
X300721Y148900D01*
X300629Y148796D01*
X300620Y148778D01*
X300607Y148763D01*
X300548Y148637D01*
X300485Y148513D01*
X300480Y148493D01*
X300472Y148475D01*
X300445Y148338D01*
X300415Y148203D01*
X300416Y148182D01*
X300412Y148163D01*
X300420Y148024D01*
X300425Y147885D01*
X300430Y147865D01*
X300432Y147845D01*
X300474Y147713D01*
X300513Y147579D01*
X300523Y147562D01*
X300530Y147543D01*
X300604Y147425D01*
X300675Y147305D01*
X300693Y147284D01*
X300700Y147274D01*
X300715Y147260D01*
X300781Y147185D01*
X301791Y146175D01*
X303531Y141974D01*
X303531Y137426D01*
X301791Y133225D01*
X300781Y132215D01*
X300696Y132106D01*
X300607Y131999D01*
X300598Y131980D01*
X300586Y131964D01*
X300531Y131837D01*
X300472Y131711D01*
X300468Y131691D01*
X300460Y131672D01*
X300438Y131534D01*
X300412Y131398D01*
X300413Y131378D01*
X300410Y131358D01*
X300423Y131219D01*
X300432Y131081D01*
X300438Y131062D01*
X300440Y131042D01*
X300487Y130910D01*
X300530Y130779D01*
X300540Y130761D01*
X300547Y130742D01*
X300625Y130627D01*
X300700Y130510D01*
X300714Y130496D01*
X300726Y130479D01*
X300830Y130387D01*
X300931Y130292D01*
X300949Y130282D01*
X300964Y130269D01*
X301088Y130206D01*
X301210Y130138D01*
X301229Y130133D01*
X301247Y130124D01*
X301383Y130094D01*
X301518Y130059D01*
X301546Y130057D01*
X301558Y130054D01*
X301578Y130055D01*
X301678Y130049D01*
X307922Y130049D01*
X308060Y130066D01*
X308198Y130079D01*
X308217Y130086D01*
X308237Y130089D01*
X308366Y130140D01*
X308497Y130187D01*
X308514Y130198D01*
X308533Y130206D01*
X308645Y130287D01*
X308760Y130365D01*
X308774Y130381D01*
X308790Y130392D01*
X308879Y130500D01*
X308971Y130604D01*
X308980Y130622D01*
X308993Y130637D01*
X309052Y130763D01*
X309115Y130887D01*
X309120Y130907D01*
X309128Y130925D01*
X309155Y131062D01*
X309185Y131197D01*
X309184Y131218D01*
X309188Y131237D01*
X309180Y131376D01*
X309175Y131515D01*
X309170Y131535D01*
X309168Y131555D01*
X309126Y131687D01*
X309087Y131821D01*
X309077Y131838D01*
X309070Y131857D01*
X308996Y131975D01*
X308925Y132095D01*
X308907Y132116D01*
X308900Y132126D01*
X308885Y132140D01*
X308819Y132215D01*
X307809Y133225D01*
X306069Y137426D01*
X306069Y141974D01*
X307809Y146175D01*
X311025Y149391D01*
X315226Y151131D01*
X319774Y151131D01*
X323975Y149391D01*
X327191Y146175D01*
X328931Y141974D01*
X328931Y137426D01*
X327191Y133225D01*
X326181Y132215D01*
X326096Y132106D01*
X326007Y131999D01*
X325998Y131980D01*
X325986Y131964D01*
X325931Y131837D01*
X325872Y131711D01*
X325868Y131691D01*
X325860Y131672D01*
X325838Y131534D01*
X325812Y131398D01*
X325813Y131378D01*
X325810Y131358D01*
X325823Y131219D01*
X325832Y131081D01*
X325838Y131062D01*
X325840Y131042D01*
X325887Y130910D01*
X325930Y130779D01*
X325940Y130761D01*
X325947Y130742D01*
X326025Y130627D01*
X326100Y130510D01*
X326114Y130496D01*
X326126Y130479D01*
X326230Y130387D01*
X326331Y130292D01*
X326349Y130282D01*
X326364Y130269D01*
X326488Y130206D01*
X326610Y130138D01*
X326629Y130133D01*
X326647Y130124D01*
X326783Y130094D01*
X326918Y130059D01*
X326946Y130057D01*
X326958Y130054D01*
X326978Y130055D01*
X327078Y130049D01*
X333322Y130049D01*
X333460Y130066D01*
X333598Y130079D01*
X333617Y130086D01*
X333637Y130089D01*
X333766Y130140D01*
X333897Y130187D01*
X333914Y130198D01*
X333933Y130206D01*
X334045Y130287D01*
X334160Y130365D01*
X334174Y130381D01*
X334190Y130392D01*
X334279Y130500D01*
X334371Y130604D01*
X334380Y130622D01*
X334393Y130637D01*
X334452Y130763D01*
X334515Y130887D01*
X334520Y130907D01*
X334528Y130925D01*
X334555Y131062D01*
X334585Y131197D01*
X334584Y131218D01*
X334588Y131237D01*
X334580Y131376D01*
X334575Y131515D01*
X334570Y131535D01*
X334568Y131555D01*
X334526Y131687D01*
X334487Y131821D01*
X334477Y131838D01*
X334470Y131857D01*
X334396Y131975D01*
X334325Y132095D01*
X334307Y132116D01*
X334300Y132126D01*
X334285Y132140D01*
X334219Y132215D01*
X333209Y133225D01*
X331469Y137426D01*
X331469Y141974D01*
X333209Y146175D01*
X336425Y149391D01*
X340626Y151131D01*
X345174Y151131D01*
X349375Y149391D01*
X352591Y146175D01*
X354331Y141974D01*
X354331Y137426D01*
X352591Y133225D01*
X351581Y132215D01*
X351496Y132106D01*
X351407Y131999D01*
X351398Y131980D01*
X351386Y131964D01*
X351331Y131837D01*
X351272Y131711D01*
X351268Y131691D01*
X351260Y131672D01*
X351238Y131534D01*
X351212Y131398D01*
X351213Y131378D01*
X351210Y131358D01*
X351223Y131219D01*
X351232Y131081D01*
X351238Y131062D01*
X351240Y131042D01*
X351287Y130910D01*
X351330Y130779D01*
X351340Y130761D01*
X351347Y130742D01*
X351425Y130627D01*
X351500Y130510D01*
X351514Y130496D01*
X351526Y130479D01*
X351630Y130387D01*
X351731Y130292D01*
X351749Y130282D01*
X351764Y130269D01*
X351888Y130206D01*
X352010Y130138D01*
X352029Y130133D01*
X352047Y130124D01*
X352183Y130094D01*
X352318Y130059D01*
X352346Y130057D01*
X352358Y130054D01*
X352378Y130055D01*
X352478Y130049D01*
X358722Y130049D01*
X358860Y130066D01*
X358998Y130079D01*
X359017Y130086D01*
X359037Y130089D01*
X359166Y130140D01*
X359297Y130187D01*
X359314Y130198D01*
X359333Y130206D01*
X359445Y130287D01*
X359560Y130365D01*
X359574Y130381D01*
X359590Y130392D01*
X359679Y130500D01*
X359771Y130604D01*
X359780Y130622D01*
X359793Y130637D01*
X359852Y130763D01*
X359915Y130887D01*
X359920Y130907D01*
X359928Y130925D01*
X359955Y131062D01*
X359985Y131197D01*
X359984Y131218D01*
X359988Y131237D01*
X359980Y131376D01*
X359975Y131515D01*
X359970Y131535D01*
X359968Y131555D01*
X359926Y131687D01*
X359887Y131821D01*
X359877Y131838D01*
X359870Y131857D01*
X359796Y131975D01*
X359725Y132095D01*
X359707Y132116D01*
X359700Y132126D01*
X359685Y132140D01*
X359619Y132215D01*
X358609Y133225D01*
X356869Y137426D01*
X356869Y141974D01*
X358609Y146175D01*
X361825Y149391D01*
X366026Y151131D01*
X370574Y151131D01*
X374775Y149391D01*
X377991Y146175D01*
X379731Y141974D01*
X379731Y137426D01*
X377991Y133225D01*
X376981Y132215D01*
X376896Y132106D01*
X376807Y131999D01*
X376798Y131980D01*
X376786Y131964D01*
X376731Y131837D01*
X376672Y131711D01*
X376668Y131691D01*
X376660Y131672D01*
X376638Y131534D01*
X376612Y131398D01*
X376613Y131378D01*
X376610Y131358D01*
X376623Y131219D01*
X376632Y131081D01*
X376638Y131062D01*
X376640Y131042D01*
X376687Y130910D01*
X376730Y130779D01*
X376740Y130761D01*
X376747Y130742D01*
X376825Y130627D01*
X376900Y130510D01*
X376914Y130496D01*
X376926Y130479D01*
X377030Y130387D01*
X377131Y130292D01*
X377149Y130282D01*
X377164Y130269D01*
X377288Y130206D01*
X377410Y130138D01*
X377429Y130133D01*
X377447Y130124D01*
X377583Y130094D01*
X377718Y130059D01*
X377746Y130057D01*
X377758Y130054D01*
X377778Y130055D01*
X377878Y130049D01*
X384122Y130049D01*
X384260Y130066D01*
X384398Y130079D01*
X384417Y130086D01*
X384437Y130089D01*
X384566Y130140D01*
X384697Y130187D01*
X384714Y130198D01*
X384733Y130206D01*
X384845Y130287D01*
X384960Y130365D01*
X384974Y130381D01*
X384990Y130392D01*
X385079Y130500D01*
X385171Y130604D01*
X385180Y130622D01*
X385193Y130637D01*
X385252Y130763D01*
X385315Y130887D01*
X385320Y130907D01*
X385328Y130925D01*
X385355Y131062D01*
X385385Y131197D01*
X385384Y131218D01*
X385388Y131237D01*
X385380Y131376D01*
X385375Y131515D01*
X385370Y131535D01*
X385368Y131555D01*
X385326Y131687D01*
X385287Y131821D01*
X385277Y131838D01*
X385270Y131857D01*
X385196Y131975D01*
X385125Y132095D01*
X385107Y132116D01*
X385100Y132126D01*
X385085Y132140D01*
X385019Y132215D01*
X384009Y133225D01*
X382269Y137426D01*
X382269Y141974D01*
X384009Y146175D01*
X387225Y149391D01*
X391426Y151131D01*
X395974Y151131D01*
X400175Y149391D01*
X403391Y146175D01*
X405131Y141974D01*
X405131Y137426D01*
X403391Y133225D01*
X402381Y132215D01*
X402296Y132106D01*
X402207Y131999D01*
X402198Y131980D01*
X402186Y131964D01*
X402131Y131837D01*
X402072Y131711D01*
X402068Y131691D01*
X402060Y131672D01*
X402038Y131534D01*
X402012Y131398D01*
X402013Y131378D01*
X402010Y131358D01*
X402023Y131219D01*
X402032Y131081D01*
X402038Y131062D01*
X402040Y131042D01*
X402087Y130910D01*
X402130Y130779D01*
X402140Y130761D01*
X402147Y130742D01*
X402225Y130627D01*
X402300Y130510D01*
X402314Y130496D01*
X402326Y130479D01*
X402430Y130387D01*
X402531Y130292D01*
X402549Y130282D01*
X402564Y130269D01*
X402688Y130206D01*
X402810Y130138D01*
X402829Y130133D01*
X402847Y130124D01*
X402983Y130094D01*
X403118Y130059D01*
X403146Y130057D01*
X403158Y130054D01*
X403178Y130055D01*
X403278Y130049D01*
X434922Y130049D01*
X435060Y130066D01*
X435198Y130079D01*
X435217Y130086D01*
X435237Y130089D01*
X435366Y130140D01*
X435497Y130187D01*
X435514Y130198D01*
X435533Y130206D01*
X435645Y130287D01*
X435760Y130365D01*
X435774Y130381D01*
X435790Y130392D01*
X435879Y130500D01*
X435971Y130604D01*
X435980Y130622D01*
X435993Y130637D01*
X436052Y130763D01*
X436115Y130887D01*
X436120Y130907D01*
X436128Y130925D01*
X436155Y131062D01*
X436185Y131197D01*
X436184Y131218D01*
X436188Y131237D01*
X436180Y131376D01*
X436175Y131515D01*
X436170Y131535D01*
X436168Y131555D01*
X436126Y131687D01*
X436087Y131821D01*
X436077Y131838D01*
X436070Y131857D01*
X435996Y131975D01*
X435925Y132095D01*
X435907Y132116D01*
X435900Y132126D01*
X435885Y132140D01*
X435819Y132215D01*
X434809Y133225D01*
X433069Y137426D01*
X433069Y141974D01*
X434809Y146175D01*
X438025Y149391D01*
X442226Y151131D01*
X446774Y151131D01*
X450975Y149391D01*
X454191Y146175D01*
X455931Y141974D01*
X455931Y137426D01*
X454191Y133225D01*
X453181Y132215D01*
X453096Y132106D01*
X453007Y131999D01*
X452998Y131980D01*
X452986Y131964D01*
X452931Y131837D01*
X452872Y131711D01*
X452868Y131691D01*
X452860Y131672D01*
X452838Y131534D01*
X452812Y131398D01*
X452813Y131378D01*
X452810Y131358D01*
X452823Y131219D01*
X452832Y131081D01*
X452838Y131062D01*
X452840Y131042D01*
X452887Y130910D01*
X452930Y130779D01*
X452940Y130761D01*
X452947Y130742D01*
X453025Y130627D01*
X453100Y130510D01*
X453114Y130496D01*
X453126Y130479D01*
X453230Y130387D01*
X453331Y130292D01*
X453349Y130282D01*
X453364Y130269D01*
X453488Y130206D01*
X453610Y130138D01*
X453629Y130133D01*
X453647Y130124D01*
X453783Y130094D01*
X453918Y130059D01*
X453946Y130057D01*
X453958Y130054D01*
X453978Y130055D01*
X454078Y130049D01*
G37*
G36*
X226106Y330359D02*
X226106Y330359D01*
X226211Y330393D01*
X226318Y330418D01*
X226362Y330442D01*
X226409Y330457D01*
X226502Y330516D01*
X226599Y330567D01*
X226636Y330601D01*
X226678Y330627D01*
X226753Y330707D01*
X226834Y330781D01*
X226862Y330823D01*
X226896Y330859D01*
X226949Y330955D01*
X227009Y331047D01*
X227025Y331094D01*
X227049Y331137D01*
X227077Y331244D01*
X227112Y331348D01*
X227116Y331397D01*
X227129Y331445D01*
X227139Y331606D01*
X227139Y388736D01*
X227126Y388835D01*
X227123Y388934D01*
X227107Y388992D01*
X227099Y389052D01*
X227062Y389144D01*
X227035Y389239D01*
X227004Y389291D01*
X226982Y389348D01*
X226924Y389428D01*
X226873Y389513D01*
X226807Y389588D01*
X226795Y389605D01*
X226786Y389613D01*
X226767Y389634D01*
X213012Y403389D01*
X212934Y403449D01*
X212862Y403517D01*
X212809Y403546D01*
X212761Y403583D01*
X212670Y403623D01*
X212584Y403671D01*
X212525Y403686D01*
X212469Y403710D01*
X212371Y403725D01*
X212276Y403750D01*
X212176Y403756D01*
X212155Y403760D01*
X212143Y403758D01*
X212115Y403760D01*
X209981Y403760D01*
X207844Y404645D01*
X206208Y406281D01*
X205323Y408418D01*
X205323Y410732D01*
X206208Y412869D01*
X207914Y414575D01*
X207924Y414581D01*
X208024Y414678D01*
X208127Y414771D01*
X208138Y414788D01*
X208153Y414802D01*
X208225Y414920D01*
X208302Y415037D01*
X208309Y415056D01*
X208319Y415073D01*
X208360Y415206D01*
X208405Y415338D01*
X208407Y415358D01*
X208413Y415377D01*
X208419Y415515D01*
X208431Y415655D01*
X208427Y415675D01*
X208428Y415694D01*
X208400Y415830D01*
X208376Y415968D01*
X208368Y415986D01*
X208364Y416006D01*
X208303Y416131D01*
X208246Y416258D01*
X208233Y416274D01*
X208224Y416292D01*
X208134Y416398D01*
X208047Y416507D01*
X208031Y416519D01*
X208018Y416534D01*
X207904Y416614D01*
X207793Y416698D01*
X207768Y416710D01*
X207758Y416717D01*
X207739Y416724D01*
X207648Y416769D01*
X206256Y417345D01*
X204620Y418981D01*
X203735Y421118D01*
X203735Y423432D01*
X204620Y425569D01*
X206256Y427205D01*
X208393Y428090D01*
X210707Y428090D01*
X212844Y427205D01*
X214480Y425569D01*
X215365Y423432D01*
X215365Y421298D01*
X215377Y421199D01*
X215380Y421100D01*
X215397Y421042D01*
X215405Y420982D01*
X215441Y420890D01*
X215469Y420795D01*
X215499Y420743D01*
X215522Y420686D01*
X215580Y420606D01*
X215630Y420521D01*
X215696Y420446D01*
X215708Y420429D01*
X215718Y420421D01*
X215736Y420400D01*
X227164Y408972D01*
X227204Y408942D01*
X227237Y408905D01*
X227329Y408845D01*
X227416Y408777D01*
X227461Y408757D01*
X227503Y408730D01*
X227607Y408695D01*
X227708Y408651D01*
X227757Y408643D01*
X227804Y408627D01*
X227913Y408618D01*
X228022Y408601D01*
X228071Y408606D01*
X228121Y408602D01*
X228229Y408620D01*
X228338Y408631D01*
X228385Y408648D01*
X228434Y408656D01*
X228534Y408701D01*
X228638Y408738D01*
X228679Y408766D01*
X228724Y408787D01*
X228810Y408855D01*
X228901Y408917D01*
X228934Y408954D01*
X228972Y408985D01*
X229038Y409073D01*
X229111Y409155D01*
X229134Y409200D01*
X229164Y409239D01*
X229235Y409384D01*
X230020Y411281D01*
X231530Y412790D01*
X231590Y412869D01*
X231658Y412941D01*
X231687Y412994D01*
X231724Y413042D01*
X231764Y413133D01*
X231812Y413219D01*
X231827Y413278D01*
X231851Y413333D01*
X231866Y413431D01*
X231891Y413527D01*
X231897Y413627D01*
X231901Y413648D01*
X231899Y413660D01*
X231901Y413688D01*
X231901Y421950D01*
X241055Y431104D01*
X241115Y431182D01*
X241183Y431254D01*
X241212Y431307D01*
X241249Y431355D01*
X241289Y431446D01*
X241337Y431532D01*
X241352Y431591D01*
X241376Y431647D01*
X241391Y431745D01*
X241416Y431840D01*
X241422Y431940D01*
X241426Y431961D01*
X241424Y431973D01*
X241426Y432001D01*
X241426Y462650D01*
X241409Y462788D01*
X241396Y462927D01*
X241389Y462946D01*
X241386Y462966D01*
X241335Y463095D01*
X241288Y463226D01*
X241277Y463243D01*
X241269Y463262D01*
X241188Y463374D01*
X241110Y463489D01*
X241094Y463503D01*
X241083Y463519D01*
X240975Y463608D01*
X240871Y463700D01*
X240853Y463709D01*
X240838Y463722D01*
X240712Y463781D01*
X240588Y463844D01*
X240568Y463849D01*
X240550Y463857D01*
X240413Y463883D01*
X240278Y463914D01*
X240257Y463913D01*
X240238Y463917D01*
X240099Y463909D01*
X239960Y463904D01*
X239940Y463899D01*
X239920Y463897D01*
X239788Y463855D01*
X239654Y463816D01*
X239637Y463806D01*
X239618Y463799D01*
X239500Y463725D01*
X239380Y463654D01*
X239359Y463636D01*
X239349Y463629D01*
X239335Y463614D01*
X239260Y463548D01*
X237429Y461717D01*
X234786Y459075D01*
X234726Y458997D01*
X234658Y458925D01*
X234629Y458872D01*
X234592Y458824D01*
X234552Y458733D01*
X234504Y458646D01*
X234489Y458587D01*
X234465Y458532D01*
X234450Y458434D01*
X234425Y458338D01*
X234419Y458238D01*
X234415Y458218D01*
X234417Y458205D01*
X234415Y458177D01*
X234415Y456043D01*
X233530Y453906D01*
X231894Y452270D01*
X229757Y451385D01*
X227443Y451385D01*
X225306Y452270D01*
X223670Y453906D01*
X222785Y456043D01*
X222785Y458357D01*
X223670Y460494D01*
X225035Y461859D01*
X225109Y461953D01*
X225187Y462042D01*
X225206Y462078D01*
X225230Y462110D01*
X225278Y462220D01*
X225332Y462325D01*
X225341Y462365D01*
X225357Y462402D01*
X225375Y462520D01*
X225401Y462636D01*
X225400Y462676D01*
X225407Y462716D01*
X225395Y462835D01*
X225392Y462954D01*
X225381Y462992D01*
X225377Y463033D01*
X225337Y463145D01*
X225303Y463259D01*
X225283Y463294D01*
X225269Y463332D01*
X225202Y463431D01*
X225142Y463533D01*
X225102Y463578D01*
X225091Y463595D01*
X225075Y463609D01*
X225035Y463654D01*
X223670Y465019D01*
X222785Y467156D01*
X222785Y469290D01*
X222773Y469388D01*
X222770Y469487D01*
X222753Y469545D01*
X222745Y469605D01*
X222709Y469698D01*
X222681Y469793D01*
X222651Y469845D01*
X222628Y469901D01*
X222570Y469981D01*
X222520Y470067D01*
X222454Y470142D01*
X222442Y470159D01*
X222432Y470166D01*
X222414Y470187D01*
X215009Y477592D01*
X213178Y479423D01*
X213068Y479508D01*
X212961Y479597D01*
X212943Y479605D01*
X212927Y479618D01*
X212799Y479673D01*
X212673Y479732D01*
X212654Y479736D01*
X212635Y479744D01*
X212497Y479766D01*
X212361Y479792D01*
X212341Y479791D01*
X212321Y479794D01*
X212182Y479781D01*
X212044Y479772D01*
X212024Y479766D01*
X212004Y479764D01*
X211873Y479717D01*
X211741Y479674D01*
X211724Y479664D01*
X211705Y479657D01*
X211590Y479579D01*
X211472Y479504D01*
X211458Y479489D01*
X211442Y479478D01*
X211350Y479374D01*
X211254Y479273D01*
X211245Y479255D01*
X211231Y479240D01*
X211168Y479116D01*
X211101Y478994D01*
X211096Y478975D01*
X211087Y478956D01*
X211056Y478821D01*
X211021Y478686D01*
X211020Y478658D01*
X211017Y478646D01*
X211018Y478626D01*
X211011Y478525D01*
X211011Y445438D01*
X211024Y445340D01*
X211027Y445241D01*
X211043Y445182D01*
X211051Y445122D01*
X211088Y445030D01*
X211115Y444935D01*
X211146Y444883D01*
X211168Y444827D01*
X211226Y444747D01*
X211277Y444661D01*
X211343Y444586D01*
X211355Y444569D01*
X211364Y444561D01*
X211383Y444540D01*
X212892Y443031D01*
X213777Y440894D01*
X213777Y438581D01*
X212892Y436444D01*
X211256Y434808D01*
X209119Y433923D01*
X206806Y433923D01*
X204669Y434808D01*
X203033Y436444D01*
X202148Y438581D01*
X202148Y440894D01*
X203033Y443031D01*
X204542Y444540D01*
X204603Y444619D01*
X204671Y444691D01*
X204700Y444744D01*
X204737Y444792D01*
X204776Y444883D01*
X204824Y444969D01*
X204839Y445028D01*
X204863Y445083D01*
X204879Y445181D01*
X204904Y445277D01*
X204910Y445377D01*
X204913Y445398D01*
X204912Y445410D01*
X204914Y445438D01*
X204914Y520882D01*
X204908Y520931D01*
X204910Y520981D01*
X204888Y521088D01*
X204874Y521197D01*
X204856Y521243D01*
X204846Y521292D01*
X204797Y521391D01*
X204757Y521493D01*
X204728Y521533D01*
X204706Y521578D01*
X204635Y521661D01*
X204570Y521750D01*
X204532Y521782D01*
X204500Y521820D01*
X204410Y521883D01*
X204325Y521953D01*
X204280Y521974D01*
X204239Y522003D01*
X204137Y522042D01*
X204037Y522089D01*
X203989Y522098D01*
X203942Y522115D01*
X203833Y522128D01*
X203725Y522148D01*
X203676Y522145D01*
X203626Y522151D01*
X203517Y522135D01*
X203408Y522129D01*
X203360Y522113D01*
X203311Y522106D01*
X203159Y522054D01*
X201182Y521235D01*
X198868Y521235D01*
X196731Y522120D01*
X195095Y523756D01*
X194210Y525893D01*
X194210Y528027D01*
X194198Y528126D01*
X194195Y528225D01*
X194178Y528283D01*
X194170Y528343D01*
X194134Y528435D01*
X194106Y528530D01*
X194076Y528582D01*
X194053Y528639D01*
X193995Y528719D01*
X193945Y528804D01*
X193879Y528879D01*
X193867Y528896D01*
X193857Y528904D01*
X193839Y528925D01*
X187451Y535312D01*
X187451Y610342D01*
X187448Y610371D01*
X187450Y610401D01*
X187428Y610529D01*
X187411Y610658D01*
X187401Y610685D01*
X187396Y610714D01*
X187342Y610833D01*
X187294Y610953D01*
X187277Y610977D01*
X187265Y611004D01*
X187184Y611106D01*
X187108Y611211D01*
X187085Y611230D01*
X187066Y611253D01*
X186963Y611331D01*
X186863Y611414D01*
X186836Y611426D01*
X186812Y611444D01*
X186668Y611515D01*
X184025Y612609D01*
X180809Y615825D01*
X179069Y620026D01*
X179069Y624574D01*
X180809Y628775D01*
X181819Y629785D01*
X181904Y629894D01*
X181993Y630001D01*
X182002Y630020D01*
X182014Y630036D01*
X182069Y630163D01*
X182128Y630289D01*
X182132Y630309D01*
X182140Y630328D01*
X182162Y630466D01*
X182188Y630602D01*
X182187Y630622D01*
X182190Y630642D01*
X182177Y630781D01*
X182168Y630919D01*
X182162Y630938D01*
X182160Y630958D01*
X182113Y631090D01*
X182070Y631221D01*
X182060Y631239D01*
X182053Y631258D01*
X181975Y631373D01*
X181900Y631490D01*
X181886Y631504D01*
X181874Y631521D01*
X181770Y631613D01*
X181669Y631708D01*
X181651Y631718D01*
X181636Y631731D01*
X181512Y631794D01*
X181390Y631862D01*
X181371Y631867D01*
X181353Y631876D01*
X181217Y631906D01*
X181082Y631941D01*
X181054Y631943D01*
X181042Y631946D01*
X181022Y631945D01*
X180922Y631951D01*
X174678Y631951D01*
X174540Y631934D01*
X174402Y631921D01*
X174383Y631914D01*
X174363Y631911D01*
X174234Y631860D01*
X174103Y631813D01*
X174086Y631802D01*
X174067Y631794D01*
X173955Y631713D01*
X173840Y631635D01*
X173826Y631619D01*
X173810Y631608D01*
X173721Y631500D01*
X173629Y631396D01*
X173620Y631378D01*
X173607Y631363D01*
X173548Y631237D01*
X173485Y631113D01*
X173480Y631093D01*
X173472Y631075D01*
X173445Y630938D01*
X173415Y630803D01*
X173416Y630782D01*
X173412Y630763D01*
X173420Y630624D01*
X173425Y630485D01*
X173430Y630465D01*
X173432Y630445D01*
X173474Y630313D01*
X173513Y630179D01*
X173523Y630162D01*
X173530Y630143D01*
X173604Y630025D01*
X173675Y629905D01*
X173693Y629884D01*
X173700Y629874D01*
X173715Y629860D01*
X173781Y629785D01*
X174791Y628775D01*
X176531Y624574D01*
X176531Y620026D01*
X174791Y615825D01*
X171575Y612609D01*
X168932Y611515D01*
X168907Y611500D01*
X168879Y611491D01*
X168769Y611422D01*
X168656Y611357D01*
X168635Y611337D01*
X168610Y611321D01*
X168521Y611226D01*
X168428Y611136D01*
X168412Y611111D01*
X168392Y611089D01*
X168329Y610976D01*
X168261Y610865D01*
X168253Y610837D01*
X168238Y610811D01*
X168206Y610685D01*
X168168Y610561D01*
X168166Y610531D01*
X168159Y610503D01*
X168149Y610342D01*
X168149Y601481D01*
X168155Y601432D01*
X168153Y601382D01*
X168175Y601275D01*
X168189Y601165D01*
X168207Y601119D01*
X168217Y601071D01*
X168265Y600972D01*
X168306Y600870D01*
X168335Y600830D01*
X168357Y600785D01*
X168428Y600701D01*
X168492Y600612D01*
X168531Y600581D01*
X168563Y600543D01*
X168653Y600480D01*
X168737Y600410D01*
X168782Y600388D01*
X168823Y600360D01*
X168926Y600321D01*
X169025Y600274D01*
X169074Y600265D01*
X169120Y600247D01*
X169230Y600235D01*
X169337Y600214D01*
X169387Y600217D01*
X169436Y600212D01*
X169545Y600227D01*
X169655Y600234D01*
X169702Y600249D01*
X169751Y600256D01*
X169904Y600308D01*
X171881Y601127D01*
X174194Y601127D01*
X176331Y600242D01*
X177967Y598606D01*
X178852Y596469D01*
X178852Y594156D01*
X177967Y592019D01*
X176458Y590510D01*
X176397Y590431D01*
X176329Y590359D01*
X176300Y590306D01*
X176263Y590258D01*
X176224Y590167D01*
X176176Y590081D01*
X176161Y590022D01*
X176137Y589967D01*
X176121Y589869D01*
X176096Y589773D01*
X176090Y589673D01*
X176087Y589652D01*
X176088Y589640D01*
X176086Y589612D01*
X176086Y528456D01*
X176092Y528407D01*
X176090Y528357D01*
X176112Y528250D01*
X176126Y528140D01*
X176144Y528094D01*
X176154Y528046D01*
X176203Y527947D01*
X176243Y527845D01*
X176272Y527805D01*
X176294Y527760D01*
X176365Y527676D01*
X176430Y527587D01*
X176468Y527556D01*
X176500Y527518D01*
X176590Y527455D01*
X176675Y527385D01*
X176720Y527363D01*
X176761Y527335D01*
X176863Y527296D01*
X176963Y527249D01*
X177011Y527240D01*
X177058Y527222D01*
X177167Y527210D01*
X177275Y527189D01*
X177324Y527192D01*
X177374Y527187D01*
X177483Y527202D01*
X177592Y527209D01*
X177640Y527224D01*
X177689Y527231D01*
X177841Y527283D01*
X179818Y528102D01*
X182132Y528102D01*
X184269Y527217D01*
X185905Y525581D01*
X186790Y523444D01*
X186790Y521131D01*
X185905Y518994D01*
X184395Y517485D01*
X184335Y517406D01*
X184267Y517334D01*
X184238Y517281D01*
X184201Y517233D01*
X184161Y517142D01*
X184113Y517056D01*
X184098Y516997D01*
X184074Y516942D01*
X184059Y516844D01*
X184034Y516748D01*
X184028Y516648D01*
X184024Y516627D01*
X184026Y516615D01*
X184024Y516587D01*
X184024Y364943D01*
X184030Y364894D01*
X184028Y364844D01*
X184050Y364737D01*
X184064Y364628D01*
X184082Y364582D01*
X184092Y364533D01*
X184140Y364434D01*
X184181Y364332D01*
X184210Y364292D01*
X184232Y364247D01*
X184303Y364164D01*
X184367Y364075D01*
X184406Y364043D01*
X184438Y364005D01*
X184528Y363942D01*
X184612Y363872D01*
X184657Y363851D01*
X184698Y363822D01*
X184801Y363783D01*
X184900Y363736D01*
X184949Y363727D01*
X184995Y363710D01*
X185105Y363697D01*
X185212Y363677D01*
X185262Y363680D01*
X185311Y363674D01*
X185420Y363690D01*
X185530Y363696D01*
X185577Y363712D01*
X185626Y363719D01*
X185779Y363771D01*
X187756Y364590D01*
X190069Y364590D01*
X192206Y363705D01*
X193842Y362069D01*
X194727Y359932D01*
X194727Y357798D01*
X194740Y357699D01*
X194743Y357600D01*
X194759Y357542D01*
X194767Y357482D01*
X194804Y357390D01*
X194831Y357295D01*
X194862Y357243D01*
X194884Y357186D01*
X194942Y357106D01*
X194993Y357021D01*
X195059Y356945D01*
X195071Y356929D01*
X195080Y356921D01*
X195099Y356900D01*
X220375Y331624D01*
X220453Y331563D01*
X220525Y331495D01*
X220578Y331466D01*
X220626Y331429D01*
X220717Y331390D01*
X220804Y331342D01*
X220862Y331327D01*
X220918Y331303D01*
X221016Y331287D01*
X221112Y331262D01*
X221212Y331256D01*
X221232Y331253D01*
X221245Y331254D01*
X221273Y331252D01*
X223407Y331252D01*
X225384Y330433D01*
X225432Y330420D01*
X225477Y330399D01*
X225584Y330378D01*
X225691Y330349D01*
X225740Y330349D01*
X225789Y330339D01*
X225899Y330346D01*
X226009Y330344D01*
X226057Y330356D01*
X226106Y330359D01*
G37*
G36*
X219572Y199939D02*
X219572Y199939D01*
X219618Y199957D01*
X219667Y199967D01*
X219766Y200015D01*
X219868Y200056D01*
X219908Y200085D01*
X219953Y200107D01*
X220036Y200178D01*
X220125Y200242D01*
X220157Y200281D01*
X220195Y200313D01*
X220258Y200403D01*
X220328Y200487D01*
X220349Y200532D01*
X220378Y200573D01*
X220417Y200676D01*
X220464Y200775D01*
X220473Y200824D01*
X220490Y200870D01*
X220503Y200980D01*
X220523Y201087D01*
X220520Y201137D01*
X220526Y201186D01*
X220510Y201295D01*
X220504Y201405D01*
X220488Y201452D01*
X220481Y201501D01*
X220429Y201654D01*
X219610Y203631D01*
X219610Y205944D01*
X219941Y206743D01*
X219954Y206791D01*
X219975Y206836D01*
X219996Y206943D01*
X220025Y207050D01*
X220026Y207099D01*
X220035Y207148D01*
X220028Y207258D01*
X220030Y207368D01*
X220018Y207416D01*
X220015Y207465D01*
X219982Y207570D01*
X219956Y207677D01*
X219933Y207721D01*
X219917Y207768D01*
X219859Y207861D01*
X219807Y207958D01*
X219774Y207995D01*
X219747Y208037D01*
X219667Y208112D01*
X219593Y208193D01*
X219552Y208221D01*
X219516Y208255D01*
X219419Y208308D01*
X219328Y208368D01*
X219281Y208384D01*
X219237Y208408D01*
X219131Y208436D01*
X219027Y208471D01*
X218977Y208475D01*
X218929Y208488D01*
X218768Y208498D01*
X216331Y208498D01*
X214194Y209383D01*
X212558Y211019D01*
X211673Y213156D01*
X211673Y215469D01*
X212558Y217606D01*
X214067Y219115D01*
X214128Y219194D01*
X214196Y219266D01*
X214225Y219319D01*
X214262Y219367D01*
X214301Y219458D01*
X214349Y219544D01*
X214364Y219603D01*
X214388Y219658D01*
X214404Y219756D01*
X214429Y219852D01*
X214435Y219952D01*
X214438Y219972D01*
X214437Y219985D01*
X214439Y220013D01*
X214439Y272849D01*
X214426Y272947D01*
X214423Y273046D01*
X214407Y273104D01*
X214399Y273164D01*
X214362Y273257D01*
X214335Y273352D01*
X214304Y273404D01*
X214282Y273460D01*
X214224Y273540D01*
X214173Y273626D01*
X214107Y273701D01*
X214095Y273717D01*
X214086Y273725D01*
X214067Y273746D01*
X152687Y335126D01*
X152609Y335187D01*
X152537Y335255D01*
X152484Y335284D01*
X152436Y335321D01*
X152345Y335360D01*
X152259Y335408D01*
X152200Y335423D01*
X152144Y335447D01*
X152046Y335463D01*
X151951Y335488D01*
X151851Y335494D01*
X151830Y335497D01*
X151818Y335496D01*
X151790Y335498D01*
X149656Y335498D01*
X147679Y336317D01*
X147631Y336330D01*
X147586Y336351D01*
X147478Y336372D01*
X147372Y336401D01*
X147322Y336401D01*
X147273Y336411D01*
X147164Y336404D01*
X147054Y336406D01*
X147006Y336394D01*
X146956Y336391D01*
X146852Y336357D01*
X146745Y336332D01*
X146701Y336308D01*
X146654Y336293D01*
X146561Y336234D01*
X146464Y336183D01*
X146427Y336149D01*
X146385Y336123D01*
X146310Y336043D01*
X146228Y335969D01*
X146201Y335927D01*
X146167Y335891D01*
X146114Y335795D01*
X146054Y335703D01*
X146037Y335656D01*
X146013Y335613D01*
X145986Y335506D01*
X145950Y335402D01*
X145946Y335353D01*
X145934Y335305D01*
X145924Y335144D01*
X145924Y268489D01*
X145936Y268390D01*
X145939Y268291D01*
X145956Y268233D01*
X145964Y268173D01*
X146000Y268081D01*
X146028Y267986D01*
X146058Y267934D01*
X146081Y267877D01*
X146139Y267797D01*
X146189Y267712D01*
X146255Y267637D01*
X146267Y267620D01*
X146277Y267612D01*
X146295Y267591D01*
X193388Y220499D01*
X193466Y220438D01*
X193538Y220370D01*
X193591Y220341D01*
X193639Y220304D01*
X193730Y220265D01*
X193816Y220217D01*
X193875Y220202D01*
X193931Y220178D01*
X194029Y220162D01*
X194124Y220137D01*
X194224Y220131D01*
X194245Y220128D01*
X194257Y220129D01*
X194285Y220127D01*
X196419Y220127D01*
X198556Y219242D01*
X200192Y217606D01*
X201077Y215469D01*
X201077Y213156D01*
X200192Y211019D01*
X198556Y209383D01*
X196419Y208498D01*
X194106Y208498D01*
X191969Y209383D01*
X190333Y211019D01*
X189448Y213156D01*
X189448Y215290D01*
X189435Y215388D01*
X189432Y215487D01*
X189416Y215545D01*
X189408Y215605D01*
X189371Y215698D01*
X189344Y215793D01*
X189313Y215845D01*
X189291Y215901D01*
X189233Y215981D01*
X189182Y216067D01*
X189116Y216142D01*
X189104Y216158D01*
X189095Y216166D01*
X189076Y216187D01*
X143328Y261935D01*
X143218Y262021D01*
X143111Y262109D01*
X143093Y262118D01*
X143077Y262130D01*
X142949Y262186D01*
X142823Y262245D01*
X142804Y262249D01*
X142785Y262257D01*
X142647Y262279D01*
X142511Y262305D01*
X142491Y262303D01*
X142471Y262307D01*
X142332Y262294D01*
X142194Y262285D01*
X142174Y262279D01*
X142154Y262277D01*
X142023Y262230D01*
X141891Y262187D01*
X141874Y262176D01*
X141855Y262169D01*
X141740Y262091D01*
X141622Y262017D01*
X141608Y262002D01*
X141592Y261991D01*
X141500Y261887D01*
X141404Y261785D01*
X141395Y261767D01*
X141381Y261752D01*
X141318Y261628D01*
X141251Y261507D01*
X141246Y261487D01*
X141237Y261469D01*
X141206Y261333D01*
X141171Y261199D01*
X141170Y261171D01*
X141167Y261159D01*
X141168Y261138D01*
X141161Y261038D01*
X141161Y201168D01*
X141176Y201050D01*
X141184Y200931D01*
X141196Y200893D01*
X141201Y200852D01*
X141245Y200742D01*
X141282Y200629D01*
X141303Y200594D01*
X141318Y200557D01*
X141388Y200461D01*
X141452Y200360D01*
X141481Y200332D01*
X141505Y200299D01*
X141597Y200223D01*
X141683Y200142D01*
X141719Y200122D01*
X141750Y200097D01*
X141858Y200046D01*
X141962Y199988D01*
X142001Y199978D01*
X142038Y199961D01*
X142154Y199939D01*
X142270Y199909D01*
X142330Y199905D01*
X142350Y199901D01*
X142370Y199903D01*
X142430Y199899D01*
X219257Y199899D01*
X219306Y199905D01*
X219356Y199903D01*
X219463Y199925D01*
X219572Y199939D01*
G37*
G36*
X221067Y275856D02*
X221067Y275856D01*
X221206Y275869D01*
X221344Y275878D01*
X221363Y275884D01*
X221383Y275886D01*
X221515Y275933D01*
X221646Y275976D01*
X221664Y275986D01*
X221683Y275993D01*
X221798Y276071D01*
X221915Y276146D01*
X221929Y276161D01*
X221946Y276172D01*
X222038Y276276D01*
X222133Y276377D01*
X222143Y276395D01*
X222156Y276410D01*
X222220Y276534D01*
X222287Y276656D01*
X222292Y276675D01*
X222301Y276694D01*
X222331Y276829D01*
X222366Y276964D01*
X222368Y276992D01*
X222371Y277004D01*
X222370Y277024D01*
X222376Y277125D01*
X222376Y299836D01*
X222364Y299935D01*
X222361Y300034D01*
X222344Y300092D01*
X222336Y300152D01*
X222300Y300244D01*
X222272Y300339D01*
X222242Y300391D01*
X222219Y300448D01*
X222161Y300528D01*
X222111Y300613D01*
X222045Y300688D01*
X222033Y300705D01*
X222023Y300713D01*
X222005Y300734D01*
X177926Y344812D01*
X177926Y455794D01*
X177920Y455843D01*
X177922Y455893D01*
X177900Y456000D01*
X177886Y456110D01*
X177868Y456156D01*
X177858Y456204D01*
X177810Y456303D01*
X177769Y456405D01*
X177740Y456445D01*
X177718Y456490D01*
X177647Y456574D01*
X177583Y456663D01*
X177544Y456694D01*
X177512Y456732D01*
X177422Y456795D01*
X177338Y456865D01*
X177293Y456887D01*
X177252Y456915D01*
X177149Y456954D01*
X177050Y457001D01*
X177001Y457010D01*
X176955Y457028D01*
X176845Y457040D01*
X176738Y457061D01*
X176688Y457058D01*
X176639Y457063D01*
X176530Y457048D01*
X176420Y457041D01*
X176373Y457026D01*
X176324Y457019D01*
X176171Y456967D01*
X174194Y456148D01*
X173648Y456148D01*
X173549Y456135D01*
X173450Y456132D01*
X173392Y456116D01*
X173332Y456108D01*
X173240Y456071D01*
X173145Y456044D01*
X173093Y456013D01*
X173036Y455991D01*
X172956Y455933D01*
X172871Y455882D01*
X172795Y455816D01*
X172779Y455804D01*
X172771Y455795D01*
X172750Y455776D01*
X125249Y408275D01*
X125188Y408197D01*
X125120Y408125D01*
X125091Y408072D01*
X125054Y408024D01*
X125015Y407933D01*
X124967Y407846D01*
X124952Y407787D01*
X124928Y407732D01*
X124912Y407634D01*
X124887Y407538D01*
X124881Y407438D01*
X124878Y407418D01*
X124879Y407405D01*
X124877Y407377D01*
X124877Y405546D01*
X124892Y405428D01*
X124900Y405310D01*
X124912Y405271D01*
X124917Y405231D01*
X124961Y405120D01*
X124998Y405007D01*
X125019Y404973D01*
X125034Y404935D01*
X125104Y404839D01*
X125168Y404738D01*
X125197Y404711D01*
X125221Y404678D01*
X125313Y404602D01*
X125399Y404520D01*
X125435Y404501D01*
X125466Y404475D01*
X125574Y404424D01*
X125678Y404367D01*
X125717Y404357D01*
X125754Y404340D01*
X125870Y404317D01*
X125986Y404287D01*
X126046Y404284D01*
X126066Y404280D01*
X126086Y404281D01*
X126146Y404277D01*
X128157Y404277D01*
X130294Y403392D01*
X131930Y401756D01*
X132815Y399619D01*
X132815Y397485D01*
X132827Y397387D01*
X132830Y397288D01*
X132847Y397230D01*
X132855Y397170D01*
X132891Y397077D01*
X132919Y396982D01*
X132949Y396930D01*
X132972Y396874D01*
X133030Y396794D01*
X133080Y396708D01*
X133146Y396633D01*
X133158Y396617D01*
X133168Y396609D01*
X133186Y396588D01*
X145924Y383850D01*
X145924Y347481D01*
X145930Y347432D01*
X145928Y347382D01*
X145950Y347275D01*
X145964Y347165D01*
X145982Y347119D01*
X145992Y347071D01*
X146040Y346972D01*
X146081Y346870D01*
X146110Y346830D01*
X146132Y346785D01*
X146203Y346701D01*
X146267Y346612D01*
X146306Y346581D01*
X146338Y346543D01*
X146428Y346480D01*
X146512Y346410D01*
X146557Y346388D01*
X146598Y346360D01*
X146701Y346321D01*
X146800Y346274D01*
X146849Y346265D01*
X146895Y346247D01*
X147005Y346235D01*
X147112Y346214D01*
X147162Y346217D01*
X147211Y346212D01*
X147320Y346227D01*
X147430Y346234D01*
X147477Y346249D01*
X147526Y346256D01*
X147679Y346308D01*
X149656Y347127D01*
X151969Y347127D01*
X154106Y346242D01*
X155742Y344606D01*
X156627Y342469D01*
X156627Y340335D01*
X156640Y340237D01*
X156643Y340138D01*
X156659Y340080D01*
X156667Y340020D01*
X156704Y339927D01*
X156731Y339832D01*
X156762Y339780D01*
X156784Y339724D01*
X156842Y339644D01*
X156893Y339558D01*
X156959Y339483D01*
X156971Y339467D01*
X156980Y339459D01*
X156999Y339438D01*
X218379Y278058D01*
X220210Y276227D01*
X220319Y276142D01*
X220426Y276053D01*
X220445Y276045D01*
X220461Y276032D01*
X220589Y275977D01*
X220714Y275918D01*
X220734Y275914D01*
X220753Y275906D01*
X220891Y275884D01*
X221027Y275858D01*
X221047Y275859D01*
X221067Y275856D01*
G37*
G36*
X302826Y342541D02*
X302826Y342541D01*
X302965Y342546D01*
X302985Y342551D01*
X303005Y342553D01*
X303137Y342595D01*
X303271Y342634D01*
X303288Y342644D01*
X303307Y342651D01*
X303425Y342725D01*
X303545Y342796D01*
X303566Y342814D01*
X303576Y342821D01*
X303590Y342836D01*
X303665Y342902D01*
X366467Y405704D01*
X366528Y405782D01*
X366596Y405854D01*
X366625Y405907D01*
X366662Y405955D01*
X366701Y406046D01*
X366749Y406132D01*
X366764Y406191D01*
X366788Y406247D01*
X366804Y406345D01*
X366829Y406440D01*
X366835Y406540D01*
X366838Y406561D01*
X366837Y406573D01*
X366839Y406601D01*
X366839Y452619D01*
X366833Y452668D01*
X366835Y452718D01*
X366813Y452825D01*
X366799Y452935D01*
X366781Y452981D01*
X366771Y453029D01*
X366722Y453128D01*
X366682Y453230D01*
X366653Y453270D01*
X366631Y453315D01*
X366560Y453399D01*
X366495Y453488D01*
X366457Y453519D01*
X366425Y453557D01*
X366335Y453620D01*
X366250Y453690D01*
X366205Y453712D01*
X366164Y453740D01*
X366062Y453779D01*
X365962Y453826D01*
X365914Y453835D01*
X365867Y453853D01*
X365758Y453865D01*
X365650Y453886D01*
X365601Y453883D01*
X365551Y453888D01*
X365442Y453873D01*
X365333Y453866D01*
X365285Y453851D01*
X365236Y453844D01*
X365084Y453792D01*
X363107Y452973D01*
X360793Y452973D01*
X358656Y453858D01*
X357020Y455494D01*
X356135Y457631D01*
X356135Y459765D01*
X356123Y459863D01*
X356120Y459962D01*
X356103Y460020D01*
X356095Y460080D01*
X356059Y460173D01*
X356031Y460268D01*
X356001Y460320D01*
X355978Y460376D01*
X355920Y460456D01*
X355870Y460542D01*
X355804Y460617D01*
X355792Y460634D01*
X355782Y460641D01*
X355764Y460662D01*
X330487Y485939D01*
X330409Y485999D01*
X330337Y486067D01*
X330284Y486096D01*
X330236Y486133D01*
X330145Y486173D01*
X330059Y486221D01*
X330000Y486236D01*
X329944Y486260D01*
X329846Y486275D01*
X329751Y486300D01*
X329651Y486306D01*
X329630Y486310D01*
X329618Y486308D01*
X329590Y486310D01*
X327456Y486310D01*
X325479Y487129D01*
X325431Y487142D01*
X325386Y487164D01*
X325278Y487184D01*
X325172Y487213D01*
X325122Y487214D01*
X325073Y487223D01*
X324964Y487216D01*
X324854Y487218D01*
X324806Y487207D01*
X324756Y487204D01*
X324652Y487170D01*
X324545Y487144D01*
X324501Y487121D01*
X324454Y487106D01*
X324361Y487047D01*
X324264Y486995D01*
X324227Y486962D01*
X324185Y486935D01*
X324110Y486855D01*
X324028Y486781D01*
X324001Y486740D01*
X323967Y486704D01*
X323914Y486608D01*
X323854Y486516D01*
X323837Y486469D01*
X323813Y486425D01*
X323786Y486319D01*
X323750Y486215D01*
X323746Y486165D01*
X323734Y486117D01*
X323724Y485957D01*
X323724Y408312D01*
X305785Y390373D01*
X305754Y390334D01*
X305717Y390300D01*
X305657Y390209D01*
X305590Y390122D01*
X305570Y390076D01*
X305543Y390035D01*
X305507Y389931D01*
X305463Y389830D01*
X305455Y389781D01*
X305439Y389734D01*
X305431Y389625D01*
X305413Y389516D01*
X305418Y389466D01*
X305414Y389417D01*
X305433Y389309D01*
X305443Y389199D01*
X305460Y389152D01*
X305469Y389103D01*
X305514Y389003D01*
X305551Y388900D01*
X305579Y388859D01*
X305599Y388813D01*
X305668Y388728D01*
X305729Y388637D01*
X305767Y388604D01*
X305798Y388565D01*
X305886Y388499D01*
X305968Y388426D01*
X306012Y388404D01*
X306052Y388374D01*
X306196Y388303D01*
X308094Y387517D01*
X309730Y385881D01*
X310615Y383744D01*
X310615Y381431D01*
X309730Y379294D01*
X308094Y377658D01*
X305957Y376773D01*
X303823Y376773D01*
X303724Y376760D01*
X303625Y376757D01*
X303567Y376741D01*
X303507Y376733D01*
X303415Y376697D01*
X303320Y376669D01*
X303268Y376638D01*
X303211Y376616D01*
X303131Y376558D01*
X303046Y376507D01*
X302971Y376441D01*
X302954Y376429D01*
X302946Y376420D01*
X302925Y376401D01*
X301870Y375346D01*
X301810Y375268D01*
X301742Y375196D01*
X301713Y375143D01*
X301676Y375095D01*
X301636Y375004D01*
X301588Y374918D01*
X301573Y374859D01*
X301549Y374803D01*
X301534Y374705D01*
X301509Y374610D01*
X301503Y374510D01*
X301499Y374489D01*
X301501Y374477D01*
X301499Y374449D01*
X301499Y343800D01*
X301516Y343662D01*
X301529Y343523D01*
X301536Y343504D01*
X301539Y343484D01*
X301590Y343355D01*
X301637Y343224D01*
X301648Y343207D01*
X301656Y343188D01*
X301737Y343076D01*
X301815Y342961D01*
X301831Y342947D01*
X301842Y342931D01*
X301950Y342842D01*
X302054Y342750D01*
X302072Y342741D01*
X302087Y342728D01*
X302213Y342669D01*
X302337Y342606D01*
X302357Y342601D01*
X302375Y342593D01*
X302511Y342567D01*
X302647Y342536D01*
X302668Y342537D01*
X302687Y342533D01*
X302826Y342541D01*
G37*
G36*
X358250Y213945D02*
X358250Y213945D01*
X358388Y213954D01*
X358528Y213958D01*
X358547Y213964D01*
X358567Y213965D01*
X358699Y214008D01*
X358833Y214047D01*
X358851Y214057D01*
X358870Y214063D01*
X358988Y214138D01*
X359107Y214208D01*
X359128Y214227D01*
X359139Y214233D01*
X359153Y214248D01*
X359228Y214315D01*
X360687Y215774D01*
X499738Y215774D01*
X506286Y209225D01*
X506286Y208164D01*
X506299Y208065D01*
X506302Y207966D01*
X506318Y207908D01*
X506326Y207848D01*
X506363Y207756D01*
X506390Y207661D01*
X506421Y207609D01*
X506443Y207552D01*
X506501Y207472D01*
X506552Y207387D01*
X506618Y207312D01*
X506630Y207295D01*
X506639Y207287D01*
X506658Y207266D01*
X510888Y203036D01*
X510966Y202976D01*
X511038Y202908D01*
X511091Y202879D01*
X511139Y202842D01*
X511230Y202802D01*
X511316Y202754D01*
X511375Y202739D01*
X511431Y202715D01*
X511529Y202700D01*
X511624Y202675D01*
X511724Y202669D01*
X511745Y202665D01*
X511757Y202667D01*
X511785Y202665D01*
X513919Y202665D01*
X515896Y201846D01*
X515944Y201833D01*
X515989Y201811D01*
X516097Y201791D01*
X516203Y201762D01*
X516253Y201761D01*
X516302Y201752D01*
X516411Y201759D01*
X516521Y201757D01*
X516569Y201768D01*
X516619Y201771D01*
X516723Y201805D01*
X516830Y201831D01*
X516874Y201854D01*
X516921Y201869D01*
X517014Y201928D01*
X517111Y201980D01*
X517148Y202013D01*
X517190Y202040D01*
X517265Y202120D01*
X517347Y202194D01*
X517374Y202235D01*
X517408Y202271D01*
X517461Y202367D01*
X517521Y202459D01*
X517538Y202506D01*
X517562Y202550D01*
X517589Y202656D01*
X517625Y202760D01*
X517629Y202810D01*
X517641Y202858D01*
X517651Y203018D01*
X517651Y227866D01*
X517636Y227984D01*
X517629Y228103D01*
X517616Y228141D01*
X517611Y228182D01*
X517568Y228292D01*
X517531Y228405D01*
X517509Y228440D01*
X517494Y228477D01*
X517425Y228573D01*
X517361Y228674D01*
X517331Y228702D01*
X517308Y228735D01*
X517216Y228811D01*
X517129Y228892D01*
X517094Y228912D01*
X517063Y228937D01*
X516955Y228988D01*
X516851Y229046D01*
X516811Y229056D01*
X516775Y229073D01*
X516658Y229095D01*
X516543Y229125D01*
X516483Y229129D01*
X516463Y229133D01*
X516442Y229131D01*
X516382Y229135D01*
X516368Y229135D01*
X514231Y230020D01*
X512595Y231656D01*
X511710Y233793D01*
X511710Y236107D01*
X512529Y238084D01*
X512542Y238132D01*
X512564Y238177D01*
X512584Y238284D01*
X512613Y238391D01*
X512614Y238440D01*
X512623Y238489D01*
X512616Y238599D01*
X512618Y238709D01*
X512607Y238757D01*
X512604Y238806D01*
X512570Y238911D01*
X512544Y239018D01*
X512521Y239062D01*
X512506Y239109D01*
X512447Y239202D01*
X512395Y239299D01*
X512362Y239336D01*
X512335Y239378D01*
X512255Y239453D01*
X512181Y239534D01*
X512140Y239562D01*
X512104Y239596D01*
X512008Y239649D01*
X511916Y239709D01*
X511869Y239725D01*
X511825Y239749D01*
X511719Y239777D01*
X511615Y239812D01*
X511565Y239816D01*
X511517Y239829D01*
X511357Y239839D01*
X358330Y239839D01*
X358212Y239824D01*
X358094Y239816D01*
X358055Y239804D01*
X358015Y239799D01*
X357904Y239755D01*
X357791Y239718D01*
X357757Y239697D01*
X357719Y239682D01*
X357623Y239612D01*
X357522Y239548D01*
X357495Y239519D01*
X357462Y239495D01*
X357386Y239403D01*
X357304Y239317D01*
X357285Y239281D01*
X357259Y239250D01*
X357208Y239142D01*
X357151Y239038D01*
X357141Y238999D01*
X357124Y238962D01*
X357101Y238846D01*
X357071Y238730D01*
X357068Y238670D01*
X357064Y238650D01*
X357065Y238630D01*
X357061Y238570D01*
X357061Y215212D01*
X357079Y215075D01*
X357092Y214936D01*
X357099Y214917D01*
X357101Y214896D01*
X357152Y214768D01*
X357199Y214636D01*
X357211Y214620D01*
X357218Y214601D01*
X357300Y214488D01*
X357378Y214373D01*
X357393Y214360D01*
X357405Y214343D01*
X357512Y214255D01*
X357616Y214163D01*
X357634Y214154D01*
X357650Y214141D01*
X357776Y214081D01*
X357900Y214018D01*
X357919Y214014D01*
X357938Y214005D01*
X358074Y213979D01*
X358210Y213949D01*
X358230Y213949D01*
X358250Y213945D01*
G37*
G36*
X259346Y316057D02*
X259346Y316057D01*
X259394Y316068D01*
X259444Y316071D01*
X259548Y316105D01*
X259655Y316131D01*
X259699Y316154D01*
X259746Y316169D01*
X259839Y316228D01*
X259936Y316280D01*
X259973Y316313D01*
X260015Y316340D01*
X260090Y316420D01*
X260172Y316494D01*
X260199Y316535D01*
X260233Y316571D01*
X260286Y316667D01*
X260346Y316759D01*
X260363Y316806D01*
X260387Y316850D01*
X260414Y316956D01*
X260450Y317060D01*
X260454Y317110D01*
X260466Y317158D01*
X260476Y317318D01*
X260476Y330382D01*
X260470Y330431D01*
X260472Y330481D01*
X260450Y330588D01*
X260436Y330697D01*
X260418Y330743D01*
X260408Y330792D01*
X260360Y330891D01*
X260319Y330993D01*
X260290Y331033D01*
X260268Y331078D01*
X260197Y331161D01*
X260133Y331250D01*
X260094Y331282D01*
X260062Y331320D01*
X259972Y331383D01*
X259888Y331453D01*
X259843Y331474D01*
X259802Y331503D01*
X259699Y331542D01*
X259600Y331589D01*
X259551Y331598D01*
X259505Y331615D01*
X259395Y331628D01*
X259288Y331648D01*
X259238Y331645D01*
X259189Y331651D01*
X259080Y331635D01*
X258970Y331629D01*
X258923Y331613D01*
X258874Y331606D01*
X258721Y331554D01*
X256744Y330735D01*
X254431Y330735D01*
X252294Y331620D01*
X250658Y333256D01*
X249773Y335393D01*
X249773Y337527D01*
X249760Y337626D01*
X249757Y337725D01*
X249741Y337783D01*
X249733Y337843D01*
X249696Y337935D01*
X249669Y338030D01*
X249638Y338082D01*
X249616Y338139D01*
X249558Y338219D01*
X249507Y338304D01*
X249441Y338379D01*
X249429Y338396D01*
X249420Y338404D01*
X249401Y338425D01*
X239839Y347987D01*
X239839Y390707D01*
X239833Y390756D01*
X239835Y390806D01*
X239813Y390913D01*
X239799Y391022D01*
X239781Y391068D01*
X239771Y391117D01*
X239722Y391216D01*
X239682Y391318D01*
X239653Y391358D01*
X239631Y391403D01*
X239560Y391486D01*
X239495Y391575D01*
X239457Y391607D01*
X239425Y391645D01*
X239335Y391708D01*
X239250Y391778D01*
X239205Y391799D01*
X239164Y391828D01*
X239062Y391867D01*
X238962Y391914D01*
X238914Y391923D01*
X238867Y391940D01*
X238758Y391953D01*
X238650Y391973D01*
X238601Y391970D01*
X238551Y391976D01*
X238442Y391960D01*
X238333Y391954D01*
X238285Y391938D01*
X238236Y391931D01*
X238084Y391879D01*
X236107Y391060D01*
X234505Y391060D01*
X234387Y391045D01*
X234269Y391038D01*
X234230Y391025D01*
X234190Y391020D01*
X234079Y390977D01*
X233966Y390940D01*
X233932Y390918D01*
X233894Y390903D01*
X233798Y390834D01*
X233697Y390770D01*
X233670Y390740D01*
X233637Y390717D01*
X233561Y390625D01*
X233479Y390538D01*
X233460Y390503D01*
X233434Y390472D01*
X233383Y390364D01*
X233326Y390260D01*
X233316Y390220D01*
X233299Y390184D01*
X233276Y390067D01*
X233246Y389952D01*
X233243Y389892D01*
X233239Y389872D01*
X233240Y389851D01*
X233236Y389791D01*
X233236Y270076D01*
X233249Y269978D01*
X233252Y269879D01*
X233268Y269821D01*
X233276Y269761D01*
X233313Y269668D01*
X233340Y269573D01*
X233371Y269521D01*
X233393Y269465D01*
X233451Y269385D01*
X233502Y269299D01*
X233568Y269224D01*
X233580Y269208D01*
X233589Y269200D01*
X233608Y269179D01*
X247363Y255424D01*
X247441Y255363D01*
X247513Y255295D01*
X247566Y255266D01*
X247614Y255229D01*
X247705Y255190D01*
X247791Y255142D01*
X247850Y255127D01*
X247906Y255103D01*
X248004Y255087D01*
X248099Y255062D01*
X248199Y255056D01*
X248220Y255053D01*
X248232Y255054D01*
X248260Y255052D01*
X250394Y255052D01*
X252531Y254167D01*
X254167Y252531D01*
X255052Y250394D01*
X255052Y248081D01*
X254167Y245944D01*
X252531Y244308D01*
X250394Y243423D01*
X248081Y243423D01*
X245944Y244308D01*
X244308Y245944D01*
X243423Y248081D01*
X243423Y250215D01*
X243410Y250313D01*
X243407Y250412D01*
X243391Y250470D01*
X243383Y250530D01*
X243346Y250623D01*
X243319Y250718D01*
X243288Y250770D01*
X243266Y250826D01*
X243208Y250906D01*
X243157Y250992D01*
X243091Y251067D01*
X243079Y251083D01*
X243070Y251091D01*
X243051Y251112D01*
X230640Y263523D01*
X230531Y263608D01*
X230424Y263697D01*
X230405Y263705D01*
X230389Y263718D01*
X230261Y263773D01*
X230136Y263832D01*
X230116Y263836D01*
X230097Y263844D01*
X229959Y263866D01*
X229823Y263892D01*
X229803Y263891D01*
X229783Y263894D01*
X229644Y263881D01*
X229506Y263872D01*
X229487Y263866D01*
X229467Y263864D01*
X229335Y263817D01*
X229204Y263774D01*
X229186Y263764D01*
X229167Y263757D01*
X229052Y263679D01*
X228935Y263604D01*
X228921Y263589D01*
X228904Y263578D01*
X228812Y263474D01*
X228717Y263373D01*
X228707Y263355D01*
X228694Y263340D01*
X228630Y263216D01*
X228563Y263094D01*
X228558Y263075D01*
X228549Y263056D01*
X228519Y262921D01*
X228484Y262786D01*
X228482Y262758D01*
X228479Y262746D01*
X228480Y262726D01*
X228474Y262625D01*
X228474Y210488D01*
X228486Y210390D01*
X228489Y210291D01*
X228506Y210232D01*
X228514Y210172D01*
X228550Y210080D01*
X228578Y209985D01*
X228608Y209933D01*
X228631Y209877D01*
X228689Y209797D01*
X228739Y209711D01*
X228805Y209636D01*
X228817Y209619D01*
X228827Y209611D01*
X228845Y209590D01*
X230355Y208081D01*
X231140Y206184D01*
X231165Y206141D01*
X231182Y206094D01*
X231244Y206003D01*
X231298Y205908D01*
X231333Y205872D01*
X231360Y205831D01*
X231443Y205758D01*
X231519Y205679D01*
X231562Y205653D01*
X231599Y205620D01*
X231697Y205570D01*
X231790Y205513D01*
X231838Y205498D01*
X231882Y205476D01*
X231989Y205452D01*
X232094Y205419D01*
X232144Y205417D01*
X232192Y205406D01*
X232302Y205409D01*
X232412Y205404D01*
X232461Y205414D01*
X232510Y205416D01*
X232616Y205446D01*
X232723Y205469D01*
X232768Y205490D01*
X232816Y205504D01*
X232910Y205560D01*
X233009Y205608D01*
X233047Y205640D01*
X233090Y205666D01*
X233211Y205772D01*
X277534Y250095D01*
X277577Y250151D01*
X277627Y250199D01*
X277674Y250276D01*
X277729Y250347D01*
X277757Y250411D01*
X277793Y250470D01*
X277819Y250556D01*
X277855Y250638D01*
X277866Y250708D01*
X277887Y250774D01*
X277891Y250864D01*
X277905Y250953D01*
X277898Y251022D01*
X277902Y251092D01*
X277884Y251180D01*
X277875Y251269D01*
X277851Y251335D01*
X277837Y251403D01*
X277798Y251484D01*
X277768Y251568D01*
X277728Y251626D01*
X277698Y251689D01*
X277639Y251757D01*
X277589Y251832D01*
X277537Y251878D01*
X277491Y251931D01*
X277418Y251983D01*
X277351Y252042D01*
X277288Y252074D01*
X277231Y252114D01*
X277147Y252146D01*
X277067Y252187D01*
X276999Y252202D01*
X276934Y252227D01*
X276845Y252237D01*
X276757Y252256D01*
X276687Y252254D01*
X276618Y252262D01*
X276529Y252249D01*
X276439Y252247D01*
X276372Y252227D01*
X276303Y252218D01*
X276151Y252165D01*
X274207Y251360D01*
X271893Y251360D01*
X269756Y252245D01*
X268120Y253881D01*
X267235Y256018D01*
X267235Y258152D01*
X267223Y258251D01*
X267220Y258350D01*
X267203Y258408D01*
X267195Y258468D01*
X267159Y258560D01*
X267131Y258655D01*
X267101Y258707D01*
X267078Y258764D01*
X267020Y258844D01*
X266970Y258929D01*
X266904Y259004D01*
X266892Y259021D01*
X266882Y259029D01*
X266864Y259050D01*
X254696Y271217D01*
X252539Y273375D01*
X252539Y305450D01*
X252526Y305548D01*
X252523Y305647D01*
X252507Y305705D01*
X252499Y305765D01*
X252462Y305857D01*
X252435Y305952D01*
X252404Y306005D01*
X252382Y306061D01*
X252324Y306141D01*
X252273Y306226D01*
X252207Y306302D01*
X252195Y306318D01*
X252186Y306326D01*
X252167Y306347D01*
X250658Y307856D01*
X249773Y309993D01*
X249773Y312307D01*
X250658Y314444D01*
X252294Y316080D01*
X254431Y316965D01*
X256744Y316965D01*
X258721Y316146D01*
X258769Y316133D01*
X258814Y316111D01*
X258922Y316091D01*
X259028Y316062D01*
X259078Y316061D01*
X259127Y316052D01*
X259236Y316059D01*
X259346Y316057D01*
G37*
G36*
X176796Y466869D02*
X176796Y466869D01*
X176844Y466881D01*
X176894Y466884D01*
X176998Y466918D01*
X177105Y466943D01*
X177149Y466967D01*
X177196Y466982D01*
X177289Y467041D01*
X177386Y467092D01*
X177423Y467126D01*
X177465Y467152D01*
X177540Y467232D01*
X177622Y467306D01*
X177649Y467348D01*
X177683Y467384D01*
X177736Y467480D01*
X177796Y467572D01*
X177813Y467619D01*
X177837Y467662D01*
X177864Y467769D01*
X177900Y467873D01*
X177904Y467922D01*
X177916Y467970D01*
X177926Y468131D01*
X177926Y500750D01*
X177909Y500888D01*
X177896Y501027D01*
X177889Y501046D01*
X177886Y501066D01*
X177835Y501195D01*
X177788Y501326D01*
X177777Y501343D01*
X177769Y501362D01*
X177688Y501474D01*
X177610Y501589D01*
X177594Y501603D01*
X177583Y501619D01*
X177475Y501708D01*
X177371Y501800D01*
X177353Y501809D01*
X177338Y501822D01*
X177212Y501881D01*
X177088Y501944D01*
X177068Y501949D01*
X177050Y501957D01*
X176913Y501983D01*
X176778Y502014D01*
X176757Y502013D01*
X176738Y502017D01*
X176599Y502009D01*
X176460Y502004D01*
X176440Y501999D01*
X176420Y501997D01*
X176288Y501955D01*
X176154Y501916D01*
X176137Y501906D01*
X176118Y501899D01*
X176000Y501825D01*
X175880Y501754D01*
X175859Y501736D01*
X175849Y501729D01*
X175835Y501714D01*
X175760Y501648D01*
X173929Y499817D01*
X107786Y433675D01*
X107726Y433597D01*
X107658Y433525D01*
X107629Y433472D01*
X107592Y433424D01*
X107552Y433333D01*
X107504Y433246D01*
X107489Y433187D01*
X107465Y433132D01*
X107450Y433034D01*
X107425Y432938D01*
X107419Y432838D01*
X107415Y432818D01*
X107417Y432805D01*
X107415Y432777D01*
X107415Y430643D01*
X106530Y428506D01*
X105514Y427490D01*
X105429Y427381D01*
X105340Y427274D01*
X105331Y427255D01*
X105319Y427239D01*
X105264Y427112D01*
X105204Y426986D01*
X105201Y426966D01*
X105192Y426947D01*
X105171Y426809D01*
X105145Y426673D01*
X105146Y426653D01*
X105143Y426633D01*
X105156Y426494D01*
X105164Y426356D01*
X105171Y426337D01*
X105172Y426317D01*
X105220Y426185D01*
X105262Y426054D01*
X105273Y426036D01*
X105280Y426017D01*
X105358Y425902D01*
X105432Y425785D01*
X105447Y425771D01*
X105459Y425754D01*
X105563Y425662D01*
X105664Y425567D01*
X105682Y425557D01*
X105697Y425544D01*
X105821Y425481D01*
X105943Y425413D01*
X105962Y425408D01*
X105980Y425399D01*
X106116Y425369D01*
X106251Y425334D01*
X106279Y425332D01*
X106291Y425329D01*
X106311Y425330D01*
X106411Y425324D01*
X113975Y425324D01*
X115761Y423538D01*
X115761Y420038D01*
X115774Y419940D01*
X115777Y419841D01*
X115793Y419782D01*
X115801Y419722D01*
X115837Y419630D01*
X115865Y419535D01*
X115896Y419483D01*
X115918Y419427D01*
X115976Y419346D01*
X116027Y419261D01*
X116093Y419186D01*
X116105Y419169D01*
X116114Y419161D01*
X116133Y419140D01*
X117642Y417631D01*
X118527Y415494D01*
X118527Y413484D01*
X118542Y413366D01*
X118550Y413247D01*
X118562Y413209D01*
X118567Y413168D01*
X118611Y413058D01*
X118648Y412945D01*
X118669Y412910D01*
X118684Y412873D01*
X118754Y412777D01*
X118818Y412676D01*
X118847Y412648D01*
X118871Y412615D01*
X118963Y412539D01*
X119049Y412458D01*
X119085Y412438D01*
X119116Y412413D01*
X119224Y412362D01*
X119328Y412304D01*
X119367Y412294D01*
X119404Y412277D01*
X119520Y412255D01*
X119636Y412225D01*
X119696Y412221D01*
X119716Y412217D01*
X119736Y412219D01*
X119796Y412215D01*
X120040Y412215D01*
X120138Y412227D01*
X120237Y412230D01*
X120295Y412247D01*
X120355Y412255D01*
X120448Y412291D01*
X120543Y412319D01*
X120595Y412349D01*
X120651Y412372D01*
X120731Y412430D01*
X120817Y412480D01*
X120892Y412546D01*
X120908Y412558D01*
X120916Y412568D01*
X120937Y412586D01*
X167190Y458839D01*
X167208Y458862D01*
X167230Y458881D01*
X167305Y458987D01*
X167385Y459090D01*
X167396Y459117D01*
X167413Y459141D01*
X167459Y459263D01*
X167511Y459382D01*
X167515Y459411D01*
X167526Y459439D01*
X167540Y459567D01*
X167561Y459696D01*
X167558Y459725D01*
X167561Y459755D01*
X167543Y459883D01*
X167531Y460012D01*
X167521Y460040D01*
X167517Y460070D01*
X167465Y460222D01*
X167223Y460806D01*
X167223Y463119D01*
X168108Y465256D01*
X169744Y466892D01*
X171881Y467777D01*
X174194Y467777D01*
X176171Y466958D01*
X176219Y466945D01*
X176264Y466924D01*
X176372Y466903D01*
X176478Y466874D01*
X176528Y466874D01*
X176577Y466864D01*
X176686Y466871D01*
X176796Y466869D01*
G37*
%LPC*%
G36*
X607356Y194499D02*
X607356Y194499D01*
X607376Y194505D01*
X607396Y194506D01*
X607528Y194549D01*
X607662Y194588D01*
X607679Y194598D01*
X607698Y194604D01*
X607816Y194678D01*
X607936Y194749D01*
X607957Y194768D01*
X607967Y194774D01*
X607981Y194789D01*
X608056Y194856D01*
X608176Y194975D01*
X608237Y195053D01*
X608305Y195125D01*
X608334Y195178D01*
X608371Y195226D01*
X608410Y195317D01*
X608458Y195404D01*
X608473Y195462D01*
X608497Y195518D01*
X608513Y195616D01*
X608538Y195712D01*
X608544Y195812D01*
X608547Y195832D01*
X608546Y195845D01*
X608548Y195873D01*
X608548Y198007D01*
X609433Y200144D01*
X611069Y201780D01*
X613206Y202665D01*
X615519Y202665D01*
X617496Y201846D01*
X617544Y201833D01*
X617589Y201811D01*
X617697Y201791D01*
X617803Y201762D01*
X617853Y201761D01*
X617902Y201752D01*
X618011Y201759D01*
X618121Y201757D01*
X618169Y201768D01*
X618219Y201771D01*
X618323Y201805D01*
X618430Y201831D01*
X618474Y201854D01*
X618521Y201869D01*
X618614Y201928D01*
X618711Y201980D01*
X618748Y202013D01*
X618790Y202040D01*
X618865Y202120D01*
X618947Y202194D01*
X618974Y202235D01*
X619008Y202271D01*
X619061Y202367D01*
X619121Y202459D01*
X619138Y202506D01*
X619162Y202550D01*
X619189Y202656D01*
X619225Y202760D01*
X619229Y202810D01*
X619241Y202858D01*
X619251Y203018D01*
X619251Y226688D01*
X627226Y234663D01*
X627287Y234741D01*
X627355Y234813D01*
X627384Y234866D01*
X627421Y234914D01*
X627460Y235005D01*
X627508Y235091D01*
X627523Y235150D01*
X627547Y235206D01*
X627563Y235304D01*
X627588Y235399D01*
X627594Y235499D01*
X627597Y235520D01*
X627596Y235532D01*
X627598Y235560D01*
X627598Y237694D01*
X628483Y239831D01*
X630119Y241467D01*
X632256Y242352D01*
X634569Y242352D01*
X636706Y241467D01*
X638342Y239831D01*
X639227Y237694D01*
X639227Y235381D01*
X638342Y233244D01*
X636706Y231608D01*
X634569Y230723D01*
X632435Y230723D01*
X632337Y230710D01*
X632238Y230707D01*
X632180Y230691D01*
X632120Y230683D01*
X632027Y230646D01*
X631932Y230619D01*
X631880Y230588D01*
X631824Y230566D01*
X631744Y230508D01*
X631658Y230457D01*
X631583Y230391D01*
X631567Y230379D01*
X631559Y230370D01*
X631538Y230351D01*
X625720Y224534D01*
X625660Y224456D01*
X625592Y224384D01*
X625563Y224331D01*
X625526Y224283D01*
X625486Y224192D01*
X625438Y224105D01*
X625423Y224046D01*
X625399Y223991D01*
X625384Y223893D01*
X625359Y223797D01*
X625353Y223697D01*
X625349Y223677D01*
X625351Y223664D01*
X625349Y223636D01*
X625349Y151658D01*
X625352Y151629D01*
X625350Y151599D01*
X625372Y151471D01*
X625389Y151342D01*
X625399Y151315D01*
X625404Y151286D01*
X625458Y151167D01*
X625506Y151047D01*
X625523Y151023D01*
X625535Y150996D01*
X625616Y150894D01*
X625692Y150789D01*
X625715Y150770D01*
X625734Y150747D01*
X625837Y150669D01*
X625937Y150586D01*
X625964Y150574D01*
X625988Y150556D01*
X626132Y150485D01*
X628775Y149391D01*
X631991Y146175D01*
X633731Y141974D01*
X633731Y137426D01*
X631991Y133225D01*
X628775Y130009D01*
X624574Y128269D01*
X620026Y128269D01*
X615825Y130009D01*
X612609Y133225D01*
X610869Y137426D01*
X610869Y141974D01*
X612609Y146175D01*
X615825Y149391D01*
X618468Y150485D01*
X618493Y150500D01*
X618521Y150509D01*
X618631Y150578D01*
X618744Y150643D01*
X618765Y150663D01*
X618790Y150679D01*
X618879Y150774D01*
X618972Y150864D01*
X618988Y150889D01*
X619008Y150911D01*
X619071Y151024D01*
X619139Y151135D01*
X619147Y151163D01*
X619162Y151189D01*
X619194Y151315D01*
X619232Y151439D01*
X619234Y151469D01*
X619241Y151497D01*
X619251Y151658D01*
X619251Y190682D01*
X619245Y190731D01*
X619247Y190781D01*
X619225Y190888D01*
X619211Y190997D01*
X619193Y191043D01*
X619183Y191092D01*
X619135Y191191D01*
X619094Y191293D01*
X619065Y191333D01*
X619043Y191378D01*
X618972Y191461D01*
X618908Y191550D01*
X618869Y191582D01*
X618837Y191620D01*
X618747Y191683D01*
X618663Y191753D01*
X618618Y191774D01*
X618577Y191803D01*
X618474Y191842D01*
X618375Y191889D01*
X618326Y191898D01*
X618280Y191915D01*
X618170Y191928D01*
X618063Y191948D01*
X618013Y191945D01*
X617964Y191951D01*
X617855Y191935D01*
X617745Y191929D01*
X617698Y191913D01*
X617649Y191906D01*
X617496Y191854D01*
X615519Y191035D01*
X613385Y191035D01*
X613287Y191023D01*
X613188Y191020D01*
X613130Y191003D01*
X613070Y190995D01*
X612977Y190959D01*
X612882Y190931D01*
X612830Y190901D01*
X612774Y190878D01*
X612694Y190820D01*
X612608Y190770D01*
X612533Y190704D01*
X612516Y190692D01*
X612509Y190682D01*
X612488Y190664D01*
X608827Y187003D01*
X608754Y186909D01*
X608676Y186820D01*
X608657Y186784D01*
X608632Y186752D01*
X608585Y186643D01*
X608531Y186537D01*
X608522Y186497D01*
X608506Y186460D01*
X608487Y186342D01*
X608461Y186226D01*
X608463Y186186D01*
X608456Y186146D01*
X608467Y186028D01*
X608471Y185909D01*
X608482Y185870D01*
X608486Y185830D01*
X608526Y185717D01*
X608559Y185603D01*
X608580Y185568D01*
X608594Y185530D01*
X608661Y185432D01*
X608721Y185329D01*
X608761Y185284D01*
X608772Y185267D01*
X608788Y185254D01*
X608827Y185208D01*
X609767Y184269D01*
X610652Y182132D01*
X610652Y179818D01*
X609767Y177681D01*
X608131Y176045D01*
X605994Y175160D01*
X603681Y175160D01*
X601704Y175979D01*
X601656Y175992D01*
X601611Y176014D01*
X601503Y176034D01*
X601397Y176063D01*
X601347Y176064D01*
X601298Y176073D01*
X601189Y176066D01*
X601079Y176068D01*
X601031Y176057D01*
X600981Y176054D01*
X600877Y176020D01*
X600770Y175994D01*
X600726Y175971D01*
X600679Y175956D01*
X600586Y175897D01*
X600489Y175845D01*
X600452Y175812D01*
X600410Y175785D01*
X600335Y175705D01*
X600253Y175631D01*
X600226Y175590D01*
X600192Y175554D01*
X600139Y175458D01*
X600079Y175366D01*
X600062Y175319D01*
X600038Y175275D01*
X600011Y175169D01*
X599975Y175065D01*
X599971Y175015D01*
X599959Y174967D01*
X599949Y174807D01*
X599949Y151658D01*
X599952Y151629D01*
X599950Y151599D01*
X599972Y151471D01*
X599989Y151342D01*
X599999Y151315D01*
X600004Y151286D01*
X600058Y151167D01*
X600106Y151047D01*
X600123Y151023D01*
X600135Y150996D01*
X600216Y150894D01*
X600292Y150789D01*
X600315Y150770D01*
X600334Y150747D01*
X600437Y150669D01*
X600537Y150586D01*
X600564Y150574D01*
X600588Y150556D01*
X600732Y150485D01*
X603375Y149391D01*
X606591Y146175D01*
X608331Y141974D01*
X608331Y137426D01*
X606591Y133225D01*
X603375Y130009D01*
X599174Y128269D01*
X594626Y128269D01*
X590425Y130009D01*
X587209Y133225D01*
X585469Y137426D01*
X585469Y141974D01*
X587209Y146175D01*
X590425Y149391D01*
X593068Y150485D01*
X593093Y150500D01*
X593121Y150509D01*
X593231Y150578D01*
X593344Y150643D01*
X593365Y150663D01*
X593390Y150679D01*
X593479Y150774D01*
X593572Y150864D01*
X593588Y150889D01*
X593608Y150911D01*
X593671Y151024D01*
X593739Y151135D01*
X593747Y151163D01*
X593762Y151189D01*
X593794Y151315D01*
X593832Y151439D01*
X593834Y151469D01*
X593841Y151497D01*
X593851Y151658D01*
X593851Y194938D01*
X593889Y194975D01*
X593949Y195053D01*
X594017Y195125D01*
X594046Y195178D01*
X594083Y195226D01*
X594123Y195317D01*
X594171Y195404D01*
X594186Y195463D01*
X594210Y195518D01*
X594225Y195616D01*
X594250Y195712D01*
X594256Y195812D01*
X594260Y195832D01*
X594258Y195845D01*
X594260Y195873D01*
X594260Y198007D01*
X595145Y200144D01*
X596781Y201780D01*
X598918Y202665D01*
X601232Y202665D01*
X603369Y201780D01*
X605005Y200144D01*
X605890Y198007D01*
X605890Y195753D01*
X605907Y195615D01*
X605920Y195477D01*
X605927Y195458D01*
X605930Y195437D01*
X605981Y195308D01*
X606028Y195177D01*
X606039Y195161D01*
X606047Y195142D01*
X606128Y195029D01*
X606206Y194914D01*
X606222Y194901D01*
X606233Y194884D01*
X606341Y194796D01*
X606445Y194704D01*
X606463Y194695D01*
X606478Y194682D01*
X606604Y194622D01*
X606728Y194559D01*
X606748Y194555D01*
X606766Y194546D01*
X606902Y194520D01*
X607038Y194490D01*
X607059Y194490D01*
X607078Y194486D01*
X607217Y194495D01*
X607356Y194499D01*
G37*
%LPD*%
G36*
X120205Y195136D02*
X120205Y195136D01*
X133795Y195136D01*
X133913Y195151D01*
X134031Y195159D01*
X134070Y195171D01*
X134110Y195176D01*
X134221Y195220D01*
X134334Y195257D01*
X134368Y195278D01*
X134406Y195293D01*
X134502Y195363D01*
X134603Y195427D01*
X134630Y195456D01*
X134663Y195480D01*
X134739Y195572D01*
X134821Y195658D01*
X134840Y195694D01*
X134866Y195725D01*
X134917Y195833D01*
X134974Y195937D01*
X134984Y195976D01*
X135001Y196013D01*
X135024Y196129D01*
X135054Y196245D01*
X135057Y196305D01*
X135061Y196325D01*
X135060Y196345D01*
X135064Y196405D01*
X135064Y257357D01*
X135058Y257406D01*
X135060Y257456D01*
X135038Y257563D01*
X135024Y257672D01*
X135006Y257718D01*
X134996Y257767D01*
X134947Y257866D01*
X134907Y257968D01*
X134878Y258008D01*
X134856Y258053D01*
X134785Y258136D01*
X134720Y258225D01*
X134682Y258257D01*
X134650Y258295D01*
X134560Y258358D01*
X134475Y258428D01*
X134430Y258449D01*
X134389Y258478D01*
X134287Y258517D01*
X134187Y258564D01*
X134139Y258573D01*
X134092Y258590D01*
X133983Y258603D01*
X133875Y258623D01*
X133826Y258620D01*
X133776Y258626D01*
X133667Y258610D01*
X133558Y258604D01*
X133510Y258588D01*
X133461Y258581D01*
X133309Y258529D01*
X131332Y257710D01*
X129018Y257710D01*
X126881Y258595D01*
X125245Y260231D01*
X124360Y262368D01*
X124360Y264682D01*
X125245Y266819D01*
X126755Y268328D01*
X126815Y268406D01*
X126883Y268478D01*
X126912Y268531D01*
X126949Y268579D01*
X126989Y268670D01*
X127037Y268757D01*
X127052Y268815D01*
X127076Y268871D01*
X127091Y268969D01*
X127116Y269065D01*
X127122Y269165D01*
X127126Y269185D01*
X127124Y269197D01*
X127126Y269225D01*
X127126Y355399D01*
X127114Y355497D01*
X127111Y355596D01*
X127094Y355654D01*
X127086Y355714D01*
X127050Y355807D01*
X127022Y355902D01*
X126992Y355954D01*
X126969Y356010D01*
X126911Y356090D01*
X126861Y356176D01*
X126795Y356251D01*
X126783Y356267D01*
X126773Y356275D01*
X126755Y356296D01*
X121103Y361948D01*
X120993Y362033D01*
X120886Y362122D01*
X120868Y362130D01*
X120852Y362143D01*
X120724Y362198D01*
X120598Y362257D01*
X120579Y362261D01*
X120560Y362269D01*
X120422Y362291D01*
X120286Y362317D01*
X120266Y362316D01*
X120246Y362319D01*
X120107Y362306D01*
X119969Y362297D01*
X119949Y362291D01*
X119929Y362289D01*
X119798Y362242D01*
X119666Y362199D01*
X119649Y362189D01*
X119630Y362182D01*
X119515Y362104D01*
X119397Y362029D01*
X119383Y362014D01*
X119367Y362003D01*
X119275Y361899D01*
X119179Y361798D01*
X119170Y361780D01*
X119156Y361765D01*
X119093Y361641D01*
X119026Y361519D01*
X119021Y361500D01*
X119012Y361481D01*
X118981Y361346D01*
X118946Y361211D01*
X118945Y361183D01*
X118942Y361171D01*
X118943Y361151D01*
X118936Y361050D01*
X118936Y196405D01*
X118951Y196287D01*
X118959Y196169D01*
X118971Y196130D01*
X118976Y196090D01*
X119020Y195979D01*
X119057Y195866D01*
X119078Y195832D01*
X119093Y195794D01*
X119163Y195698D01*
X119227Y195597D01*
X119256Y195570D01*
X119280Y195537D01*
X119372Y195461D01*
X119458Y195379D01*
X119494Y195360D01*
X119525Y195334D01*
X119633Y195283D01*
X119737Y195226D01*
X119776Y195216D01*
X119813Y195199D01*
X119929Y195176D01*
X120045Y195146D01*
X120105Y195143D01*
X120125Y195139D01*
X120145Y195140D01*
X120205Y195136D01*
G37*
%LPC*%
G36*
X74056Y286619D02*
X74056Y286619D01*
X67749Y289232D01*
X62922Y294059D01*
X60309Y300366D01*
X60309Y307194D01*
X62922Y313501D01*
X67749Y318328D01*
X74056Y320941D01*
X80884Y320941D01*
X87191Y318328D01*
X92018Y313501D01*
X94631Y307194D01*
X94631Y300366D01*
X92018Y294059D01*
X87191Y289232D01*
X80884Y286619D01*
X74056Y286619D01*
G37*
%LPD*%
%LPC*%
G36*
X340156Y538698D02*
X340156Y538698D01*
X338019Y539583D01*
X336383Y541219D01*
X335498Y543356D01*
X335498Y545669D01*
X336383Y547806D01*
X338019Y549442D01*
X339068Y549877D01*
X339093Y549891D01*
X339121Y549900D01*
X339231Y549970D01*
X339344Y550034D01*
X339365Y550055D01*
X339390Y550070D01*
X339479Y550165D01*
X339572Y550255D01*
X339588Y550280D01*
X339608Y550302D01*
X339671Y550416D01*
X339739Y550526D01*
X339747Y550555D01*
X339762Y550581D01*
X339794Y550706D01*
X339832Y550830D01*
X339834Y550860D01*
X339841Y550888D01*
X339851Y551049D01*
X339851Y610342D01*
X339848Y610371D01*
X339850Y610401D01*
X339828Y610529D01*
X339811Y610658D01*
X339801Y610685D01*
X339796Y610714D01*
X339742Y610833D01*
X339694Y610953D01*
X339677Y610977D01*
X339665Y611004D01*
X339584Y611106D01*
X339508Y611211D01*
X339485Y611230D01*
X339466Y611253D01*
X339363Y611331D01*
X339263Y611414D01*
X339236Y611426D01*
X339212Y611444D01*
X339068Y611515D01*
X336425Y612609D01*
X333209Y615825D01*
X331469Y620026D01*
X331469Y624574D01*
X333209Y628775D01*
X336425Y631991D01*
X340626Y633731D01*
X345174Y633731D01*
X349375Y631991D01*
X352591Y628775D01*
X354331Y624574D01*
X354331Y620026D01*
X352591Y615825D01*
X349375Y612609D01*
X346732Y611515D01*
X346707Y611500D01*
X346679Y611491D01*
X346569Y611422D01*
X346456Y611357D01*
X346435Y611337D01*
X346410Y611321D01*
X346321Y611226D01*
X346228Y611136D01*
X346212Y611111D01*
X346192Y611089D01*
X346129Y610976D01*
X346061Y610865D01*
X346053Y610837D01*
X346038Y610811D01*
X346006Y610685D01*
X345968Y610561D01*
X345966Y610531D01*
X345959Y610503D01*
X345949Y610342D01*
X345949Y548625D01*
X345961Y548527D01*
X345964Y548428D01*
X345981Y548370D01*
X345989Y548310D01*
X346025Y548218D01*
X346053Y548123D01*
X346083Y548070D01*
X346106Y548014D01*
X346164Y547934D01*
X346214Y547849D01*
X346234Y547826D01*
X347127Y545669D01*
X347127Y543356D01*
X346242Y541219D01*
X344606Y539583D01*
X342469Y538698D01*
X340156Y538698D01*
G37*
%LPD*%
%LPC*%
G36*
X569226Y128269D02*
X569226Y128269D01*
X565025Y130009D01*
X561809Y133225D01*
X560069Y137426D01*
X560069Y141974D01*
X561809Y146175D01*
X565025Y149391D01*
X567668Y150485D01*
X567693Y150500D01*
X567721Y150509D01*
X567831Y150578D01*
X567944Y150643D01*
X567965Y150663D01*
X567990Y150679D01*
X568079Y150774D01*
X568172Y150864D01*
X568188Y150889D01*
X568208Y150911D01*
X568271Y151024D01*
X568339Y151135D01*
X568347Y151163D01*
X568362Y151189D01*
X568394Y151315D01*
X568432Y151439D01*
X568434Y151469D01*
X568441Y151497D01*
X568451Y151658D01*
X568451Y183949D01*
X568439Y184047D01*
X568436Y184146D01*
X568419Y184204D01*
X568411Y184264D01*
X568375Y184357D01*
X568347Y184452D01*
X568317Y184504D01*
X568294Y184560D01*
X568236Y184640D01*
X568186Y184726D01*
X568120Y184801D01*
X568108Y184817D01*
X568098Y184825D01*
X568080Y184846D01*
X562262Y190664D01*
X562184Y190724D01*
X562112Y190792D01*
X562059Y190821D01*
X562011Y190858D01*
X561920Y190898D01*
X561834Y190946D01*
X561775Y190961D01*
X561719Y190985D01*
X561621Y191000D01*
X561526Y191025D01*
X561426Y191031D01*
X561405Y191035D01*
X561393Y191033D01*
X561365Y191035D01*
X559231Y191035D01*
X557094Y191920D01*
X555458Y193556D01*
X554573Y195693D01*
X554573Y198007D01*
X555458Y200144D01*
X557094Y201780D01*
X559231Y202665D01*
X561544Y202665D01*
X563681Y201780D01*
X565317Y200144D01*
X566202Y198007D01*
X566202Y195873D01*
X566215Y195774D01*
X566218Y195675D01*
X566234Y195617D01*
X566242Y195557D01*
X566279Y195465D01*
X566306Y195370D01*
X566337Y195318D01*
X566359Y195261D01*
X566417Y195181D01*
X566468Y195096D01*
X566534Y195021D01*
X566546Y195004D01*
X566555Y194996D01*
X566574Y194975D01*
X574549Y187000D01*
X574549Y151658D01*
X574552Y151629D01*
X574550Y151599D01*
X574572Y151471D01*
X574589Y151342D01*
X574599Y151315D01*
X574604Y151286D01*
X574658Y151167D01*
X574706Y151047D01*
X574723Y151023D01*
X574735Y150996D01*
X574816Y150894D01*
X574892Y150789D01*
X574915Y150770D01*
X574934Y150747D01*
X575037Y150669D01*
X575137Y150586D01*
X575164Y150574D01*
X575188Y150556D01*
X575332Y150485D01*
X577975Y149391D01*
X581191Y146175D01*
X582931Y141974D01*
X582931Y137426D01*
X581191Y133225D01*
X577975Y130009D01*
X573774Y128269D01*
X569226Y128269D01*
G37*
%LPD*%
%LPC*%
G36*
X762266Y128269D02*
X762266Y128269D01*
X758065Y130009D01*
X754849Y133225D01*
X753109Y137426D01*
X753109Y141974D01*
X754849Y146175D01*
X758065Y149391D01*
X762266Y151131D01*
X766814Y151131D01*
X771015Y149391D01*
X774231Y146175D01*
X775971Y141974D01*
X775971Y137426D01*
X774231Y133225D01*
X771015Y130009D01*
X766814Y128269D01*
X762266Y128269D01*
G37*
%LPD*%
%LPC*%
G36*
X569226Y610869D02*
X569226Y610869D01*
X565025Y612609D01*
X561809Y615825D01*
X560069Y620026D01*
X560069Y624574D01*
X561809Y628775D01*
X565025Y631991D01*
X569226Y633731D01*
X573774Y633731D01*
X577975Y631991D01*
X581191Y628775D01*
X582931Y624574D01*
X582931Y620026D01*
X581191Y615825D01*
X577975Y612609D01*
X573774Y610869D01*
X569226Y610869D01*
G37*
%LPD*%
%LPC*%
G36*
X660666Y128269D02*
X660666Y128269D01*
X656465Y130009D01*
X653249Y133225D01*
X651509Y137426D01*
X651509Y141974D01*
X653249Y146175D01*
X656465Y149391D01*
X660666Y151131D01*
X665214Y151131D01*
X669415Y149391D01*
X672631Y146175D01*
X674371Y141974D01*
X674371Y137426D01*
X672631Y133225D01*
X669415Y130009D01*
X665214Y128269D01*
X660666Y128269D01*
G37*
%LPD*%
%LPC*%
G36*
X686066Y128269D02*
X686066Y128269D01*
X681865Y130009D01*
X678649Y133225D01*
X676909Y137426D01*
X676909Y141974D01*
X678649Y146175D01*
X681865Y149391D01*
X686066Y151131D01*
X690614Y151131D01*
X694815Y149391D01*
X698031Y146175D01*
X699771Y141974D01*
X699771Y137426D01*
X698031Y133225D01*
X694815Y130009D01*
X690614Y128269D01*
X686066Y128269D01*
G37*
%LPD*%
%LPC*%
G36*
X543826Y610869D02*
X543826Y610869D01*
X539625Y612609D01*
X536409Y615825D01*
X534669Y620026D01*
X534669Y624574D01*
X536409Y628775D01*
X539625Y631991D01*
X543826Y633731D01*
X548374Y633731D01*
X552575Y631991D01*
X555791Y628775D01*
X557531Y624574D01*
X557531Y620026D01*
X555791Y615825D01*
X552575Y612609D01*
X548374Y610869D01*
X543826Y610869D01*
G37*
%LPD*%
%LPC*%
G36*
X711466Y128269D02*
X711466Y128269D01*
X707265Y130009D01*
X704049Y133225D01*
X702309Y137426D01*
X702309Y141974D01*
X704049Y146175D01*
X707265Y149391D01*
X711466Y151131D01*
X716014Y151131D01*
X720215Y149391D01*
X723431Y146175D01*
X725171Y141974D01*
X725171Y137426D01*
X723431Y133225D01*
X720215Y130009D01*
X716014Y128269D01*
X711466Y128269D01*
G37*
%LPD*%
%LPC*%
G36*
X736866Y128269D02*
X736866Y128269D01*
X732665Y130009D01*
X729449Y133225D01*
X727709Y137426D01*
X727709Y141974D01*
X729449Y146175D01*
X732665Y149391D01*
X736866Y151131D01*
X741414Y151131D01*
X745615Y149391D01*
X748831Y146175D01*
X750571Y141974D01*
X750571Y137426D01*
X748831Y133225D01*
X745615Y130009D01*
X741414Y128269D01*
X736866Y128269D01*
G37*
%LPD*%
%LPC*%
G36*
X391426Y610869D02*
X391426Y610869D01*
X387225Y612609D01*
X384009Y615825D01*
X382269Y620026D01*
X382269Y624574D01*
X384009Y628775D01*
X387225Y631991D01*
X391426Y633731D01*
X395974Y633731D01*
X400175Y631991D01*
X403391Y628775D01*
X405131Y624574D01*
X405131Y620026D01*
X403391Y615825D01*
X400175Y612609D01*
X395974Y610869D01*
X391426Y610869D01*
G37*
%LPD*%
%LPC*%
G36*
X467626Y610869D02*
X467626Y610869D01*
X463425Y612609D01*
X460209Y615825D01*
X458469Y620026D01*
X458469Y624574D01*
X460209Y628775D01*
X463425Y631991D01*
X467626Y633731D01*
X472174Y633731D01*
X476375Y631991D01*
X479591Y628775D01*
X481331Y624574D01*
X481331Y620026D01*
X479591Y615825D01*
X476375Y612609D01*
X472174Y610869D01*
X467626Y610869D01*
G37*
%LPD*%
%LPC*%
G36*
X315226Y610869D02*
X315226Y610869D01*
X311025Y612609D01*
X307809Y615825D01*
X306069Y620026D01*
X306069Y624574D01*
X307809Y628775D01*
X311025Y631991D01*
X315226Y633731D01*
X319774Y633731D01*
X323975Y631991D01*
X327191Y628775D01*
X328931Y624574D01*
X328931Y620026D01*
X327191Y615825D01*
X323975Y612609D01*
X319774Y610869D01*
X315226Y610869D01*
G37*
%LPD*%
%LPC*%
G36*
X518426Y610869D02*
X518426Y610869D01*
X514225Y612609D01*
X511009Y615825D01*
X509269Y620026D01*
X509269Y624574D01*
X511009Y628775D01*
X514225Y631991D01*
X518426Y633731D01*
X522974Y633731D01*
X527175Y631991D01*
X530391Y628775D01*
X532131Y624574D01*
X532131Y620026D01*
X530391Y615825D01*
X527175Y612609D01*
X522974Y610869D01*
X518426Y610869D01*
G37*
%LPD*%
%LPC*%
G36*
X327456Y213260D02*
X327456Y213260D01*
X325319Y214145D01*
X323683Y215781D01*
X322798Y217918D01*
X322798Y220232D01*
X323683Y222369D01*
X325319Y224005D01*
X327456Y224890D01*
X329590Y224890D01*
X329688Y224902D01*
X329787Y224905D01*
X329845Y224922D01*
X329905Y224930D01*
X329998Y224966D01*
X330093Y224994D01*
X330145Y225024D01*
X330201Y225047D01*
X330281Y225105D01*
X330367Y225155D01*
X330442Y225221D01*
X330458Y225233D01*
X330466Y225243D01*
X330487Y225261D01*
X337892Y232666D01*
X337953Y232744D01*
X338021Y232816D01*
X338050Y232869D01*
X338087Y232917D01*
X338126Y233008D01*
X338174Y233095D01*
X338189Y233154D01*
X338213Y233209D01*
X338229Y233307D01*
X338254Y233403D01*
X338260Y233503D01*
X338263Y233523D01*
X338262Y233536D01*
X338264Y233564D01*
X338264Y234012D01*
X338251Y234110D01*
X338248Y234209D01*
X338232Y234268D01*
X338224Y234328D01*
X338187Y234420D01*
X338160Y234515D01*
X338129Y234567D01*
X338107Y234623D01*
X338049Y234703D01*
X337998Y234789D01*
X337932Y234864D01*
X337920Y234881D01*
X337911Y234889D01*
X337892Y234910D01*
X336383Y236419D01*
X335498Y238556D01*
X335498Y240869D01*
X336383Y243006D01*
X338019Y244642D01*
X340156Y245527D01*
X342469Y245527D01*
X344606Y244642D01*
X346242Y243006D01*
X347127Y240869D01*
X347127Y238556D01*
X346242Y236419D01*
X344733Y234910D01*
X344672Y234831D01*
X344604Y234759D01*
X344575Y234706D01*
X344538Y234658D01*
X344499Y234567D01*
X344451Y234481D01*
X344436Y234422D01*
X344412Y234367D01*
X344396Y234269D01*
X344371Y234173D01*
X344365Y234073D01*
X344362Y234052D01*
X344363Y234040D01*
X344361Y234012D01*
X344361Y230512D01*
X334799Y220950D01*
X334738Y220872D01*
X334670Y220800D01*
X334641Y220747D01*
X334604Y220699D01*
X334565Y220608D01*
X334517Y220521D01*
X334502Y220462D01*
X334478Y220407D01*
X334462Y220309D01*
X334437Y220213D01*
X334431Y220113D01*
X334428Y220093D01*
X334429Y220080D01*
X334427Y220052D01*
X334427Y217918D01*
X333542Y215781D01*
X331906Y214145D01*
X329769Y213260D01*
X327456Y213260D01*
G37*
%LPD*%
%LPC*%
G36*
X116839Y574039D02*
X116839Y574039D01*
X116839Y583185D01*
X117096Y583145D01*
X118883Y582564D01*
X120557Y581711D01*
X122078Y580606D01*
X123406Y579278D01*
X124511Y577757D01*
X125364Y576083D01*
X125793Y574763D01*
X125827Y574691D01*
X125851Y574615D01*
X125894Y574548D01*
X125928Y574475D01*
X125979Y574414D01*
X126022Y574347D01*
X126080Y574292D01*
X126131Y574230D01*
X126195Y574183D01*
X126253Y574129D01*
X126324Y574090D01*
X126388Y574043D01*
X126399Y574039D01*
X116839Y574039D01*
G37*
%LPD*%
%LPC*%
G36*
X136904Y559855D02*
X136904Y559855D01*
X135117Y560436D01*
X133443Y561289D01*
X131922Y562394D01*
X130594Y563722D01*
X129489Y565243D01*
X128636Y566917D01*
X128207Y568237D01*
X128173Y568309D01*
X128149Y568385D01*
X128106Y568452D01*
X128072Y568525D01*
X128021Y568586D01*
X127978Y568653D01*
X127920Y568708D01*
X127869Y568770D01*
X127805Y568817D01*
X127747Y568871D01*
X127677Y568910D01*
X127612Y568957D01*
X127602Y568961D01*
X137161Y568961D01*
X137161Y559815D01*
X136904Y559855D01*
G37*
%LPD*%
%LPC*%
G36*
X670304Y610655D02*
X670304Y610655D01*
X668517Y611236D01*
X666843Y612089D01*
X665322Y613194D01*
X663994Y614522D01*
X662889Y616043D01*
X662036Y617717D01*
X661607Y619037D01*
X661573Y619109D01*
X661549Y619185D01*
X661506Y619252D01*
X661472Y619325D01*
X661421Y619386D01*
X661378Y619453D01*
X661320Y619508D01*
X661269Y619570D01*
X661205Y619617D01*
X661147Y619671D01*
X661077Y619710D01*
X661012Y619757D01*
X661002Y619761D01*
X670561Y619761D01*
X670561Y610615D01*
X670304Y610655D01*
G37*
%LPD*%
%LPC*%
G36*
X116839Y568961D02*
X116839Y568961D01*
X126398Y568961D01*
X126389Y568957D01*
X126325Y568911D01*
X126255Y568872D01*
X126197Y568818D01*
X126132Y568771D01*
X126081Y568709D01*
X126023Y568655D01*
X125980Y568587D01*
X125929Y568526D01*
X125895Y568454D01*
X125852Y568387D01*
X125794Y568239D01*
X125793Y568238D01*
X125793Y568237D01*
X125364Y566917D01*
X124511Y565243D01*
X123406Y563722D01*
X122078Y562394D01*
X120557Y561289D01*
X118883Y560436D01*
X117096Y559855D01*
X116839Y559815D01*
X116839Y568961D01*
G37*
%LPD*%
%LPC*%
G36*
X650239Y619761D02*
X650239Y619761D01*
X659798Y619761D01*
X659789Y619757D01*
X659725Y619711D01*
X659655Y619672D01*
X659597Y619618D01*
X659532Y619571D01*
X659481Y619509D01*
X659423Y619455D01*
X659380Y619387D01*
X659329Y619326D01*
X659295Y619254D01*
X659252Y619187D01*
X659194Y619040D01*
X659193Y619038D01*
X659193Y619037D01*
X658764Y617717D01*
X657911Y616043D01*
X656806Y614522D01*
X655478Y613194D01*
X653957Y612089D01*
X652283Y611236D01*
X650496Y610655D01*
X650239Y610615D01*
X650239Y619761D01*
G37*
%LPD*%
%LPC*%
G36*
X127602Y574039D02*
X127602Y574039D01*
X127611Y574043D01*
X127675Y574089D01*
X127745Y574128D01*
X127803Y574182D01*
X127868Y574229D01*
X127919Y574291D01*
X127977Y574345D01*
X128020Y574413D01*
X128071Y574474D01*
X128105Y574546D01*
X128148Y574613D01*
X128206Y574760D01*
X128207Y574762D01*
X128207Y574763D01*
X128583Y575921D01*
X128584Y575922D01*
X128636Y576083D01*
X129489Y577757D01*
X130594Y579278D01*
X131922Y580606D01*
X133443Y581711D01*
X135117Y582564D01*
X136904Y583145D01*
X137161Y583185D01*
X137161Y574039D01*
X127602Y574039D01*
G37*
%LPD*%
%LPC*%
G36*
X102615Y574039D02*
X102615Y574039D01*
X102655Y574296D01*
X103236Y576083D01*
X104089Y577757D01*
X105194Y579278D01*
X106522Y580606D01*
X108043Y581711D01*
X109717Y582564D01*
X111504Y583145D01*
X111761Y583185D01*
X111761Y574039D01*
X102615Y574039D01*
G37*
%LPD*%
%LPC*%
G36*
X111504Y559855D02*
X111504Y559855D01*
X109717Y560436D01*
X108043Y561289D01*
X106522Y562394D01*
X105194Y563722D01*
X104089Y565243D01*
X103236Y566917D01*
X102655Y568704D01*
X102615Y568961D01*
X111761Y568961D01*
X111761Y559815D01*
X111504Y559855D01*
G37*
%LPD*%
%LPC*%
G36*
X114299Y571499D02*
X114299Y571499D01*
X114299Y571501D01*
X114301Y571501D01*
X114301Y571499D01*
X114299Y571499D01*
G37*
%LPD*%
D10*
X7470Y493580D03*
X7470Y303980D03*
D11*
X317500Y622300D03*
X292100Y622300D03*
X266700Y622300D03*
X241300Y622300D03*
X215900Y622300D03*
X190500Y622300D03*
X165100Y622300D03*
X342900Y622300D03*
X368300Y139700D03*
X342900Y139700D03*
X317500Y139700D03*
X292100Y139700D03*
X266700Y139700D03*
X241300Y139700D03*
X215900Y139700D03*
X393700Y139700D03*
X546100Y622300D03*
X520700Y622300D03*
X495300Y622300D03*
X469900Y622300D03*
X444500Y622300D03*
X419100Y622300D03*
X393700Y622300D03*
X571500Y622300D03*
X596900Y139700D03*
X571500Y139700D03*
X546100Y139700D03*
X520700Y139700D03*
X495300Y139700D03*
X469900Y139700D03*
X444500Y139700D03*
X622300Y139700D03*
X815340Y139700D03*
X789940Y139700D03*
X764540Y139700D03*
X739140Y139700D03*
X713740Y139700D03*
X688340Y139700D03*
X662940Y139700D03*
X840740Y139700D03*
X139700Y571500D03*
X114300Y571500D03*
X139700Y139700D03*
X114300Y139700D03*
X749300Y622300D03*
X723900Y622300D03*
X698500Y622300D03*
X673100Y622300D03*
X647700Y622300D03*
X622300Y622300D03*
D12*
X234950Y396875D02*
X209550Y422275D01*
X250825Y419100D02*
X250825Y396875D01*
X250825Y419100D02*
X255588Y423863D01*
X293688Y423863D01*
X293688Y414338D01*
D13*
X209550Y422275D03*
X234950Y396875D03*
X250825Y396875D03*
X293688Y414338D03*
D12*
X512763Y512763D02*
X512763Y568325D01*
X512763Y512763D02*
X309563Y309563D01*
X217488Y274638D02*
X150813Y341313D01*
X217488Y274638D02*
X217488Y214313D01*
X307975Y214313D02*
X309563Y215900D01*
X309563Y309563D01*
D13*
X512763Y568325D03*
X309563Y309563D03*
X150813Y341313D03*
X217488Y214313D03*
X307975Y214313D03*
D12*
X374650Y469900D02*
X487363Y582613D01*
X374650Y469900D02*
X374650Y398463D01*
X338138Y361950D01*
X222250Y325438D02*
X188913Y358775D01*
D13*
X487363Y582613D03*
X338138Y361950D03*
X188913Y358775D03*
X222250Y325438D03*
D12*
X377825Y485775D02*
X454025Y561975D01*
D13*
X454025Y561975D03*
X377825Y485775D03*
D12*
X304800Y461963D02*
X304800Y531813D01*
X236538Y465138D02*
X228600Y457200D01*
X236538Y465138D02*
X236538Y493713D01*
D13*
X304800Y531813D03*
X304800Y461963D03*
X228600Y457200D03*
X236538Y493713D03*
D12*
X503238Y206375D02*
X512763Y196850D01*
X503238Y206375D02*
X503238Y207963D01*
X498475Y212725D01*
X361950Y212725D01*
X361950Y204788D01*
X249238Y249238D02*
X230188Y268288D01*
X230188Y390525D01*
X211138Y409575D01*
X93663Y446088D02*
X53975Y446088D01*
X93663Y446088D02*
X93663Y428625D01*
X100013Y422275D01*
X112713Y422275D01*
X112713Y414338D01*
D13*
X512763Y196850D03*
X361950Y204788D03*
X249238Y249238D03*
X211138Y409575D03*
X53975Y446088D03*
X112713Y414338D03*
D12*
X604838Y187325D02*
X614363Y196850D01*
X604838Y187325D02*
X604838Y180975D01*
X273050Y257175D02*
X255588Y274638D01*
X255588Y311150D01*
X107950Y311150D02*
X98425Y320675D01*
X107950Y311150D02*
X107950Y282575D01*
D13*
X614363Y196850D03*
X604838Y180975D03*
X273050Y257175D03*
X255588Y311150D03*
X98425Y320675D03*
X107950Y282575D03*
D12*
X292100Y546100D02*
X292100Y622300D01*
D13*
X292100Y546100D03*
D12*
X217488Y544513D02*
X215900Y546100D01*
X215900Y622300D01*
D13*
X217488Y544513D03*
D12*
X341313Y544513D02*
X342900Y546100D01*
X342900Y622300D01*
D13*
X341313Y544513D03*
D12*
X236538Y538163D02*
X233363Y541338D01*
X233363Y614363D01*
X241300Y622300D01*
D13*
X236538Y538163D03*
D12*
X495300Y536575D02*
X504825Y527050D01*
X495300Y536575D02*
X495300Y622300D01*
D13*
X504825Y527050D03*
D12*
X390525Y565150D02*
X382588Y557213D01*
X390525Y565150D02*
X390525Y582613D01*
X417513Y609600D01*
X444500Y609600D01*
X444500Y622300D01*
D13*
X382588Y557213D03*
D14*
X444500Y381000D03*
X469900Y317500D03*
X571500Y406400D03*
X431800Y495300D03*
X152400Y469900D03*
X139700Y495300D03*
X25400Y444500D03*
X25400Y355600D03*
X127000Y177800D03*
X124460Y243840D03*
X181610Y271780D03*
X160020Y317500D03*
X182880Y321310D03*
X212090Y359410D03*
X354330Y412750D03*
X401320Y429260D03*
X769620Y524510D03*
X704850Y497840D03*
X391160Y529590D03*
X353060Y511810D03*
X360680Y586740D03*
X326390Y579120D03*
X88900Y593090D03*
X163830Y543560D03*
X455930Y580390D03*
X527050Y580390D03*
X161290Y431800D03*
X224790Y430530D03*
X337820Y458470D03*
X332740Y205740D03*
X356870Y191770D03*
X414020Y231140D03*
X425450Y205740D03*
X416560Y157480D03*
X641350Y171450D03*
X200660Y243840D03*
X238760Y242570D03*
X123190Y431800D03*
X148590Y406400D03*
X807720Y435610D03*
X147320Y218440D03*
X281940Y186690D03*
X207010Y214630D03*
X309880Y180340D03*
D12*
X698500Y544513D02*
X768350Y474663D01*
X698500Y544513D02*
X698500Y622300D01*
D13*
X768350Y474663D03*
D12*
X369888Y552450D02*
X357188Y565150D01*
X369888Y552450D02*
X369888Y404813D01*
X298450Y333375D01*
D13*
X357188Y565150D03*
X298450Y333375D03*
D12*
X320675Y409575D02*
X320675Y536575D01*
X320675Y409575D02*
X290513Y379413D01*
X290513Y365125D01*
D13*
X320675Y536575D03*
X290513Y365125D03*
D12*
X312738Y541338D02*
X300038Y554038D01*
X312738Y541338D02*
X312738Y438150D01*
X173038Y503238D02*
X101600Y431800D01*
X173038Y503238D02*
X173038Y595313D01*
X300038Y581025D02*
X300038Y554038D01*
D13*
X300038Y554038D03*
X312738Y438150D03*
X101600Y431800D03*
X173038Y595313D03*
X300038Y581025D03*
D12*
X282575Y565150D02*
X282575Y523875D01*
X228600Y496888D02*
X228600Y479425D01*
X228600Y496888D02*
X236538Y504825D01*
D13*
X282575Y565150D03*
X282575Y523875D03*
X228600Y479425D03*
X236538Y504825D03*
D12*
X249238Y561975D02*
X249238Y423863D01*
X242888Y417513D01*
X242888Y349250D01*
X255588Y336550D01*
X107950Y349250D02*
X53975Y349250D01*
X107950Y349250D02*
X107950Y333375D01*
D13*
X249238Y561975D03*
X255588Y336550D03*
X53975Y349250D03*
X107950Y333375D03*
D12*
X244475Y550863D02*
X241300Y554038D01*
X244475Y550863D02*
X244475Y430213D01*
X234950Y420688D01*
X234950Y407988D01*
D13*
X241300Y554038D03*
X234950Y407988D03*
D12*
X271463Y461963D02*
X306388Y427038D01*
X306388Y414338D01*
X173038Y460375D02*
X119063Y406400D01*
X173038Y460375D02*
X173038Y461963D01*
D13*
X271463Y461963D03*
X306388Y414338D03*
X119063Y406400D03*
X173038Y461963D03*
D12*
X298450Y376238D02*
X304800Y382588D01*
X298450Y376238D02*
X298450Y344488D01*
X287338Y333375D01*
X287338Y249238D01*
X230188Y192088D01*
X115888Y192088D01*
X115888Y360363D01*
X101600Y374650D01*
D13*
X304800Y382588D03*
X101600Y374650D03*
D12*
X207963Y563563D02*
X206375Y565150D01*
X207963Y563563D02*
X207963Y439738D01*
D13*
X206375Y565150D03*
X207963Y439738D03*
D12*
X296863Y525463D02*
X298450Y523875D01*
X298450Y500063D01*
X257175Y458788D01*
X257175Y454025D01*
X228600Y468313D02*
X215900Y481013D01*
X215900Y488950D01*
D13*
X296863Y525463D03*
X257175Y454025D03*
X228600Y468313D03*
X215900Y488950D03*
D12*
X266700Y523875D02*
X266700Y622300D01*
D13*
X266700Y523875D03*
D12*
X200025Y527050D02*
X190500Y536575D01*
X190500Y622300D01*
D13*
X200025Y527050D03*
D12*
X165100Y574675D02*
X165100Y622300D01*
D13*
X165100Y574675D03*
D12*
X263525Y298450D02*
X274638Y287338D01*
X263525Y298450D02*
X263525Y382588D01*
X260350Y385763D01*
X93663Y368300D02*
X53975Y368300D01*
X93663Y368300D02*
X93663Y377825D01*
X98425Y382588D01*
X123825Y382588D01*
X123825Y379413D01*
D13*
X274638Y287338D03*
X260350Y385763D03*
X53975Y368300D03*
X123825Y379413D03*
D12*
X180975Y346075D02*
X180975Y522288D01*
X180975Y346075D02*
X225425Y301625D01*
X225425Y204788D01*
X385763Y180975D02*
X469900Y180975D01*
X469900Y139700D01*
D13*
X180975Y522288D03*
X225425Y204788D03*
X385763Y180975D03*
D12*
X495300Y204788D02*
X495300Y139700D01*
D13*
X495300Y204788D03*
D12*
X520700Y231775D02*
X517525Y234950D01*
X520700Y231775D02*
X520700Y139700D01*
D13*
X517525Y234950D03*
D12*
X546100Y200025D02*
X546100Y139700D01*
D13*
X546100Y200025D03*
D12*
X596900Y193675D02*
X600075Y196850D01*
X596900Y193675D02*
X596900Y139700D01*
D13*
X600075Y196850D03*
D12*
X571500Y185738D02*
X560388Y196850D01*
X571500Y185738D02*
X571500Y139700D01*
D13*
X560388Y196850D03*
D12*
X622300Y225425D02*
X633413Y236538D01*
X622300Y225425D02*
X622300Y139700D01*
D13*
X633413Y236538D03*
D12*
X315913Y334963D02*
X300038Y319088D01*
X300038Y165100D01*
D13*
X315913Y334963D03*
X300038Y165100D03*
D12*
X130175Y357188D02*
X112713Y374650D01*
X130175Y357188D02*
X130175Y263525D01*
X328613Y219075D02*
X341313Y231775D01*
X341313Y239713D01*
D13*
X112713Y374650D03*
X130175Y263525D03*
X328613Y219075D03*
X341313Y239713D03*
D12*
X195263Y214313D02*
X142875Y266700D01*
X142875Y382588D01*
X127000Y398463D01*
X257175Y484188D02*
X257175Y574675D01*
X241300Y590550D01*
D13*
X195263Y214313D03*
X127000Y398463D03*
X257175Y484188D03*
X241300Y590550D03*
D12*
X328613Y492125D02*
X361950Y458788D01*
X328613Y552450D02*
X307975Y573088D01*
X328613Y552450D02*
X328613Y492125D01*
D13*
X361950Y458788D03*
X328613Y492125D03*
X307975Y573088D03*
D12*
X258763Y415925D02*
X274638Y400050D01*
X274638Y374650D01*
D13*
X258763Y415925D03*
X274638Y374650D03*
D12*
X282575Y412750D02*
X280988Y414338D01*
X282575Y412750D02*
X282575Y250825D01*
X228600Y196850D01*
X138113Y196850D01*
X138113Y376238D01*
X100013Y414338D01*
D13*
X280988Y414338D03*
X100013Y414338D03*
D12*
X287338Y517525D02*
X290513Y517525D01*
X287338Y517525D02*
X285750Y515938D01*
X274638Y515938D01*
X274638Y611188D01*
X279400Y615950D01*
X279400Y628650D01*
X273050Y635000D01*
X152400Y635000D01*
X152400Y542925D01*
X71438Y461963D01*
X53975Y461963D01*
D13*
X290513Y517525D03*
X53975Y461963D03*
D15*
X779780Y471170D03*
D12*
X741680Y433070D01*
X741680Y418054D02*
X739798Y416172D01*
D15*
X739798Y416172D03*
D12*
X741680Y418054D02*
X741680Y433070D01*
X739775Y398463D02*
X549275Y207963D01*
X533400Y207963D01*
X533400Y133350D01*
X527050Y127000D01*
X241300Y127000D01*
X241300Y139700D01*
D13*
X739775Y398463D03*
D12*
X742950Y446088D02*
X539750Y242888D01*
X354013Y242888D01*
X354013Y204788D01*
X301625Y152400D01*
X215900Y152400D01*
X215900Y139700D01*
D13*
X742950Y446088D03*
M02*
