G04 EAGLE Gerber RS-274X export*
G75*
%MOMM*%
%FSLAX34Y34*%
%LPD*%
%INSolderpaste Top*%
%IPPOS*%
%AMOC8*
5,1,8,0,0,1.08239X$1,22.5*%
G01*
%ADD10R,1.400000X1.200000*%
%ADD11R,0.900000X0.850000*%
%ADD12R,0.850000X0.900000*%
%ADD13C,1.205000*%
%ADD14R,1.350000X0.500000*%
%ADD15R,1.650000X0.500000*%
%ADD16C,0.105000*%
%ADD17C,0.157500*%
%ADD18R,0.900000X0.800000*%
%ADD19R,1.000000X1.100000*%
%ADD20R,2.000000X1.200000*%
%ADD21R,1.350000X0.600000*%


D10*
X839480Y243900D03*
X839480Y213900D03*
D11*
X838850Y267270D03*
X838850Y255670D03*
D12*
X190170Y401590D03*
X178570Y401590D03*
D13*
X1445Y303980D02*
X1447Y304135D01*
X1453Y304290D01*
X1463Y304445D01*
X1477Y304599D01*
X1495Y304754D01*
X1517Y304907D01*
X1543Y305060D01*
X1572Y305212D01*
X1606Y305364D01*
X1644Y305514D01*
X1685Y305664D01*
X1730Y305812D01*
X1779Y305959D01*
X1832Y306105D01*
X1889Y306250D01*
X1949Y306393D01*
X2013Y306534D01*
X2081Y306674D01*
X2152Y306812D01*
X2227Y306948D01*
X2305Y307082D01*
X2386Y307214D01*
X2471Y307343D01*
X2559Y307471D01*
X2651Y307596D01*
X2746Y307719D01*
X2844Y307840D01*
X2944Y307957D01*
X3048Y308073D01*
X3155Y308185D01*
X3265Y308295D01*
X3377Y308402D01*
X3493Y308506D01*
X3610Y308606D01*
X3731Y308704D01*
X3854Y308799D01*
X3979Y308891D01*
X4107Y308979D01*
X4236Y309064D01*
X4368Y309145D01*
X4502Y309223D01*
X4638Y309298D01*
X4776Y309369D01*
X4916Y309437D01*
X5057Y309501D01*
X5200Y309561D01*
X5345Y309618D01*
X5491Y309671D01*
X5638Y309720D01*
X5786Y309765D01*
X5936Y309806D01*
X6086Y309844D01*
X6238Y309878D01*
X6390Y309907D01*
X6543Y309933D01*
X6696Y309955D01*
X6851Y309973D01*
X7005Y309987D01*
X7160Y309997D01*
X7315Y310003D01*
X7470Y310005D01*
X7625Y310003D01*
X7780Y309997D01*
X7935Y309987D01*
X8089Y309973D01*
X8244Y309955D01*
X8397Y309933D01*
X8550Y309907D01*
X8702Y309878D01*
X8854Y309844D01*
X9004Y309806D01*
X9154Y309765D01*
X9302Y309720D01*
X9449Y309671D01*
X9595Y309618D01*
X9740Y309561D01*
X9883Y309501D01*
X10024Y309437D01*
X10164Y309369D01*
X10302Y309298D01*
X10438Y309223D01*
X10572Y309145D01*
X10704Y309064D01*
X10833Y308979D01*
X10961Y308891D01*
X11086Y308799D01*
X11209Y308704D01*
X11330Y308606D01*
X11447Y308506D01*
X11563Y308402D01*
X11675Y308295D01*
X11785Y308185D01*
X11892Y308073D01*
X11996Y307957D01*
X12096Y307840D01*
X12194Y307719D01*
X12289Y307596D01*
X12381Y307471D01*
X12469Y307343D01*
X12554Y307214D01*
X12635Y307082D01*
X12713Y306948D01*
X12788Y306812D01*
X12859Y306674D01*
X12927Y306534D01*
X12991Y306393D01*
X13051Y306250D01*
X13108Y306105D01*
X13161Y305959D01*
X13210Y305812D01*
X13255Y305664D01*
X13296Y305514D01*
X13334Y305364D01*
X13368Y305212D01*
X13397Y305060D01*
X13423Y304907D01*
X13445Y304754D01*
X13463Y304599D01*
X13477Y304445D01*
X13487Y304290D01*
X13493Y304135D01*
X13495Y303980D01*
X13493Y303825D01*
X13487Y303670D01*
X13477Y303515D01*
X13463Y303361D01*
X13445Y303206D01*
X13423Y303053D01*
X13397Y302900D01*
X13368Y302748D01*
X13334Y302596D01*
X13296Y302446D01*
X13255Y302296D01*
X13210Y302148D01*
X13161Y302001D01*
X13108Y301855D01*
X13051Y301710D01*
X12991Y301567D01*
X12927Y301426D01*
X12859Y301286D01*
X12788Y301148D01*
X12713Y301012D01*
X12635Y300878D01*
X12554Y300746D01*
X12469Y300617D01*
X12381Y300489D01*
X12289Y300364D01*
X12194Y300241D01*
X12096Y300120D01*
X11996Y300003D01*
X11892Y299887D01*
X11785Y299775D01*
X11675Y299665D01*
X11563Y299558D01*
X11447Y299454D01*
X11330Y299354D01*
X11209Y299256D01*
X11086Y299161D01*
X10961Y299069D01*
X10833Y298981D01*
X10704Y298896D01*
X10572Y298815D01*
X10438Y298737D01*
X10302Y298662D01*
X10164Y298591D01*
X10024Y298523D01*
X9883Y298459D01*
X9740Y298399D01*
X9595Y298342D01*
X9449Y298289D01*
X9302Y298240D01*
X9154Y298195D01*
X9004Y298154D01*
X8854Y298116D01*
X8702Y298082D01*
X8550Y298053D01*
X8397Y298027D01*
X8244Y298005D01*
X8089Y297987D01*
X7935Y297973D01*
X7780Y297963D01*
X7625Y297957D01*
X7470Y297955D01*
X7315Y297957D01*
X7160Y297963D01*
X7005Y297973D01*
X6851Y297987D01*
X6696Y298005D01*
X6543Y298027D01*
X6390Y298053D01*
X6238Y298082D01*
X6086Y298116D01*
X5936Y298154D01*
X5786Y298195D01*
X5638Y298240D01*
X5491Y298289D01*
X5345Y298342D01*
X5200Y298399D01*
X5057Y298459D01*
X4916Y298523D01*
X4776Y298591D01*
X4638Y298662D01*
X4502Y298737D01*
X4368Y298815D01*
X4236Y298896D01*
X4107Y298981D01*
X3979Y299069D01*
X3854Y299161D01*
X3731Y299256D01*
X3610Y299354D01*
X3493Y299454D01*
X3377Y299558D01*
X3265Y299665D01*
X3155Y299775D01*
X3048Y299887D01*
X2944Y300003D01*
X2844Y300120D01*
X2746Y300241D01*
X2651Y300364D01*
X2559Y300489D01*
X2471Y300617D01*
X2386Y300746D01*
X2305Y300878D01*
X2227Y301012D01*
X2152Y301148D01*
X2081Y301286D01*
X2013Y301426D01*
X1949Y301567D01*
X1889Y301710D01*
X1832Y301855D01*
X1779Y302001D01*
X1730Y302148D01*
X1685Y302296D01*
X1644Y302446D01*
X1606Y302596D01*
X1572Y302748D01*
X1543Y302900D01*
X1517Y303053D01*
X1495Y303206D01*
X1477Y303361D01*
X1463Y303515D01*
X1453Y303670D01*
X1447Y303825D01*
X1445Y303980D01*
X1445Y493580D02*
X1447Y493735D01*
X1453Y493890D01*
X1463Y494045D01*
X1477Y494199D01*
X1495Y494354D01*
X1517Y494507D01*
X1543Y494660D01*
X1572Y494812D01*
X1606Y494964D01*
X1644Y495114D01*
X1685Y495264D01*
X1730Y495412D01*
X1779Y495559D01*
X1832Y495705D01*
X1889Y495850D01*
X1949Y495993D01*
X2013Y496134D01*
X2081Y496274D01*
X2152Y496412D01*
X2227Y496548D01*
X2305Y496682D01*
X2386Y496814D01*
X2471Y496943D01*
X2559Y497071D01*
X2651Y497196D01*
X2746Y497319D01*
X2844Y497440D01*
X2944Y497557D01*
X3048Y497673D01*
X3155Y497785D01*
X3265Y497895D01*
X3377Y498002D01*
X3493Y498106D01*
X3610Y498206D01*
X3731Y498304D01*
X3854Y498399D01*
X3979Y498491D01*
X4107Y498579D01*
X4236Y498664D01*
X4368Y498745D01*
X4502Y498823D01*
X4638Y498898D01*
X4776Y498969D01*
X4916Y499037D01*
X5057Y499101D01*
X5200Y499161D01*
X5345Y499218D01*
X5491Y499271D01*
X5638Y499320D01*
X5786Y499365D01*
X5936Y499406D01*
X6086Y499444D01*
X6238Y499478D01*
X6390Y499507D01*
X6543Y499533D01*
X6696Y499555D01*
X6851Y499573D01*
X7005Y499587D01*
X7160Y499597D01*
X7315Y499603D01*
X7470Y499605D01*
X7625Y499603D01*
X7780Y499597D01*
X7935Y499587D01*
X8089Y499573D01*
X8244Y499555D01*
X8397Y499533D01*
X8550Y499507D01*
X8702Y499478D01*
X8854Y499444D01*
X9004Y499406D01*
X9154Y499365D01*
X9302Y499320D01*
X9449Y499271D01*
X9595Y499218D01*
X9740Y499161D01*
X9883Y499101D01*
X10024Y499037D01*
X10164Y498969D01*
X10302Y498898D01*
X10438Y498823D01*
X10572Y498745D01*
X10704Y498664D01*
X10833Y498579D01*
X10961Y498491D01*
X11086Y498399D01*
X11209Y498304D01*
X11330Y498206D01*
X11447Y498106D01*
X11563Y498002D01*
X11675Y497895D01*
X11785Y497785D01*
X11892Y497673D01*
X11996Y497557D01*
X12096Y497440D01*
X12194Y497319D01*
X12289Y497196D01*
X12381Y497071D01*
X12469Y496943D01*
X12554Y496814D01*
X12635Y496682D01*
X12713Y496548D01*
X12788Y496412D01*
X12859Y496274D01*
X12927Y496134D01*
X12991Y495993D01*
X13051Y495850D01*
X13108Y495705D01*
X13161Y495559D01*
X13210Y495412D01*
X13255Y495264D01*
X13296Y495114D01*
X13334Y494964D01*
X13368Y494812D01*
X13397Y494660D01*
X13423Y494507D01*
X13445Y494354D01*
X13463Y494199D01*
X13477Y494045D01*
X13487Y493890D01*
X13493Y493735D01*
X13495Y493580D01*
X13493Y493425D01*
X13487Y493270D01*
X13477Y493115D01*
X13463Y492961D01*
X13445Y492806D01*
X13423Y492653D01*
X13397Y492500D01*
X13368Y492348D01*
X13334Y492196D01*
X13296Y492046D01*
X13255Y491896D01*
X13210Y491748D01*
X13161Y491601D01*
X13108Y491455D01*
X13051Y491310D01*
X12991Y491167D01*
X12927Y491026D01*
X12859Y490886D01*
X12788Y490748D01*
X12713Y490612D01*
X12635Y490478D01*
X12554Y490346D01*
X12469Y490217D01*
X12381Y490089D01*
X12289Y489964D01*
X12194Y489841D01*
X12096Y489720D01*
X11996Y489603D01*
X11892Y489487D01*
X11785Y489375D01*
X11675Y489265D01*
X11563Y489158D01*
X11447Y489054D01*
X11330Y488954D01*
X11209Y488856D01*
X11086Y488761D01*
X10961Y488669D01*
X10833Y488581D01*
X10704Y488496D01*
X10572Y488415D01*
X10438Y488337D01*
X10302Y488262D01*
X10164Y488191D01*
X10024Y488123D01*
X9883Y488059D01*
X9740Y487999D01*
X9595Y487942D01*
X9449Y487889D01*
X9302Y487840D01*
X9154Y487795D01*
X9004Y487754D01*
X8854Y487716D01*
X8702Y487682D01*
X8550Y487653D01*
X8397Y487627D01*
X8244Y487605D01*
X8089Y487587D01*
X7935Y487573D01*
X7780Y487563D01*
X7625Y487557D01*
X7470Y487555D01*
X7315Y487557D01*
X7160Y487563D01*
X7005Y487573D01*
X6851Y487587D01*
X6696Y487605D01*
X6543Y487627D01*
X6390Y487653D01*
X6238Y487682D01*
X6086Y487716D01*
X5936Y487754D01*
X5786Y487795D01*
X5638Y487840D01*
X5491Y487889D01*
X5345Y487942D01*
X5200Y487999D01*
X5057Y488059D01*
X4916Y488123D01*
X4776Y488191D01*
X4638Y488262D01*
X4502Y488337D01*
X4368Y488415D01*
X4236Y488496D01*
X4107Y488581D01*
X3979Y488669D01*
X3854Y488761D01*
X3731Y488856D01*
X3610Y488954D01*
X3493Y489054D01*
X3377Y489158D01*
X3265Y489265D01*
X3155Y489375D01*
X3048Y489487D01*
X2944Y489603D01*
X2844Y489720D01*
X2746Y489841D01*
X2651Y489964D01*
X2559Y490089D01*
X2471Y490217D01*
X2386Y490346D01*
X2305Y490478D01*
X2227Y490612D01*
X2152Y490748D01*
X2081Y490886D01*
X2013Y491026D01*
X1949Y491167D01*
X1889Y491310D01*
X1832Y491455D01*
X1779Y491601D01*
X1730Y491748D01*
X1685Y491896D01*
X1644Y492046D01*
X1606Y492196D01*
X1572Y492348D01*
X1543Y492500D01*
X1517Y492653D01*
X1495Y492806D01*
X1477Y492961D01*
X1463Y493115D01*
X1453Y493270D01*
X1447Y493425D01*
X1445Y493580D01*
D14*
X66720Y462780D03*
D15*
X86720Y462780D03*
D14*
X66720Y454780D03*
D15*
X86720Y454780D03*
D14*
X66720Y446780D03*
D15*
X86720Y446780D03*
D14*
X66720Y438780D03*
D15*
X86720Y438780D03*
D14*
X66720Y430780D03*
D15*
X86720Y430780D03*
D14*
X66720Y422780D03*
D15*
X86720Y422780D03*
D14*
X66720Y382780D03*
D15*
X86720Y382780D03*
D14*
X66720Y374780D03*
D15*
X86720Y374780D03*
D14*
X66720Y366780D03*
D15*
X86720Y366780D03*
D14*
X66720Y358780D03*
D15*
X86720Y358780D03*
D14*
X66720Y350780D03*
D15*
X86720Y350780D03*
D14*
X66720Y342780D03*
D15*
X86720Y342780D03*
D14*
X66720Y334780D03*
D15*
X86720Y334780D03*
D16*
X514975Y550775D02*
X514975Y557425D01*
X516025Y557425D01*
X516025Y550775D01*
X514975Y550775D01*
X514975Y551772D02*
X516025Y551772D01*
X516025Y552769D02*
X514975Y552769D01*
X514975Y553766D02*
X516025Y553766D01*
X516025Y554763D02*
X514975Y554763D01*
X514975Y555760D02*
X516025Y555760D01*
X516025Y556757D02*
X514975Y556757D01*
X509975Y557425D02*
X509975Y550775D01*
X509975Y557425D02*
X511025Y557425D01*
X511025Y550775D01*
X509975Y550775D01*
X509975Y551772D02*
X511025Y551772D01*
X511025Y552769D02*
X509975Y552769D01*
X509975Y553766D02*
X511025Y553766D01*
X511025Y554763D02*
X509975Y554763D01*
X509975Y555760D02*
X511025Y555760D01*
X511025Y556757D02*
X509975Y556757D01*
X504975Y557425D02*
X504975Y550775D01*
X504975Y557425D02*
X506025Y557425D01*
X506025Y550775D01*
X504975Y550775D01*
X504975Y551772D02*
X506025Y551772D01*
X506025Y552769D02*
X504975Y552769D01*
X504975Y553766D02*
X506025Y553766D01*
X506025Y554763D02*
X504975Y554763D01*
X504975Y555760D02*
X506025Y555760D01*
X506025Y556757D02*
X504975Y556757D01*
X499975Y557425D02*
X499975Y550775D01*
X499975Y557425D02*
X501025Y557425D01*
X501025Y550775D01*
X499975Y550775D01*
X499975Y551772D02*
X501025Y551772D01*
X501025Y552769D02*
X499975Y552769D01*
X499975Y553766D02*
X501025Y553766D01*
X501025Y554763D02*
X499975Y554763D01*
X499975Y555760D02*
X501025Y555760D01*
X501025Y556757D02*
X499975Y556757D01*
X501025Y541425D02*
X501025Y534775D01*
X499975Y534775D01*
X499975Y541425D01*
X501025Y541425D01*
X501025Y535772D02*
X499975Y535772D01*
X499975Y536769D02*
X501025Y536769D01*
X501025Y537766D02*
X499975Y537766D01*
X499975Y538763D02*
X501025Y538763D01*
X501025Y539760D02*
X499975Y539760D01*
X499975Y540757D02*
X501025Y540757D01*
X506025Y541425D02*
X506025Y534775D01*
X504975Y534775D01*
X504975Y541425D01*
X506025Y541425D01*
X506025Y535772D02*
X504975Y535772D01*
X504975Y536769D02*
X506025Y536769D01*
X506025Y537766D02*
X504975Y537766D01*
X504975Y538763D02*
X506025Y538763D01*
X506025Y539760D02*
X504975Y539760D01*
X504975Y540757D02*
X506025Y540757D01*
X511025Y541425D02*
X511025Y534775D01*
X509975Y534775D01*
X509975Y541425D01*
X511025Y541425D01*
X511025Y535772D02*
X509975Y535772D01*
X509975Y536769D02*
X511025Y536769D01*
X511025Y537766D02*
X509975Y537766D01*
X509975Y538763D02*
X511025Y538763D01*
X511025Y539760D02*
X509975Y539760D01*
X509975Y540757D02*
X511025Y540757D01*
X516025Y541425D02*
X516025Y534775D01*
X514975Y534775D01*
X514975Y541425D01*
X516025Y541425D01*
X516025Y535772D02*
X514975Y535772D01*
X514975Y536769D02*
X516025Y536769D01*
X516025Y537766D02*
X514975Y537766D01*
X514975Y538763D02*
X516025Y538763D01*
X516025Y539760D02*
X514975Y539760D01*
X514975Y540757D02*
X516025Y540757D01*
X362575Y550775D02*
X362575Y557425D01*
X363625Y557425D01*
X363625Y550775D01*
X362575Y550775D01*
X362575Y551772D02*
X363625Y551772D01*
X363625Y552769D02*
X362575Y552769D01*
X362575Y553766D02*
X363625Y553766D01*
X363625Y554763D02*
X362575Y554763D01*
X362575Y555760D02*
X363625Y555760D01*
X363625Y556757D02*
X362575Y556757D01*
X357575Y557425D02*
X357575Y550775D01*
X357575Y557425D02*
X358625Y557425D01*
X358625Y550775D01*
X357575Y550775D01*
X357575Y551772D02*
X358625Y551772D01*
X358625Y552769D02*
X357575Y552769D01*
X357575Y553766D02*
X358625Y553766D01*
X358625Y554763D02*
X357575Y554763D01*
X357575Y555760D02*
X358625Y555760D01*
X358625Y556757D02*
X357575Y556757D01*
X352575Y557425D02*
X352575Y550775D01*
X352575Y557425D02*
X353625Y557425D01*
X353625Y550775D01*
X352575Y550775D01*
X352575Y551772D02*
X353625Y551772D01*
X353625Y552769D02*
X352575Y552769D01*
X352575Y553766D02*
X353625Y553766D01*
X353625Y554763D02*
X352575Y554763D01*
X352575Y555760D02*
X353625Y555760D01*
X353625Y556757D02*
X352575Y556757D01*
X347575Y557425D02*
X347575Y550775D01*
X347575Y557425D02*
X348625Y557425D01*
X348625Y550775D01*
X347575Y550775D01*
X347575Y551772D02*
X348625Y551772D01*
X348625Y552769D02*
X347575Y552769D01*
X347575Y553766D02*
X348625Y553766D01*
X348625Y554763D02*
X347575Y554763D01*
X347575Y555760D02*
X348625Y555760D01*
X348625Y556757D02*
X347575Y556757D01*
X348625Y541425D02*
X348625Y534775D01*
X347575Y534775D01*
X347575Y541425D01*
X348625Y541425D01*
X348625Y535772D02*
X347575Y535772D01*
X347575Y536769D02*
X348625Y536769D01*
X348625Y537766D02*
X347575Y537766D01*
X347575Y538763D02*
X348625Y538763D01*
X348625Y539760D02*
X347575Y539760D01*
X347575Y540757D02*
X348625Y540757D01*
X353625Y541425D02*
X353625Y534775D01*
X352575Y534775D01*
X352575Y541425D01*
X353625Y541425D01*
X353625Y535772D02*
X352575Y535772D01*
X352575Y536769D02*
X353625Y536769D01*
X353625Y537766D02*
X352575Y537766D01*
X352575Y538763D02*
X353625Y538763D01*
X353625Y539760D02*
X352575Y539760D01*
X352575Y540757D02*
X353625Y540757D01*
X358625Y541425D02*
X358625Y534775D01*
X357575Y534775D01*
X357575Y541425D01*
X358625Y541425D01*
X358625Y535772D02*
X357575Y535772D01*
X357575Y536769D02*
X358625Y536769D01*
X358625Y537766D02*
X357575Y537766D01*
X357575Y538763D02*
X358625Y538763D01*
X358625Y539760D02*
X357575Y539760D01*
X357575Y540757D02*
X358625Y540757D01*
X363625Y541425D02*
X363625Y534775D01*
X362575Y534775D01*
X362575Y541425D01*
X363625Y541425D01*
X363625Y535772D02*
X362575Y535772D01*
X362575Y536769D02*
X363625Y536769D01*
X363625Y537766D02*
X362575Y537766D01*
X362575Y538763D02*
X363625Y538763D01*
X363625Y539760D02*
X362575Y539760D01*
X362575Y540757D02*
X363625Y540757D01*
X286375Y550775D02*
X286375Y557425D01*
X287425Y557425D01*
X287425Y550775D01*
X286375Y550775D01*
X286375Y551772D02*
X287425Y551772D01*
X287425Y552769D02*
X286375Y552769D01*
X286375Y553766D02*
X287425Y553766D01*
X287425Y554763D02*
X286375Y554763D01*
X286375Y555760D02*
X287425Y555760D01*
X287425Y556757D02*
X286375Y556757D01*
X281375Y557425D02*
X281375Y550775D01*
X281375Y557425D02*
X282425Y557425D01*
X282425Y550775D01*
X281375Y550775D01*
X281375Y551772D02*
X282425Y551772D01*
X282425Y552769D02*
X281375Y552769D01*
X281375Y553766D02*
X282425Y553766D01*
X282425Y554763D02*
X281375Y554763D01*
X281375Y555760D02*
X282425Y555760D01*
X282425Y556757D02*
X281375Y556757D01*
X276375Y557425D02*
X276375Y550775D01*
X276375Y557425D02*
X277425Y557425D01*
X277425Y550775D01*
X276375Y550775D01*
X276375Y551772D02*
X277425Y551772D01*
X277425Y552769D02*
X276375Y552769D01*
X276375Y553766D02*
X277425Y553766D01*
X277425Y554763D02*
X276375Y554763D01*
X276375Y555760D02*
X277425Y555760D01*
X277425Y556757D02*
X276375Y556757D01*
X271375Y557425D02*
X271375Y550775D01*
X271375Y557425D02*
X272425Y557425D01*
X272425Y550775D01*
X271375Y550775D01*
X271375Y551772D02*
X272425Y551772D01*
X272425Y552769D02*
X271375Y552769D01*
X271375Y553766D02*
X272425Y553766D01*
X272425Y554763D02*
X271375Y554763D01*
X271375Y555760D02*
X272425Y555760D01*
X272425Y556757D02*
X271375Y556757D01*
X272425Y541425D02*
X272425Y534775D01*
X271375Y534775D01*
X271375Y541425D01*
X272425Y541425D01*
X272425Y535772D02*
X271375Y535772D01*
X271375Y536769D02*
X272425Y536769D01*
X272425Y537766D02*
X271375Y537766D01*
X271375Y538763D02*
X272425Y538763D01*
X272425Y539760D02*
X271375Y539760D01*
X271375Y540757D02*
X272425Y540757D01*
X277425Y541425D02*
X277425Y534775D01*
X276375Y534775D01*
X276375Y541425D01*
X277425Y541425D01*
X277425Y535772D02*
X276375Y535772D01*
X276375Y536769D02*
X277425Y536769D01*
X277425Y537766D02*
X276375Y537766D01*
X276375Y538763D02*
X277425Y538763D01*
X277425Y539760D02*
X276375Y539760D01*
X276375Y540757D02*
X277425Y540757D01*
X282425Y541425D02*
X282425Y534775D01*
X281375Y534775D01*
X281375Y541425D01*
X282425Y541425D01*
X282425Y535772D02*
X281375Y535772D01*
X281375Y536769D02*
X282425Y536769D01*
X282425Y537766D02*
X281375Y537766D01*
X281375Y538763D02*
X282425Y538763D01*
X282425Y539760D02*
X281375Y539760D01*
X281375Y540757D02*
X282425Y540757D01*
X287425Y541425D02*
X287425Y534775D01*
X286375Y534775D01*
X286375Y541425D01*
X287425Y541425D01*
X287425Y535772D02*
X286375Y535772D01*
X286375Y536769D02*
X287425Y536769D01*
X287425Y537766D02*
X286375Y537766D01*
X286375Y538763D02*
X287425Y538763D01*
X287425Y539760D02*
X286375Y539760D01*
X286375Y540757D02*
X287425Y540757D01*
X210175Y550775D02*
X210175Y557425D01*
X211225Y557425D01*
X211225Y550775D01*
X210175Y550775D01*
X210175Y551772D02*
X211225Y551772D01*
X211225Y552769D02*
X210175Y552769D01*
X210175Y553766D02*
X211225Y553766D01*
X211225Y554763D02*
X210175Y554763D01*
X210175Y555760D02*
X211225Y555760D01*
X211225Y556757D02*
X210175Y556757D01*
X205175Y557425D02*
X205175Y550775D01*
X205175Y557425D02*
X206225Y557425D01*
X206225Y550775D01*
X205175Y550775D01*
X205175Y551772D02*
X206225Y551772D01*
X206225Y552769D02*
X205175Y552769D01*
X205175Y553766D02*
X206225Y553766D01*
X206225Y554763D02*
X205175Y554763D01*
X205175Y555760D02*
X206225Y555760D01*
X206225Y556757D02*
X205175Y556757D01*
X200175Y557425D02*
X200175Y550775D01*
X200175Y557425D02*
X201225Y557425D01*
X201225Y550775D01*
X200175Y550775D01*
X200175Y551772D02*
X201225Y551772D01*
X201225Y552769D02*
X200175Y552769D01*
X200175Y553766D02*
X201225Y553766D01*
X201225Y554763D02*
X200175Y554763D01*
X200175Y555760D02*
X201225Y555760D01*
X201225Y556757D02*
X200175Y556757D01*
X195175Y557425D02*
X195175Y550775D01*
X195175Y557425D02*
X196225Y557425D01*
X196225Y550775D01*
X195175Y550775D01*
X195175Y551772D02*
X196225Y551772D01*
X196225Y552769D02*
X195175Y552769D01*
X195175Y553766D02*
X196225Y553766D01*
X196225Y554763D02*
X195175Y554763D01*
X195175Y555760D02*
X196225Y555760D01*
X196225Y556757D02*
X195175Y556757D01*
X196225Y541425D02*
X196225Y534775D01*
X195175Y534775D01*
X195175Y541425D01*
X196225Y541425D01*
X196225Y535772D02*
X195175Y535772D01*
X195175Y536769D02*
X196225Y536769D01*
X196225Y537766D02*
X195175Y537766D01*
X195175Y538763D02*
X196225Y538763D01*
X196225Y539760D02*
X195175Y539760D01*
X195175Y540757D02*
X196225Y540757D01*
X201225Y541425D02*
X201225Y534775D01*
X200175Y534775D01*
X200175Y541425D01*
X201225Y541425D01*
X201225Y535772D02*
X200175Y535772D01*
X200175Y536769D02*
X201225Y536769D01*
X201225Y537766D02*
X200175Y537766D01*
X200175Y538763D02*
X201225Y538763D01*
X201225Y539760D02*
X200175Y539760D01*
X200175Y540757D02*
X201225Y540757D01*
X206225Y541425D02*
X206225Y534775D01*
X205175Y534775D01*
X205175Y541425D01*
X206225Y541425D01*
X206225Y535772D02*
X205175Y535772D01*
X205175Y536769D02*
X206225Y536769D01*
X206225Y537766D02*
X205175Y537766D01*
X205175Y538763D02*
X206225Y538763D01*
X206225Y539760D02*
X205175Y539760D01*
X205175Y540757D02*
X206225Y540757D01*
X211225Y541425D02*
X211225Y534775D01*
X210175Y534775D01*
X210175Y541425D01*
X211225Y541425D01*
X211225Y535772D02*
X210175Y535772D01*
X210175Y536769D02*
X211225Y536769D01*
X211225Y537766D02*
X210175Y537766D01*
X210175Y538763D02*
X211225Y538763D01*
X211225Y539760D02*
X210175Y539760D01*
X210175Y540757D02*
X211225Y540757D01*
X513835Y210915D02*
X513835Y204265D01*
X512785Y204265D01*
X512785Y210915D01*
X513835Y210915D01*
X513835Y205262D02*
X512785Y205262D01*
X512785Y206259D02*
X513835Y206259D01*
X513835Y207256D02*
X512785Y207256D01*
X512785Y208253D02*
X513835Y208253D01*
X513835Y209250D02*
X512785Y209250D01*
X512785Y210247D02*
X513835Y210247D01*
X518835Y210915D02*
X518835Y204265D01*
X517785Y204265D01*
X517785Y210915D01*
X518835Y210915D01*
X518835Y205262D02*
X517785Y205262D01*
X517785Y206259D02*
X518835Y206259D01*
X518835Y207256D02*
X517785Y207256D01*
X517785Y208253D02*
X518835Y208253D01*
X518835Y209250D02*
X517785Y209250D01*
X517785Y210247D02*
X518835Y210247D01*
X523835Y210915D02*
X523835Y204265D01*
X522785Y204265D01*
X522785Y210915D01*
X523835Y210915D01*
X523835Y205262D02*
X522785Y205262D01*
X522785Y206259D02*
X523835Y206259D01*
X523835Y207256D02*
X522785Y207256D01*
X522785Y208253D02*
X523835Y208253D01*
X523835Y209250D02*
X522785Y209250D01*
X522785Y210247D02*
X523835Y210247D01*
X528835Y210915D02*
X528835Y204265D01*
X527785Y204265D01*
X527785Y210915D01*
X528835Y210915D01*
X528835Y205262D02*
X527785Y205262D01*
X527785Y206259D02*
X528835Y206259D01*
X528835Y207256D02*
X527785Y207256D01*
X527785Y208253D02*
X528835Y208253D01*
X528835Y209250D02*
X527785Y209250D01*
X527785Y210247D02*
X528835Y210247D01*
X527785Y220265D02*
X527785Y226915D01*
X528835Y226915D01*
X528835Y220265D01*
X527785Y220265D01*
X527785Y221262D02*
X528835Y221262D01*
X528835Y222259D02*
X527785Y222259D01*
X527785Y223256D02*
X528835Y223256D01*
X528835Y224253D02*
X527785Y224253D01*
X527785Y225250D02*
X528835Y225250D01*
X528835Y226247D02*
X527785Y226247D01*
X522785Y226915D02*
X522785Y220265D01*
X522785Y226915D02*
X523835Y226915D01*
X523835Y220265D01*
X522785Y220265D01*
X522785Y221262D02*
X523835Y221262D01*
X523835Y222259D02*
X522785Y222259D01*
X522785Y223256D02*
X523835Y223256D01*
X523835Y224253D02*
X522785Y224253D01*
X522785Y225250D02*
X523835Y225250D01*
X523835Y226247D02*
X522785Y226247D01*
X517785Y226915D02*
X517785Y220265D01*
X517785Y226915D02*
X518835Y226915D01*
X518835Y220265D01*
X517785Y220265D01*
X517785Y221262D02*
X518835Y221262D01*
X518835Y222259D02*
X517785Y222259D01*
X517785Y223256D02*
X518835Y223256D01*
X518835Y224253D02*
X517785Y224253D01*
X517785Y225250D02*
X518835Y225250D01*
X518835Y226247D02*
X517785Y226247D01*
X512785Y226915D02*
X512785Y220265D01*
X512785Y226915D02*
X513835Y226915D01*
X513835Y220265D01*
X512785Y220265D01*
X512785Y221262D02*
X513835Y221262D01*
X513835Y222259D02*
X512785Y222259D01*
X512785Y223256D02*
X513835Y223256D01*
X513835Y224253D02*
X512785Y224253D01*
X512785Y225250D02*
X513835Y225250D01*
X513835Y226247D02*
X512785Y226247D01*
X628135Y211555D02*
X628135Y204905D01*
X627085Y204905D01*
X627085Y211555D01*
X628135Y211555D01*
X628135Y205902D02*
X627085Y205902D01*
X627085Y206899D02*
X628135Y206899D01*
X628135Y207896D02*
X627085Y207896D01*
X627085Y208893D02*
X628135Y208893D01*
X628135Y209890D02*
X627085Y209890D01*
X627085Y210887D02*
X628135Y210887D01*
X633135Y211555D02*
X633135Y204905D01*
X632085Y204905D01*
X632085Y211555D01*
X633135Y211555D01*
X633135Y205902D02*
X632085Y205902D01*
X632085Y206899D02*
X633135Y206899D01*
X633135Y207896D02*
X632085Y207896D01*
X632085Y208893D02*
X633135Y208893D01*
X633135Y209890D02*
X632085Y209890D01*
X632085Y210887D02*
X633135Y210887D01*
X638135Y211555D02*
X638135Y204905D01*
X637085Y204905D01*
X637085Y211555D01*
X638135Y211555D01*
X638135Y205902D02*
X637085Y205902D01*
X637085Y206899D02*
X638135Y206899D01*
X638135Y207896D02*
X637085Y207896D01*
X637085Y208893D02*
X638135Y208893D01*
X638135Y209890D02*
X637085Y209890D01*
X637085Y210887D02*
X638135Y210887D01*
X643135Y211555D02*
X643135Y204905D01*
X642085Y204905D01*
X642085Y211555D01*
X643135Y211555D01*
X643135Y205902D02*
X642085Y205902D01*
X642085Y206899D02*
X643135Y206899D01*
X643135Y207896D02*
X642085Y207896D01*
X642085Y208893D02*
X643135Y208893D01*
X643135Y209890D02*
X642085Y209890D01*
X642085Y210887D02*
X643135Y210887D01*
X642085Y220905D02*
X642085Y227555D01*
X643135Y227555D01*
X643135Y220905D01*
X642085Y220905D01*
X642085Y221902D02*
X643135Y221902D01*
X643135Y222899D02*
X642085Y222899D01*
X642085Y223896D02*
X643135Y223896D01*
X643135Y224893D02*
X642085Y224893D01*
X642085Y225890D02*
X643135Y225890D01*
X643135Y226887D02*
X642085Y226887D01*
X637085Y227555D02*
X637085Y220905D01*
X637085Y227555D02*
X638135Y227555D01*
X638135Y220905D01*
X637085Y220905D01*
X637085Y221902D02*
X638135Y221902D01*
X638135Y222899D02*
X637085Y222899D01*
X637085Y223896D02*
X638135Y223896D01*
X638135Y224893D02*
X637085Y224893D01*
X637085Y225890D02*
X638135Y225890D01*
X638135Y226887D02*
X637085Y226887D01*
X632085Y227555D02*
X632085Y220905D01*
X632085Y227555D02*
X633135Y227555D01*
X633135Y220905D01*
X632085Y220905D01*
X632085Y221902D02*
X633135Y221902D01*
X633135Y222899D02*
X632085Y222899D01*
X632085Y223896D02*
X633135Y223896D01*
X633135Y224893D02*
X632085Y224893D01*
X632085Y225890D02*
X633135Y225890D01*
X633135Y226887D02*
X632085Y226887D01*
X627085Y227555D02*
X627085Y220905D01*
X627085Y227555D02*
X628135Y227555D01*
X628135Y220905D01*
X627085Y220905D01*
X627085Y221902D02*
X628135Y221902D01*
X628135Y222899D02*
X627085Y222899D01*
X627085Y223896D02*
X628135Y223896D01*
X628135Y224893D02*
X627085Y224893D01*
X627085Y225890D02*
X628135Y225890D01*
X628135Y226887D02*
X627085Y226887D01*
D17*
X315137Y421067D02*
X315137Y431793D01*
X319863Y431793D01*
X319863Y421067D01*
X315137Y421067D01*
X315137Y422563D02*
X319863Y422563D01*
X319863Y424059D02*
X315137Y424059D01*
X315137Y425555D02*
X319863Y425555D01*
X319863Y427051D02*
X315137Y427051D01*
X315137Y428547D02*
X319863Y428547D01*
X319863Y430043D02*
X315137Y430043D01*
X315137Y431539D02*
X319863Y431539D01*
X302437Y431793D02*
X302437Y421067D01*
X302437Y431793D02*
X307163Y431793D01*
X307163Y421067D01*
X302437Y421067D01*
X302437Y422563D02*
X307163Y422563D01*
X307163Y424059D02*
X302437Y424059D01*
X302437Y425555D02*
X307163Y425555D01*
X307163Y427051D02*
X302437Y427051D01*
X302437Y428547D02*
X307163Y428547D01*
X307163Y430043D02*
X302437Y430043D01*
X302437Y431539D02*
X307163Y431539D01*
X289737Y431793D02*
X289737Y421067D01*
X289737Y431793D02*
X294463Y431793D01*
X294463Y421067D01*
X289737Y421067D01*
X289737Y422563D02*
X294463Y422563D01*
X294463Y424059D02*
X289737Y424059D01*
X289737Y425555D02*
X294463Y425555D01*
X294463Y427051D02*
X289737Y427051D01*
X289737Y428547D02*
X294463Y428547D01*
X294463Y430043D02*
X289737Y430043D01*
X289737Y431539D02*
X294463Y431539D01*
X277037Y431793D02*
X277037Y421067D01*
X277037Y431793D02*
X281763Y431793D01*
X281763Y421067D01*
X277037Y421067D01*
X277037Y422563D02*
X281763Y422563D01*
X281763Y424059D02*
X277037Y424059D01*
X277037Y425555D02*
X281763Y425555D01*
X281763Y427051D02*
X277037Y427051D01*
X277037Y428547D02*
X281763Y428547D01*
X281763Y430043D02*
X277037Y430043D01*
X277037Y431539D02*
X281763Y431539D01*
X264337Y431793D02*
X264337Y421067D01*
X264337Y431793D02*
X269063Y431793D01*
X269063Y421067D01*
X264337Y421067D01*
X264337Y422563D02*
X269063Y422563D01*
X269063Y424059D02*
X264337Y424059D01*
X264337Y425555D02*
X269063Y425555D01*
X269063Y427051D02*
X264337Y427051D01*
X264337Y428547D02*
X269063Y428547D01*
X269063Y430043D02*
X264337Y430043D01*
X264337Y431539D02*
X269063Y431539D01*
X269063Y401893D02*
X269063Y391167D01*
X264337Y391167D01*
X264337Y401893D01*
X269063Y401893D01*
X269063Y392663D02*
X264337Y392663D01*
X264337Y394159D02*
X269063Y394159D01*
X269063Y395655D02*
X264337Y395655D01*
X264337Y397151D02*
X269063Y397151D01*
X269063Y398647D02*
X264337Y398647D01*
X264337Y400143D02*
X269063Y400143D01*
X269063Y401639D02*
X264337Y401639D01*
X281763Y401893D02*
X281763Y391167D01*
X277037Y391167D01*
X277037Y401893D01*
X281763Y401893D01*
X281763Y392663D02*
X277037Y392663D01*
X277037Y394159D02*
X281763Y394159D01*
X281763Y395655D02*
X277037Y395655D01*
X277037Y397151D02*
X281763Y397151D01*
X281763Y398647D02*
X277037Y398647D01*
X277037Y400143D02*
X281763Y400143D01*
X281763Y401639D02*
X277037Y401639D01*
X294463Y401893D02*
X294463Y391167D01*
X289737Y391167D01*
X289737Y401893D01*
X294463Y401893D01*
X294463Y392663D02*
X289737Y392663D01*
X289737Y394159D02*
X294463Y394159D01*
X294463Y395655D02*
X289737Y395655D01*
X289737Y397151D02*
X294463Y397151D01*
X294463Y398647D02*
X289737Y398647D01*
X289737Y400143D02*
X294463Y400143D01*
X294463Y401639D02*
X289737Y401639D01*
X307163Y401893D02*
X307163Y391167D01*
X302437Y391167D01*
X302437Y401893D01*
X307163Y401893D01*
X307163Y392663D02*
X302437Y392663D01*
X302437Y394159D02*
X307163Y394159D01*
X307163Y395655D02*
X302437Y395655D01*
X302437Y397151D02*
X307163Y397151D01*
X307163Y398647D02*
X302437Y398647D01*
X302437Y400143D02*
X307163Y400143D01*
X307163Y401639D02*
X302437Y401639D01*
X319863Y401893D02*
X319863Y391167D01*
X315137Y391167D01*
X315137Y401893D01*
X319863Y401893D01*
X319863Y392663D02*
X315137Y392663D01*
X315137Y394159D02*
X319863Y394159D01*
X319863Y395655D02*
X315137Y395655D01*
X315137Y397151D02*
X319863Y397151D01*
X319863Y398647D02*
X315137Y398647D01*
X315137Y400143D02*
X319863Y400143D01*
X319863Y401639D02*
X315137Y401639D01*
X314597Y357133D02*
X314597Y346407D01*
X314597Y357133D02*
X319323Y357133D01*
X319323Y346407D01*
X314597Y346407D01*
X314597Y347903D02*
X319323Y347903D01*
X319323Y349399D02*
X314597Y349399D01*
X314597Y350895D02*
X319323Y350895D01*
X319323Y352391D02*
X314597Y352391D01*
X314597Y353887D02*
X319323Y353887D01*
X319323Y355383D02*
X314597Y355383D01*
X314597Y356879D02*
X319323Y356879D01*
X301897Y357133D02*
X301897Y346407D01*
X301897Y357133D02*
X306623Y357133D01*
X306623Y346407D01*
X301897Y346407D01*
X301897Y347903D02*
X306623Y347903D01*
X306623Y349399D02*
X301897Y349399D01*
X301897Y350895D02*
X306623Y350895D01*
X306623Y352391D02*
X301897Y352391D01*
X301897Y353887D02*
X306623Y353887D01*
X306623Y355383D02*
X301897Y355383D01*
X301897Y356879D02*
X306623Y356879D01*
X289197Y357133D02*
X289197Y346407D01*
X289197Y357133D02*
X293923Y357133D01*
X293923Y346407D01*
X289197Y346407D01*
X289197Y347903D02*
X293923Y347903D01*
X293923Y349399D02*
X289197Y349399D01*
X289197Y350895D02*
X293923Y350895D01*
X293923Y352391D02*
X289197Y352391D01*
X289197Y353887D02*
X293923Y353887D01*
X293923Y355383D02*
X289197Y355383D01*
X289197Y356879D02*
X293923Y356879D01*
X276497Y357133D02*
X276497Y346407D01*
X276497Y357133D02*
X281223Y357133D01*
X281223Y346407D01*
X276497Y346407D01*
X276497Y347903D02*
X281223Y347903D01*
X281223Y349399D02*
X276497Y349399D01*
X276497Y350895D02*
X281223Y350895D01*
X281223Y352391D02*
X276497Y352391D01*
X276497Y353887D02*
X281223Y353887D01*
X281223Y355383D02*
X276497Y355383D01*
X276497Y356879D02*
X281223Y356879D01*
X263797Y357133D02*
X263797Y346407D01*
X263797Y357133D02*
X268523Y357133D01*
X268523Y346407D01*
X263797Y346407D01*
X263797Y347903D02*
X268523Y347903D01*
X268523Y349399D02*
X263797Y349399D01*
X263797Y350895D02*
X268523Y350895D01*
X268523Y352391D02*
X263797Y352391D01*
X263797Y353887D02*
X268523Y353887D01*
X268523Y355383D02*
X263797Y355383D01*
X263797Y356879D02*
X268523Y356879D01*
X268523Y327233D02*
X268523Y316507D01*
X263797Y316507D01*
X263797Y327233D01*
X268523Y327233D01*
X268523Y318003D02*
X263797Y318003D01*
X263797Y319499D02*
X268523Y319499D01*
X268523Y320995D02*
X263797Y320995D01*
X263797Y322491D02*
X268523Y322491D01*
X268523Y323987D02*
X263797Y323987D01*
X263797Y325483D02*
X268523Y325483D01*
X268523Y326979D02*
X263797Y326979D01*
X281223Y327233D02*
X281223Y316507D01*
X276497Y316507D01*
X276497Y327233D01*
X281223Y327233D01*
X281223Y318003D02*
X276497Y318003D01*
X276497Y319499D02*
X281223Y319499D01*
X281223Y320995D02*
X276497Y320995D01*
X276497Y322491D02*
X281223Y322491D01*
X281223Y323987D02*
X276497Y323987D01*
X276497Y325483D02*
X281223Y325483D01*
X281223Y326979D02*
X276497Y326979D01*
X293923Y327233D02*
X293923Y316507D01*
X289197Y316507D01*
X289197Y327233D01*
X293923Y327233D01*
X293923Y318003D02*
X289197Y318003D01*
X289197Y319499D02*
X293923Y319499D01*
X293923Y320995D02*
X289197Y320995D01*
X289197Y322491D02*
X293923Y322491D01*
X293923Y323987D02*
X289197Y323987D01*
X289197Y325483D02*
X293923Y325483D01*
X293923Y326979D02*
X289197Y326979D01*
X306623Y327233D02*
X306623Y316507D01*
X301897Y316507D01*
X301897Y327233D01*
X306623Y327233D01*
X306623Y318003D02*
X301897Y318003D01*
X301897Y319499D02*
X306623Y319499D01*
X306623Y320995D02*
X301897Y320995D01*
X301897Y322491D02*
X306623Y322491D01*
X306623Y323987D02*
X301897Y323987D01*
X301897Y325483D02*
X306623Y325483D01*
X306623Y326979D02*
X301897Y326979D01*
X319323Y327233D02*
X319323Y316507D01*
X314597Y316507D01*
X314597Y327233D01*
X319323Y327233D01*
X319323Y318003D02*
X314597Y318003D01*
X314597Y319499D02*
X319323Y319499D01*
X319323Y320995D02*
X314597Y320995D01*
X314597Y322491D02*
X319323Y322491D01*
X319323Y323987D02*
X314597Y323987D01*
X314597Y325483D02*
X319323Y325483D01*
X319323Y326979D02*
X314597Y326979D01*
X314597Y499427D02*
X314597Y510153D01*
X319323Y510153D01*
X319323Y499427D01*
X314597Y499427D01*
X314597Y500923D02*
X319323Y500923D01*
X319323Y502419D02*
X314597Y502419D01*
X314597Y503915D02*
X319323Y503915D01*
X319323Y505411D02*
X314597Y505411D01*
X314597Y506907D02*
X319323Y506907D01*
X319323Y508403D02*
X314597Y508403D01*
X314597Y509899D02*
X319323Y509899D01*
X301897Y510153D02*
X301897Y499427D01*
X301897Y510153D02*
X306623Y510153D01*
X306623Y499427D01*
X301897Y499427D01*
X301897Y500923D02*
X306623Y500923D01*
X306623Y502419D02*
X301897Y502419D01*
X301897Y503915D02*
X306623Y503915D01*
X306623Y505411D02*
X301897Y505411D01*
X301897Y506907D02*
X306623Y506907D01*
X306623Y508403D02*
X301897Y508403D01*
X301897Y509899D02*
X306623Y509899D01*
X289197Y510153D02*
X289197Y499427D01*
X289197Y510153D02*
X293923Y510153D01*
X293923Y499427D01*
X289197Y499427D01*
X289197Y500923D02*
X293923Y500923D01*
X293923Y502419D02*
X289197Y502419D01*
X289197Y503915D02*
X293923Y503915D01*
X293923Y505411D02*
X289197Y505411D01*
X289197Y506907D02*
X293923Y506907D01*
X293923Y508403D02*
X289197Y508403D01*
X289197Y509899D02*
X293923Y509899D01*
X276497Y510153D02*
X276497Y499427D01*
X276497Y510153D02*
X281223Y510153D01*
X281223Y499427D01*
X276497Y499427D01*
X276497Y500923D02*
X281223Y500923D01*
X281223Y502419D02*
X276497Y502419D01*
X276497Y503915D02*
X281223Y503915D01*
X281223Y505411D02*
X276497Y505411D01*
X276497Y506907D02*
X281223Y506907D01*
X281223Y508403D02*
X276497Y508403D01*
X276497Y509899D02*
X281223Y509899D01*
X263797Y510153D02*
X263797Y499427D01*
X263797Y510153D02*
X268523Y510153D01*
X268523Y499427D01*
X263797Y499427D01*
X263797Y500923D02*
X268523Y500923D01*
X268523Y502419D02*
X263797Y502419D01*
X263797Y503915D02*
X268523Y503915D01*
X268523Y505411D02*
X263797Y505411D01*
X263797Y506907D02*
X268523Y506907D01*
X268523Y508403D02*
X263797Y508403D01*
X263797Y509899D02*
X268523Y509899D01*
X268523Y480253D02*
X268523Y469527D01*
X263797Y469527D01*
X263797Y480253D01*
X268523Y480253D01*
X268523Y471023D02*
X263797Y471023D01*
X263797Y472519D02*
X268523Y472519D01*
X268523Y474015D02*
X263797Y474015D01*
X263797Y475511D02*
X268523Y475511D01*
X268523Y477007D02*
X263797Y477007D01*
X263797Y478503D02*
X268523Y478503D01*
X268523Y479999D02*
X263797Y479999D01*
X281223Y480253D02*
X281223Y469527D01*
X276497Y469527D01*
X276497Y480253D01*
X281223Y480253D01*
X281223Y471023D02*
X276497Y471023D01*
X276497Y472519D02*
X281223Y472519D01*
X281223Y474015D02*
X276497Y474015D01*
X276497Y475511D02*
X281223Y475511D01*
X281223Y477007D02*
X276497Y477007D01*
X276497Y478503D02*
X281223Y478503D01*
X281223Y479999D02*
X276497Y479999D01*
X293923Y480253D02*
X293923Y469527D01*
X289197Y469527D01*
X289197Y480253D01*
X293923Y480253D01*
X293923Y471023D02*
X289197Y471023D01*
X289197Y472519D02*
X293923Y472519D01*
X293923Y474015D02*
X289197Y474015D01*
X289197Y475511D02*
X293923Y475511D01*
X293923Y477007D02*
X289197Y477007D01*
X289197Y478503D02*
X293923Y478503D01*
X293923Y479999D02*
X289197Y479999D01*
X306623Y480253D02*
X306623Y469527D01*
X301897Y469527D01*
X301897Y480253D01*
X306623Y480253D01*
X306623Y471023D02*
X301897Y471023D01*
X301897Y472519D02*
X306623Y472519D01*
X306623Y474015D02*
X301897Y474015D01*
X301897Y475511D02*
X306623Y475511D01*
X306623Y477007D02*
X301897Y477007D01*
X301897Y478503D02*
X306623Y478503D01*
X306623Y479999D02*
X301897Y479999D01*
X319323Y480253D02*
X319323Y469527D01*
X314597Y469527D01*
X314597Y480253D01*
X319323Y480253D01*
X319323Y471023D02*
X314597Y471023D01*
X314597Y472519D02*
X319323Y472519D01*
X319323Y474015D02*
X314597Y474015D01*
X314597Y475511D02*
X319323Y475511D01*
X319323Y477007D02*
X314597Y477007D01*
X314597Y478503D02*
X319323Y478503D01*
X319323Y479999D02*
X314597Y479999D01*
D16*
X729735Y210895D02*
X729735Y204245D01*
X728685Y204245D01*
X728685Y210895D01*
X729735Y210895D01*
X729735Y205242D02*
X728685Y205242D01*
X728685Y206239D02*
X729735Y206239D01*
X729735Y207236D02*
X728685Y207236D01*
X728685Y208233D02*
X729735Y208233D01*
X729735Y209230D02*
X728685Y209230D01*
X728685Y210227D02*
X729735Y210227D01*
X734735Y210895D02*
X734735Y204245D01*
X733685Y204245D01*
X733685Y210895D01*
X734735Y210895D01*
X734735Y205242D02*
X733685Y205242D01*
X733685Y206239D02*
X734735Y206239D01*
X734735Y207236D02*
X733685Y207236D01*
X733685Y208233D02*
X734735Y208233D01*
X734735Y209230D02*
X733685Y209230D01*
X733685Y210227D02*
X734735Y210227D01*
X739735Y210895D02*
X739735Y204245D01*
X738685Y204245D01*
X738685Y210895D01*
X739735Y210895D01*
X739735Y205242D02*
X738685Y205242D01*
X738685Y206239D02*
X739735Y206239D01*
X739735Y207236D02*
X738685Y207236D01*
X738685Y208233D02*
X739735Y208233D01*
X739735Y209230D02*
X738685Y209230D01*
X738685Y210227D02*
X739735Y210227D01*
X744735Y210895D02*
X744735Y204245D01*
X743685Y204245D01*
X743685Y210895D01*
X744735Y210895D01*
X744735Y205242D02*
X743685Y205242D01*
X743685Y206239D02*
X744735Y206239D01*
X744735Y207236D02*
X743685Y207236D01*
X743685Y208233D02*
X744735Y208233D01*
X744735Y209230D02*
X743685Y209230D01*
X743685Y210227D02*
X744735Y210227D01*
X743685Y220245D02*
X743685Y226895D01*
X744735Y226895D01*
X744735Y220245D01*
X743685Y220245D01*
X743685Y221242D02*
X744735Y221242D01*
X744735Y222239D02*
X743685Y222239D01*
X743685Y223236D02*
X744735Y223236D01*
X744735Y224233D02*
X743685Y224233D01*
X743685Y225230D02*
X744735Y225230D01*
X744735Y226227D02*
X743685Y226227D01*
X738685Y226895D02*
X738685Y220245D01*
X738685Y226895D02*
X739735Y226895D01*
X739735Y220245D01*
X738685Y220245D01*
X738685Y221242D02*
X739735Y221242D01*
X739735Y222239D02*
X738685Y222239D01*
X738685Y223236D02*
X739735Y223236D01*
X739735Y224233D02*
X738685Y224233D01*
X738685Y225230D02*
X739735Y225230D01*
X739735Y226227D02*
X738685Y226227D01*
X733685Y226895D02*
X733685Y220245D01*
X733685Y226895D02*
X734735Y226895D01*
X734735Y220245D01*
X733685Y220245D01*
X733685Y221242D02*
X734735Y221242D01*
X734735Y222239D02*
X733685Y222239D01*
X733685Y223236D02*
X734735Y223236D01*
X734735Y224233D02*
X733685Y224233D01*
X733685Y225230D02*
X734735Y225230D01*
X734735Y226227D02*
X733685Y226227D01*
X728685Y226895D02*
X728685Y220245D01*
X728685Y226895D02*
X729735Y226895D01*
X729735Y220245D01*
X728685Y220245D01*
X728685Y221242D02*
X729735Y221242D01*
X729735Y222239D02*
X728685Y222239D01*
X728685Y223236D02*
X729735Y223236D01*
X729735Y224233D02*
X728685Y224233D01*
X728685Y225230D02*
X729735Y225230D01*
X729735Y226227D02*
X728685Y226227D01*
D17*
X315137Y269937D02*
X315137Y280663D01*
X319863Y280663D01*
X319863Y269937D01*
X315137Y269937D01*
X315137Y271433D02*
X319863Y271433D01*
X319863Y272929D02*
X315137Y272929D01*
X315137Y274425D02*
X319863Y274425D01*
X319863Y275921D02*
X315137Y275921D01*
X315137Y277417D02*
X319863Y277417D01*
X319863Y278913D02*
X315137Y278913D01*
X315137Y280409D02*
X319863Y280409D01*
X302437Y280663D02*
X302437Y269937D01*
X302437Y280663D02*
X307163Y280663D01*
X307163Y269937D01*
X302437Y269937D01*
X302437Y271433D02*
X307163Y271433D01*
X307163Y272929D02*
X302437Y272929D01*
X302437Y274425D02*
X307163Y274425D01*
X307163Y275921D02*
X302437Y275921D01*
X302437Y277417D02*
X307163Y277417D01*
X307163Y278913D02*
X302437Y278913D01*
X302437Y280409D02*
X307163Y280409D01*
X289737Y280663D02*
X289737Y269937D01*
X289737Y280663D02*
X294463Y280663D01*
X294463Y269937D01*
X289737Y269937D01*
X289737Y271433D02*
X294463Y271433D01*
X294463Y272929D02*
X289737Y272929D01*
X289737Y274425D02*
X294463Y274425D01*
X294463Y275921D02*
X289737Y275921D01*
X289737Y277417D02*
X294463Y277417D01*
X294463Y278913D02*
X289737Y278913D01*
X289737Y280409D02*
X294463Y280409D01*
X277037Y280663D02*
X277037Y269937D01*
X277037Y280663D02*
X281763Y280663D01*
X281763Y269937D01*
X277037Y269937D01*
X277037Y271433D02*
X281763Y271433D01*
X281763Y272929D02*
X277037Y272929D01*
X277037Y274425D02*
X281763Y274425D01*
X281763Y275921D02*
X277037Y275921D01*
X277037Y277417D02*
X281763Y277417D01*
X281763Y278913D02*
X277037Y278913D01*
X277037Y280409D02*
X281763Y280409D01*
X264337Y280663D02*
X264337Y269937D01*
X264337Y280663D02*
X269063Y280663D01*
X269063Y269937D01*
X264337Y269937D01*
X264337Y271433D02*
X269063Y271433D01*
X269063Y272929D02*
X264337Y272929D01*
X264337Y274425D02*
X269063Y274425D01*
X269063Y275921D02*
X264337Y275921D01*
X264337Y277417D02*
X269063Y277417D01*
X269063Y278913D02*
X264337Y278913D01*
X264337Y280409D02*
X269063Y280409D01*
X269063Y250763D02*
X269063Y240037D01*
X264337Y240037D01*
X264337Y250763D01*
X269063Y250763D01*
X269063Y241533D02*
X264337Y241533D01*
X264337Y243029D02*
X269063Y243029D01*
X269063Y244525D02*
X264337Y244525D01*
X264337Y246021D02*
X269063Y246021D01*
X269063Y247517D02*
X264337Y247517D01*
X264337Y249013D02*
X269063Y249013D01*
X269063Y250509D02*
X264337Y250509D01*
X281763Y250763D02*
X281763Y240037D01*
X277037Y240037D01*
X277037Y250763D01*
X281763Y250763D01*
X281763Y241533D02*
X277037Y241533D01*
X277037Y243029D02*
X281763Y243029D01*
X281763Y244525D02*
X277037Y244525D01*
X277037Y246021D02*
X281763Y246021D01*
X281763Y247517D02*
X277037Y247517D01*
X277037Y249013D02*
X281763Y249013D01*
X281763Y250509D02*
X277037Y250509D01*
X294463Y250763D02*
X294463Y240037D01*
X289737Y240037D01*
X289737Y250763D01*
X294463Y250763D01*
X294463Y241533D02*
X289737Y241533D01*
X289737Y243029D02*
X294463Y243029D01*
X294463Y244525D02*
X289737Y244525D01*
X289737Y246021D02*
X294463Y246021D01*
X294463Y247517D02*
X289737Y247517D01*
X289737Y249013D02*
X294463Y249013D01*
X294463Y250509D02*
X289737Y250509D01*
X307163Y250763D02*
X307163Y240037D01*
X302437Y240037D01*
X302437Y250763D01*
X307163Y250763D01*
X307163Y241533D02*
X302437Y241533D01*
X302437Y243029D02*
X307163Y243029D01*
X307163Y244525D02*
X302437Y244525D01*
X302437Y246021D02*
X307163Y246021D01*
X307163Y247517D02*
X302437Y247517D01*
X302437Y249013D02*
X307163Y249013D01*
X307163Y250509D02*
X302437Y250509D01*
X319863Y250763D02*
X319863Y240037D01*
X315137Y240037D01*
X315137Y250763D01*
X319863Y250763D01*
X319863Y241533D02*
X315137Y241533D01*
X315137Y243029D02*
X319863Y243029D01*
X319863Y244525D02*
X315137Y244525D01*
X315137Y246021D02*
X319863Y246021D01*
X319863Y247517D02*
X315137Y247517D01*
X315137Y249013D02*
X319863Y249013D01*
X319863Y250509D02*
X315137Y250509D01*
D18*
X730410Y426060D03*
X730410Y407060D03*
X751410Y416560D03*
D19*
X702310Y425060D03*
X702310Y408060D03*
X765810Y425060D03*
X765810Y408060D03*
D18*
X730410Y464160D03*
X730410Y445160D03*
X751410Y454660D03*
D19*
X702310Y463160D03*
X702310Y446160D03*
X765810Y463160D03*
X765810Y446160D03*
D20*
X848280Y443170D03*
X848280Y499170D03*
D21*
X811530Y456170D03*
X811530Y466170D03*
X811530Y476170D03*
X811530Y486170D03*
D20*
X848280Y366970D03*
X848280Y422970D03*
D21*
X811530Y379970D03*
X811530Y389970D03*
X811530Y399970D03*
X811530Y409970D03*
M02*
