G04 EAGLE Gerber RS-274X export*
G75*
%MOMM*%
%FSLAX34Y34*%
%LPD*%
%INSoldermask Top*%
%IPPOS*%
%AMOC8*
5,1,8,0,0,1.08239X$1,22.5*%
G01*
%ADD10R,1.400000X1.200000*%
%ADD11R,0.900000X0.850000*%
%ADD12R,0.850000X0.900000*%
%ADD13R,1.350000X0.500000*%
%ADD14R,1.650000X0.500000*%
%ADD15C,1.400000*%
%ADD16C,1.318000*%
%ADD17C,0.105000*%
%ADD18C,0.157500*%
%ADD19C,1.879600*%
%ADD20C,3.200000*%
%ADD21R,0.900000X0.800000*%
%ADD22R,1.000000X1.100000*%
%ADD23R,2.000000X1.200000*%
%ADD24R,1.350000X0.600000*%
%ADD25C,0.914400*%

G36*
X153996Y270230D02*
X153996Y270230D01*
X153995Y270230D01*
X153996Y270230D01*
X153996Y274402D01*
X153991Y274407D01*
X145996Y274407D01*
X153633Y282865D01*
X153633Y282867D01*
X153634Y282869D01*
X153634Y286520D01*
X153630Y286525D01*
X153629Y286525D01*
X139869Y286525D01*
X139864Y286521D01*
X139865Y286521D01*
X139864Y286520D01*
X139864Y282341D01*
X139869Y282336D01*
X139869Y282337D01*
X139869Y282336D01*
X147001Y282336D01*
X139433Y274154D01*
X139433Y274152D01*
X139432Y274151D01*
X139432Y270230D01*
X139436Y270225D01*
X139437Y270226D01*
X139437Y270225D01*
X153991Y270225D01*
X153996Y270230D01*
G37*
G36*
X217806Y270070D02*
X217806Y270070D01*
X217807Y270070D01*
X218188Y270134D01*
X218643Y270267D01*
X218900Y270375D01*
X218900Y270376D01*
X218901Y270376D01*
X219133Y270510D01*
X219134Y270510D01*
X219277Y270612D01*
X219529Y270850D01*
X219529Y270851D01*
X219638Y270987D01*
X219734Y271134D01*
X219735Y271134D01*
X219818Y271290D01*
X219839Y271290D01*
X219839Y270230D01*
X219843Y270225D01*
X219844Y270226D01*
X219844Y270225D01*
X221139Y270225D01*
X221144Y270230D01*
X221144Y281086D01*
X221140Y281091D01*
X221139Y281090D01*
X221139Y281091D01*
X219844Y281091D01*
X219839Y281086D01*
X219839Y277044D01*
X219817Y277044D01*
X219707Y277213D01*
X219706Y277213D01*
X219548Y277403D01*
X219547Y277403D01*
X219330Y277603D01*
X219096Y277770D01*
X219095Y277770D01*
X219095Y277771D01*
X218763Y277957D01*
X218762Y277957D01*
X218281Y278134D01*
X218281Y278135D01*
X217800Y278238D01*
X217316Y278278D01*
X217315Y278277D01*
X217315Y278278D01*
X217248Y278274D01*
X217247Y278274D01*
X217155Y278269D01*
X217062Y278264D01*
X216969Y278259D01*
X216877Y278254D01*
X216876Y278254D01*
X216784Y278249D01*
X216736Y278247D01*
X216736Y278246D01*
X216735Y278247D01*
X216239Y278150D01*
X215786Y277990D01*
X215785Y277989D01*
X215299Y277724D01*
X215078Y277565D01*
X214811Y277329D01*
X214810Y277329D01*
X214517Y276991D01*
X214267Y276615D01*
X214267Y276614D01*
X214062Y276203D01*
X214062Y276202D01*
X213848Y275572D01*
X213848Y275571D01*
X213724Y274897D01*
X213682Y274082D01*
X213683Y274082D01*
X213682Y274081D01*
X213738Y273368D01*
X213906Y272598D01*
X213907Y272597D01*
X214150Y271980D01*
X214376Y271578D01*
X214643Y271211D01*
X214643Y271210D01*
X215024Y270830D01*
X215025Y270830D01*
X215025Y270829D01*
X215312Y270610D01*
X215313Y270610D01*
X215792Y270341D01*
X216118Y270224D01*
X216119Y270224D01*
X216472Y270143D01*
X217141Y270075D01*
X217141Y270076D01*
X217142Y270076D01*
X217146Y270079D01*
X217146Y270080D01*
X217146Y271265D01*
X217142Y271270D01*
X216704Y271334D01*
X216571Y271368D01*
X216485Y271399D01*
X216291Y271499D01*
X215982Y271719D01*
X215803Y271894D01*
X215645Y272090D01*
X215442Y272410D01*
X215284Y272766D01*
X215139Y273285D01*
X215079Y273686D01*
X215060Y274159D01*
X215089Y274660D01*
X215196Y275285D01*
X215316Y275672D01*
X215507Y276081D01*
X215683Y276342D01*
X215848Y276528D01*
X216033Y276693D01*
X216355Y276902D01*
X216597Y277009D01*
X216868Y277081D01*
X217248Y277129D01*
X217576Y277129D01*
X218031Y277067D01*
X218239Y277012D01*
X218431Y276938D01*
X218777Y276744D01*
X219117Y276459D01*
X219320Y276220D01*
X219488Y275950D01*
X219650Y275592D01*
X219780Y275133D01*
X219861Y274650D01*
X219880Y273881D01*
X219825Y273409D01*
X219722Y272945D01*
X219614Y272632D01*
X219505Y272398D01*
X219376Y272176D01*
X219185Y271927D01*
X219010Y271748D01*
X218866Y271628D01*
X218654Y271482D01*
X218357Y271337D01*
X218091Y271258D01*
X217647Y271196D01*
X217509Y271194D01*
X217507Y271194D01*
X217471Y271193D01*
X217440Y271196D01*
X217382Y271212D01*
X217355Y271222D01*
X217354Y271222D01*
X217341Y271225D01*
X217327Y271230D01*
X217327Y271231D01*
X217270Y271244D01*
X217269Y271244D01*
X217269Y271245D01*
X217252Y271246D01*
X217247Y271242D01*
X217246Y271241D01*
X217246Y270058D01*
X217251Y270053D01*
X217261Y270053D01*
X217266Y270050D01*
X217268Y270050D01*
X217269Y270050D01*
X217271Y270050D01*
X217277Y270047D01*
X217278Y270047D01*
X217279Y270046D01*
X217281Y270046D01*
X217287Y270043D01*
X217289Y270044D01*
X217289Y270043D01*
X217298Y270043D01*
X217301Y270041D01*
X217302Y270042D01*
X217303Y270041D01*
X217806Y270070D01*
G37*
G36*
X206651Y270230D02*
X206651Y270230D01*
X206650Y270230D01*
X206651Y270230D01*
X206678Y275118D01*
X206757Y275538D01*
X206829Y275761D01*
X207000Y276119D01*
X207156Y276349D01*
X207340Y276554D01*
X207551Y276727D01*
X207893Y276923D01*
X208173Y277028D01*
X208484Y277098D01*
X208899Y277133D01*
X209237Y277119D01*
X209561Y277050D01*
X209706Y276995D01*
X209842Y276928D01*
X209969Y276849D01*
X210086Y276757D01*
X210191Y276650D01*
X210283Y276535D01*
X210364Y276410D01*
X210431Y276276D01*
X210482Y276132D01*
X210551Y275816D01*
X210565Y270230D01*
X210569Y270225D01*
X210569Y270226D01*
X210570Y270225D01*
X211862Y270225D01*
X211866Y270230D01*
X211867Y270230D01*
X211854Y275789D01*
X211804Y276225D01*
X211804Y276226D01*
X211701Y276694D01*
X211701Y276695D01*
X211613Y276938D01*
X211501Y277164D01*
X211500Y277164D01*
X211500Y277165D01*
X211325Y277423D01*
X211324Y277423D01*
X211114Y277651D01*
X210969Y277772D01*
X210695Y277948D01*
X210694Y277948D01*
X210315Y278115D01*
X210314Y278115D01*
X210314Y278116D01*
X209946Y278212D01*
X209945Y278212D01*
X209526Y278266D01*
X209526Y278265D01*
X209526Y278266D01*
X209123Y278265D01*
X209111Y278265D01*
X208842Y278264D01*
X208841Y278264D01*
X208292Y278173D01*
X208291Y278172D01*
X207850Y278024D01*
X207849Y278024D01*
X207558Y277883D01*
X207558Y277882D01*
X207285Y277702D01*
X207285Y277701D01*
X207140Y277579D01*
X206942Y277377D01*
X206941Y277377D01*
X206804Y277189D01*
X206804Y277188D01*
X206803Y277188D01*
X206670Y276939D01*
X206651Y276939D01*
X206651Y281086D01*
X206646Y281091D01*
X206646Y281090D01*
X206646Y281091D01*
X205350Y281091D01*
X205345Y281086D01*
X205346Y281086D01*
X205345Y281086D01*
X205345Y270230D01*
X205350Y270225D01*
X205350Y270226D01*
X205350Y270225D01*
X206646Y270225D01*
X206651Y270230D01*
G37*
G36*
X224808Y270230D02*
X224808Y270230D01*
X224808Y273208D01*
X226020Y274326D01*
X228707Y270227D01*
X228710Y270227D01*
X228711Y270225D01*
X230357Y270225D01*
X230357Y270226D01*
X230359Y270226D01*
X230359Y270228D01*
X230361Y270230D01*
X230360Y270231D01*
X230361Y270233D01*
X227016Y275232D01*
X230131Y278092D01*
X230131Y278094D01*
X230132Y278095D01*
X230131Y278096D01*
X230131Y278098D01*
X230129Y278098D01*
X230127Y278100D01*
X228393Y278100D01*
X228391Y278099D01*
X228389Y278099D01*
X224808Y274665D01*
X224808Y281086D01*
X224804Y281091D01*
X224803Y281090D01*
X224803Y281091D01*
X223511Y281091D01*
X223506Y281086D01*
X223506Y270230D01*
X223511Y270225D01*
X223511Y270226D01*
X223511Y270225D01*
X224803Y270225D01*
X224808Y270230D01*
G37*
D10*
X839480Y243900D03*
X839480Y213900D03*
D11*
X838850Y267270D03*
X838850Y255670D03*
D12*
X190170Y401590D03*
X178570Y401590D03*
D13*
X66720Y462780D03*
D14*
X86720Y462780D03*
D13*
X66720Y454780D03*
D14*
X86720Y454780D03*
D13*
X66720Y446780D03*
D14*
X86720Y446780D03*
D13*
X66720Y438780D03*
D14*
X86720Y438780D03*
D13*
X66720Y430780D03*
D14*
X86720Y430780D03*
D13*
X66720Y422780D03*
D14*
X86720Y422780D03*
D13*
X66720Y382780D03*
D14*
X86720Y382780D03*
D13*
X66720Y374780D03*
D14*
X86720Y374780D03*
D13*
X66720Y366780D03*
D14*
X86720Y366780D03*
D13*
X66720Y358780D03*
D14*
X86720Y358780D03*
D15*
X77470Y493780D03*
X77470Y303780D03*
D13*
X66720Y350780D03*
D14*
X86720Y350780D03*
D13*
X66720Y342780D03*
D14*
X86720Y342780D03*
D13*
X66720Y334780D03*
D14*
X86720Y334780D03*
D16*
X7470Y493580D03*
X7470Y303980D03*
D17*
X514975Y550775D02*
X514975Y557425D01*
X516025Y557425D01*
X516025Y550775D01*
X514975Y550775D01*
X514975Y551772D02*
X516025Y551772D01*
X516025Y552769D02*
X514975Y552769D01*
X514975Y553766D02*
X516025Y553766D01*
X516025Y554763D02*
X514975Y554763D01*
X514975Y555760D02*
X516025Y555760D01*
X516025Y556757D02*
X514975Y556757D01*
X509975Y557425D02*
X509975Y550775D01*
X509975Y557425D02*
X511025Y557425D01*
X511025Y550775D01*
X509975Y550775D01*
X509975Y551772D02*
X511025Y551772D01*
X511025Y552769D02*
X509975Y552769D01*
X509975Y553766D02*
X511025Y553766D01*
X511025Y554763D02*
X509975Y554763D01*
X509975Y555760D02*
X511025Y555760D01*
X511025Y556757D02*
X509975Y556757D01*
X504975Y557425D02*
X504975Y550775D01*
X504975Y557425D02*
X506025Y557425D01*
X506025Y550775D01*
X504975Y550775D01*
X504975Y551772D02*
X506025Y551772D01*
X506025Y552769D02*
X504975Y552769D01*
X504975Y553766D02*
X506025Y553766D01*
X506025Y554763D02*
X504975Y554763D01*
X504975Y555760D02*
X506025Y555760D01*
X506025Y556757D02*
X504975Y556757D01*
X499975Y557425D02*
X499975Y550775D01*
X499975Y557425D02*
X501025Y557425D01*
X501025Y550775D01*
X499975Y550775D01*
X499975Y551772D02*
X501025Y551772D01*
X501025Y552769D02*
X499975Y552769D01*
X499975Y553766D02*
X501025Y553766D01*
X501025Y554763D02*
X499975Y554763D01*
X499975Y555760D02*
X501025Y555760D01*
X501025Y556757D02*
X499975Y556757D01*
X501025Y541425D02*
X501025Y534775D01*
X499975Y534775D01*
X499975Y541425D01*
X501025Y541425D01*
X501025Y535772D02*
X499975Y535772D01*
X499975Y536769D02*
X501025Y536769D01*
X501025Y537766D02*
X499975Y537766D01*
X499975Y538763D02*
X501025Y538763D01*
X501025Y539760D02*
X499975Y539760D01*
X499975Y540757D02*
X501025Y540757D01*
X506025Y541425D02*
X506025Y534775D01*
X504975Y534775D01*
X504975Y541425D01*
X506025Y541425D01*
X506025Y535772D02*
X504975Y535772D01*
X504975Y536769D02*
X506025Y536769D01*
X506025Y537766D02*
X504975Y537766D01*
X504975Y538763D02*
X506025Y538763D01*
X506025Y539760D02*
X504975Y539760D01*
X504975Y540757D02*
X506025Y540757D01*
X511025Y541425D02*
X511025Y534775D01*
X509975Y534775D01*
X509975Y541425D01*
X511025Y541425D01*
X511025Y535772D02*
X509975Y535772D01*
X509975Y536769D02*
X511025Y536769D01*
X511025Y537766D02*
X509975Y537766D01*
X509975Y538763D02*
X511025Y538763D01*
X511025Y539760D02*
X509975Y539760D01*
X509975Y540757D02*
X511025Y540757D01*
X516025Y541425D02*
X516025Y534775D01*
X514975Y534775D01*
X514975Y541425D01*
X516025Y541425D01*
X516025Y535772D02*
X514975Y535772D01*
X514975Y536769D02*
X516025Y536769D01*
X516025Y537766D02*
X514975Y537766D01*
X514975Y538763D02*
X516025Y538763D01*
X516025Y539760D02*
X514975Y539760D01*
X514975Y540757D02*
X516025Y540757D01*
X362575Y550775D02*
X362575Y557425D01*
X363625Y557425D01*
X363625Y550775D01*
X362575Y550775D01*
X362575Y551772D02*
X363625Y551772D01*
X363625Y552769D02*
X362575Y552769D01*
X362575Y553766D02*
X363625Y553766D01*
X363625Y554763D02*
X362575Y554763D01*
X362575Y555760D02*
X363625Y555760D01*
X363625Y556757D02*
X362575Y556757D01*
X357575Y557425D02*
X357575Y550775D01*
X357575Y557425D02*
X358625Y557425D01*
X358625Y550775D01*
X357575Y550775D01*
X357575Y551772D02*
X358625Y551772D01*
X358625Y552769D02*
X357575Y552769D01*
X357575Y553766D02*
X358625Y553766D01*
X358625Y554763D02*
X357575Y554763D01*
X357575Y555760D02*
X358625Y555760D01*
X358625Y556757D02*
X357575Y556757D01*
X352575Y557425D02*
X352575Y550775D01*
X352575Y557425D02*
X353625Y557425D01*
X353625Y550775D01*
X352575Y550775D01*
X352575Y551772D02*
X353625Y551772D01*
X353625Y552769D02*
X352575Y552769D01*
X352575Y553766D02*
X353625Y553766D01*
X353625Y554763D02*
X352575Y554763D01*
X352575Y555760D02*
X353625Y555760D01*
X353625Y556757D02*
X352575Y556757D01*
X347575Y557425D02*
X347575Y550775D01*
X347575Y557425D02*
X348625Y557425D01*
X348625Y550775D01*
X347575Y550775D01*
X347575Y551772D02*
X348625Y551772D01*
X348625Y552769D02*
X347575Y552769D01*
X347575Y553766D02*
X348625Y553766D01*
X348625Y554763D02*
X347575Y554763D01*
X347575Y555760D02*
X348625Y555760D01*
X348625Y556757D02*
X347575Y556757D01*
X348625Y541425D02*
X348625Y534775D01*
X347575Y534775D01*
X347575Y541425D01*
X348625Y541425D01*
X348625Y535772D02*
X347575Y535772D01*
X347575Y536769D02*
X348625Y536769D01*
X348625Y537766D02*
X347575Y537766D01*
X347575Y538763D02*
X348625Y538763D01*
X348625Y539760D02*
X347575Y539760D01*
X347575Y540757D02*
X348625Y540757D01*
X353625Y541425D02*
X353625Y534775D01*
X352575Y534775D01*
X352575Y541425D01*
X353625Y541425D01*
X353625Y535772D02*
X352575Y535772D01*
X352575Y536769D02*
X353625Y536769D01*
X353625Y537766D02*
X352575Y537766D01*
X352575Y538763D02*
X353625Y538763D01*
X353625Y539760D02*
X352575Y539760D01*
X352575Y540757D02*
X353625Y540757D01*
X358625Y541425D02*
X358625Y534775D01*
X357575Y534775D01*
X357575Y541425D01*
X358625Y541425D01*
X358625Y535772D02*
X357575Y535772D01*
X357575Y536769D02*
X358625Y536769D01*
X358625Y537766D02*
X357575Y537766D01*
X357575Y538763D02*
X358625Y538763D01*
X358625Y539760D02*
X357575Y539760D01*
X357575Y540757D02*
X358625Y540757D01*
X363625Y541425D02*
X363625Y534775D01*
X362575Y534775D01*
X362575Y541425D01*
X363625Y541425D01*
X363625Y535772D02*
X362575Y535772D01*
X362575Y536769D02*
X363625Y536769D01*
X363625Y537766D02*
X362575Y537766D01*
X362575Y538763D02*
X363625Y538763D01*
X363625Y539760D02*
X362575Y539760D01*
X362575Y540757D02*
X363625Y540757D01*
X286375Y550775D02*
X286375Y557425D01*
X287425Y557425D01*
X287425Y550775D01*
X286375Y550775D01*
X286375Y551772D02*
X287425Y551772D01*
X287425Y552769D02*
X286375Y552769D01*
X286375Y553766D02*
X287425Y553766D01*
X287425Y554763D02*
X286375Y554763D01*
X286375Y555760D02*
X287425Y555760D01*
X287425Y556757D02*
X286375Y556757D01*
X281375Y557425D02*
X281375Y550775D01*
X281375Y557425D02*
X282425Y557425D01*
X282425Y550775D01*
X281375Y550775D01*
X281375Y551772D02*
X282425Y551772D01*
X282425Y552769D02*
X281375Y552769D01*
X281375Y553766D02*
X282425Y553766D01*
X282425Y554763D02*
X281375Y554763D01*
X281375Y555760D02*
X282425Y555760D01*
X282425Y556757D02*
X281375Y556757D01*
X276375Y557425D02*
X276375Y550775D01*
X276375Y557425D02*
X277425Y557425D01*
X277425Y550775D01*
X276375Y550775D01*
X276375Y551772D02*
X277425Y551772D01*
X277425Y552769D02*
X276375Y552769D01*
X276375Y553766D02*
X277425Y553766D01*
X277425Y554763D02*
X276375Y554763D01*
X276375Y555760D02*
X277425Y555760D01*
X277425Y556757D02*
X276375Y556757D01*
X271375Y557425D02*
X271375Y550775D01*
X271375Y557425D02*
X272425Y557425D01*
X272425Y550775D01*
X271375Y550775D01*
X271375Y551772D02*
X272425Y551772D01*
X272425Y552769D02*
X271375Y552769D01*
X271375Y553766D02*
X272425Y553766D01*
X272425Y554763D02*
X271375Y554763D01*
X271375Y555760D02*
X272425Y555760D01*
X272425Y556757D02*
X271375Y556757D01*
X272425Y541425D02*
X272425Y534775D01*
X271375Y534775D01*
X271375Y541425D01*
X272425Y541425D01*
X272425Y535772D02*
X271375Y535772D01*
X271375Y536769D02*
X272425Y536769D01*
X272425Y537766D02*
X271375Y537766D01*
X271375Y538763D02*
X272425Y538763D01*
X272425Y539760D02*
X271375Y539760D01*
X271375Y540757D02*
X272425Y540757D01*
X277425Y541425D02*
X277425Y534775D01*
X276375Y534775D01*
X276375Y541425D01*
X277425Y541425D01*
X277425Y535772D02*
X276375Y535772D01*
X276375Y536769D02*
X277425Y536769D01*
X277425Y537766D02*
X276375Y537766D01*
X276375Y538763D02*
X277425Y538763D01*
X277425Y539760D02*
X276375Y539760D01*
X276375Y540757D02*
X277425Y540757D01*
X282425Y541425D02*
X282425Y534775D01*
X281375Y534775D01*
X281375Y541425D01*
X282425Y541425D01*
X282425Y535772D02*
X281375Y535772D01*
X281375Y536769D02*
X282425Y536769D01*
X282425Y537766D02*
X281375Y537766D01*
X281375Y538763D02*
X282425Y538763D01*
X282425Y539760D02*
X281375Y539760D01*
X281375Y540757D02*
X282425Y540757D01*
X287425Y541425D02*
X287425Y534775D01*
X286375Y534775D01*
X286375Y541425D01*
X287425Y541425D01*
X287425Y535772D02*
X286375Y535772D01*
X286375Y536769D02*
X287425Y536769D01*
X287425Y537766D02*
X286375Y537766D01*
X286375Y538763D02*
X287425Y538763D01*
X287425Y539760D02*
X286375Y539760D01*
X286375Y540757D02*
X287425Y540757D01*
X210175Y550775D02*
X210175Y557425D01*
X211225Y557425D01*
X211225Y550775D01*
X210175Y550775D01*
X210175Y551772D02*
X211225Y551772D01*
X211225Y552769D02*
X210175Y552769D01*
X210175Y553766D02*
X211225Y553766D01*
X211225Y554763D02*
X210175Y554763D01*
X210175Y555760D02*
X211225Y555760D01*
X211225Y556757D02*
X210175Y556757D01*
X205175Y557425D02*
X205175Y550775D01*
X205175Y557425D02*
X206225Y557425D01*
X206225Y550775D01*
X205175Y550775D01*
X205175Y551772D02*
X206225Y551772D01*
X206225Y552769D02*
X205175Y552769D01*
X205175Y553766D02*
X206225Y553766D01*
X206225Y554763D02*
X205175Y554763D01*
X205175Y555760D02*
X206225Y555760D01*
X206225Y556757D02*
X205175Y556757D01*
X200175Y557425D02*
X200175Y550775D01*
X200175Y557425D02*
X201225Y557425D01*
X201225Y550775D01*
X200175Y550775D01*
X200175Y551772D02*
X201225Y551772D01*
X201225Y552769D02*
X200175Y552769D01*
X200175Y553766D02*
X201225Y553766D01*
X201225Y554763D02*
X200175Y554763D01*
X200175Y555760D02*
X201225Y555760D01*
X201225Y556757D02*
X200175Y556757D01*
X195175Y557425D02*
X195175Y550775D01*
X195175Y557425D02*
X196225Y557425D01*
X196225Y550775D01*
X195175Y550775D01*
X195175Y551772D02*
X196225Y551772D01*
X196225Y552769D02*
X195175Y552769D01*
X195175Y553766D02*
X196225Y553766D01*
X196225Y554763D02*
X195175Y554763D01*
X195175Y555760D02*
X196225Y555760D01*
X196225Y556757D02*
X195175Y556757D01*
X196225Y541425D02*
X196225Y534775D01*
X195175Y534775D01*
X195175Y541425D01*
X196225Y541425D01*
X196225Y535772D02*
X195175Y535772D01*
X195175Y536769D02*
X196225Y536769D01*
X196225Y537766D02*
X195175Y537766D01*
X195175Y538763D02*
X196225Y538763D01*
X196225Y539760D02*
X195175Y539760D01*
X195175Y540757D02*
X196225Y540757D01*
X201225Y541425D02*
X201225Y534775D01*
X200175Y534775D01*
X200175Y541425D01*
X201225Y541425D01*
X201225Y535772D02*
X200175Y535772D01*
X200175Y536769D02*
X201225Y536769D01*
X201225Y537766D02*
X200175Y537766D01*
X200175Y538763D02*
X201225Y538763D01*
X201225Y539760D02*
X200175Y539760D01*
X200175Y540757D02*
X201225Y540757D01*
X206225Y541425D02*
X206225Y534775D01*
X205175Y534775D01*
X205175Y541425D01*
X206225Y541425D01*
X206225Y535772D02*
X205175Y535772D01*
X205175Y536769D02*
X206225Y536769D01*
X206225Y537766D02*
X205175Y537766D01*
X205175Y538763D02*
X206225Y538763D01*
X206225Y539760D02*
X205175Y539760D01*
X205175Y540757D02*
X206225Y540757D01*
X211225Y541425D02*
X211225Y534775D01*
X210175Y534775D01*
X210175Y541425D01*
X211225Y541425D01*
X211225Y535772D02*
X210175Y535772D01*
X210175Y536769D02*
X211225Y536769D01*
X211225Y537766D02*
X210175Y537766D01*
X210175Y538763D02*
X211225Y538763D01*
X211225Y539760D02*
X210175Y539760D01*
X210175Y540757D02*
X211225Y540757D01*
X513835Y210915D02*
X513835Y204265D01*
X512785Y204265D01*
X512785Y210915D01*
X513835Y210915D01*
X513835Y205262D02*
X512785Y205262D01*
X512785Y206259D02*
X513835Y206259D01*
X513835Y207256D02*
X512785Y207256D01*
X512785Y208253D02*
X513835Y208253D01*
X513835Y209250D02*
X512785Y209250D01*
X512785Y210247D02*
X513835Y210247D01*
X518835Y210915D02*
X518835Y204265D01*
X517785Y204265D01*
X517785Y210915D01*
X518835Y210915D01*
X518835Y205262D02*
X517785Y205262D01*
X517785Y206259D02*
X518835Y206259D01*
X518835Y207256D02*
X517785Y207256D01*
X517785Y208253D02*
X518835Y208253D01*
X518835Y209250D02*
X517785Y209250D01*
X517785Y210247D02*
X518835Y210247D01*
X523835Y210915D02*
X523835Y204265D01*
X522785Y204265D01*
X522785Y210915D01*
X523835Y210915D01*
X523835Y205262D02*
X522785Y205262D01*
X522785Y206259D02*
X523835Y206259D01*
X523835Y207256D02*
X522785Y207256D01*
X522785Y208253D02*
X523835Y208253D01*
X523835Y209250D02*
X522785Y209250D01*
X522785Y210247D02*
X523835Y210247D01*
X528835Y210915D02*
X528835Y204265D01*
X527785Y204265D01*
X527785Y210915D01*
X528835Y210915D01*
X528835Y205262D02*
X527785Y205262D01*
X527785Y206259D02*
X528835Y206259D01*
X528835Y207256D02*
X527785Y207256D01*
X527785Y208253D02*
X528835Y208253D01*
X528835Y209250D02*
X527785Y209250D01*
X527785Y210247D02*
X528835Y210247D01*
X527785Y220265D02*
X527785Y226915D01*
X528835Y226915D01*
X528835Y220265D01*
X527785Y220265D01*
X527785Y221262D02*
X528835Y221262D01*
X528835Y222259D02*
X527785Y222259D01*
X527785Y223256D02*
X528835Y223256D01*
X528835Y224253D02*
X527785Y224253D01*
X527785Y225250D02*
X528835Y225250D01*
X528835Y226247D02*
X527785Y226247D01*
X522785Y226915D02*
X522785Y220265D01*
X522785Y226915D02*
X523835Y226915D01*
X523835Y220265D01*
X522785Y220265D01*
X522785Y221262D02*
X523835Y221262D01*
X523835Y222259D02*
X522785Y222259D01*
X522785Y223256D02*
X523835Y223256D01*
X523835Y224253D02*
X522785Y224253D01*
X522785Y225250D02*
X523835Y225250D01*
X523835Y226247D02*
X522785Y226247D01*
X517785Y226915D02*
X517785Y220265D01*
X517785Y226915D02*
X518835Y226915D01*
X518835Y220265D01*
X517785Y220265D01*
X517785Y221262D02*
X518835Y221262D01*
X518835Y222259D02*
X517785Y222259D01*
X517785Y223256D02*
X518835Y223256D01*
X518835Y224253D02*
X517785Y224253D01*
X517785Y225250D02*
X518835Y225250D01*
X518835Y226247D02*
X517785Y226247D01*
X512785Y226915D02*
X512785Y220265D01*
X512785Y226915D02*
X513835Y226915D01*
X513835Y220265D01*
X512785Y220265D01*
X512785Y221262D02*
X513835Y221262D01*
X513835Y222259D02*
X512785Y222259D01*
X512785Y223256D02*
X513835Y223256D01*
X513835Y224253D02*
X512785Y224253D01*
X512785Y225250D02*
X513835Y225250D01*
X513835Y226247D02*
X512785Y226247D01*
X628135Y211555D02*
X628135Y204905D01*
X627085Y204905D01*
X627085Y211555D01*
X628135Y211555D01*
X628135Y205902D02*
X627085Y205902D01*
X627085Y206899D02*
X628135Y206899D01*
X628135Y207896D02*
X627085Y207896D01*
X627085Y208893D02*
X628135Y208893D01*
X628135Y209890D02*
X627085Y209890D01*
X627085Y210887D02*
X628135Y210887D01*
X633135Y211555D02*
X633135Y204905D01*
X632085Y204905D01*
X632085Y211555D01*
X633135Y211555D01*
X633135Y205902D02*
X632085Y205902D01*
X632085Y206899D02*
X633135Y206899D01*
X633135Y207896D02*
X632085Y207896D01*
X632085Y208893D02*
X633135Y208893D01*
X633135Y209890D02*
X632085Y209890D01*
X632085Y210887D02*
X633135Y210887D01*
X638135Y211555D02*
X638135Y204905D01*
X637085Y204905D01*
X637085Y211555D01*
X638135Y211555D01*
X638135Y205902D02*
X637085Y205902D01*
X637085Y206899D02*
X638135Y206899D01*
X638135Y207896D02*
X637085Y207896D01*
X637085Y208893D02*
X638135Y208893D01*
X638135Y209890D02*
X637085Y209890D01*
X637085Y210887D02*
X638135Y210887D01*
X643135Y211555D02*
X643135Y204905D01*
X642085Y204905D01*
X642085Y211555D01*
X643135Y211555D01*
X643135Y205902D02*
X642085Y205902D01*
X642085Y206899D02*
X643135Y206899D01*
X643135Y207896D02*
X642085Y207896D01*
X642085Y208893D02*
X643135Y208893D01*
X643135Y209890D02*
X642085Y209890D01*
X642085Y210887D02*
X643135Y210887D01*
X642085Y220905D02*
X642085Y227555D01*
X643135Y227555D01*
X643135Y220905D01*
X642085Y220905D01*
X642085Y221902D02*
X643135Y221902D01*
X643135Y222899D02*
X642085Y222899D01*
X642085Y223896D02*
X643135Y223896D01*
X643135Y224893D02*
X642085Y224893D01*
X642085Y225890D02*
X643135Y225890D01*
X643135Y226887D02*
X642085Y226887D01*
X637085Y227555D02*
X637085Y220905D01*
X637085Y227555D02*
X638135Y227555D01*
X638135Y220905D01*
X637085Y220905D01*
X637085Y221902D02*
X638135Y221902D01*
X638135Y222899D02*
X637085Y222899D01*
X637085Y223896D02*
X638135Y223896D01*
X638135Y224893D02*
X637085Y224893D01*
X637085Y225890D02*
X638135Y225890D01*
X638135Y226887D02*
X637085Y226887D01*
X632085Y227555D02*
X632085Y220905D01*
X632085Y227555D02*
X633135Y227555D01*
X633135Y220905D01*
X632085Y220905D01*
X632085Y221902D02*
X633135Y221902D01*
X633135Y222899D02*
X632085Y222899D01*
X632085Y223896D02*
X633135Y223896D01*
X633135Y224893D02*
X632085Y224893D01*
X632085Y225890D02*
X633135Y225890D01*
X633135Y226887D02*
X632085Y226887D01*
X627085Y227555D02*
X627085Y220905D01*
X627085Y227555D02*
X628135Y227555D01*
X628135Y220905D01*
X627085Y220905D01*
X627085Y221902D02*
X628135Y221902D01*
X628135Y222899D02*
X627085Y222899D01*
X627085Y223896D02*
X628135Y223896D01*
X628135Y224893D02*
X627085Y224893D01*
X627085Y225890D02*
X628135Y225890D01*
X628135Y226887D02*
X627085Y226887D01*
D18*
X315137Y421067D02*
X315137Y431793D01*
X319863Y431793D01*
X319863Y421067D01*
X315137Y421067D01*
X315137Y422563D02*
X319863Y422563D01*
X319863Y424059D02*
X315137Y424059D01*
X315137Y425555D02*
X319863Y425555D01*
X319863Y427051D02*
X315137Y427051D01*
X315137Y428547D02*
X319863Y428547D01*
X319863Y430043D02*
X315137Y430043D01*
X315137Y431539D02*
X319863Y431539D01*
X302437Y431793D02*
X302437Y421067D01*
X302437Y431793D02*
X307163Y431793D01*
X307163Y421067D01*
X302437Y421067D01*
X302437Y422563D02*
X307163Y422563D01*
X307163Y424059D02*
X302437Y424059D01*
X302437Y425555D02*
X307163Y425555D01*
X307163Y427051D02*
X302437Y427051D01*
X302437Y428547D02*
X307163Y428547D01*
X307163Y430043D02*
X302437Y430043D01*
X302437Y431539D02*
X307163Y431539D01*
X289737Y431793D02*
X289737Y421067D01*
X289737Y431793D02*
X294463Y431793D01*
X294463Y421067D01*
X289737Y421067D01*
X289737Y422563D02*
X294463Y422563D01*
X294463Y424059D02*
X289737Y424059D01*
X289737Y425555D02*
X294463Y425555D01*
X294463Y427051D02*
X289737Y427051D01*
X289737Y428547D02*
X294463Y428547D01*
X294463Y430043D02*
X289737Y430043D01*
X289737Y431539D02*
X294463Y431539D01*
X277037Y431793D02*
X277037Y421067D01*
X277037Y431793D02*
X281763Y431793D01*
X281763Y421067D01*
X277037Y421067D01*
X277037Y422563D02*
X281763Y422563D01*
X281763Y424059D02*
X277037Y424059D01*
X277037Y425555D02*
X281763Y425555D01*
X281763Y427051D02*
X277037Y427051D01*
X277037Y428547D02*
X281763Y428547D01*
X281763Y430043D02*
X277037Y430043D01*
X277037Y431539D02*
X281763Y431539D01*
X264337Y431793D02*
X264337Y421067D01*
X264337Y431793D02*
X269063Y431793D01*
X269063Y421067D01*
X264337Y421067D01*
X264337Y422563D02*
X269063Y422563D01*
X269063Y424059D02*
X264337Y424059D01*
X264337Y425555D02*
X269063Y425555D01*
X269063Y427051D02*
X264337Y427051D01*
X264337Y428547D02*
X269063Y428547D01*
X269063Y430043D02*
X264337Y430043D01*
X264337Y431539D02*
X269063Y431539D01*
X269063Y401893D02*
X269063Y391167D01*
X264337Y391167D01*
X264337Y401893D01*
X269063Y401893D01*
X269063Y392663D02*
X264337Y392663D01*
X264337Y394159D02*
X269063Y394159D01*
X269063Y395655D02*
X264337Y395655D01*
X264337Y397151D02*
X269063Y397151D01*
X269063Y398647D02*
X264337Y398647D01*
X264337Y400143D02*
X269063Y400143D01*
X269063Y401639D02*
X264337Y401639D01*
X281763Y401893D02*
X281763Y391167D01*
X277037Y391167D01*
X277037Y401893D01*
X281763Y401893D01*
X281763Y392663D02*
X277037Y392663D01*
X277037Y394159D02*
X281763Y394159D01*
X281763Y395655D02*
X277037Y395655D01*
X277037Y397151D02*
X281763Y397151D01*
X281763Y398647D02*
X277037Y398647D01*
X277037Y400143D02*
X281763Y400143D01*
X281763Y401639D02*
X277037Y401639D01*
X294463Y401893D02*
X294463Y391167D01*
X289737Y391167D01*
X289737Y401893D01*
X294463Y401893D01*
X294463Y392663D02*
X289737Y392663D01*
X289737Y394159D02*
X294463Y394159D01*
X294463Y395655D02*
X289737Y395655D01*
X289737Y397151D02*
X294463Y397151D01*
X294463Y398647D02*
X289737Y398647D01*
X289737Y400143D02*
X294463Y400143D01*
X294463Y401639D02*
X289737Y401639D01*
X307163Y401893D02*
X307163Y391167D01*
X302437Y391167D01*
X302437Y401893D01*
X307163Y401893D01*
X307163Y392663D02*
X302437Y392663D01*
X302437Y394159D02*
X307163Y394159D01*
X307163Y395655D02*
X302437Y395655D01*
X302437Y397151D02*
X307163Y397151D01*
X307163Y398647D02*
X302437Y398647D01*
X302437Y400143D02*
X307163Y400143D01*
X307163Y401639D02*
X302437Y401639D01*
X319863Y401893D02*
X319863Y391167D01*
X315137Y391167D01*
X315137Y401893D01*
X319863Y401893D01*
X319863Y392663D02*
X315137Y392663D01*
X315137Y394159D02*
X319863Y394159D01*
X319863Y395655D02*
X315137Y395655D01*
X315137Y397151D02*
X319863Y397151D01*
X319863Y398647D02*
X315137Y398647D01*
X315137Y400143D02*
X319863Y400143D01*
X319863Y401639D02*
X315137Y401639D01*
X314597Y357133D02*
X314597Y346407D01*
X314597Y357133D02*
X319323Y357133D01*
X319323Y346407D01*
X314597Y346407D01*
X314597Y347903D02*
X319323Y347903D01*
X319323Y349399D02*
X314597Y349399D01*
X314597Y350895D02*
X319323Y350895D01*
X319323Y352391D02*
X314597Y352391D01*
X314597Y353887D02*
X319323Y353887D01*
X319323Y355383D02*
X314597Y355383D01*
X314597Y356879D02*
X319323Y356879D01*
X301897Y357133D02*
X301897Y346407D01*
X301897Y357133D02*
X306623Y357133D01*
X306623Y346407D01*
X301897Y346407D01*
X301897Y347903D02*
X306623Y347903D01*
X306623Y349399D02*
X301897Y349399D01*
X301897Y350895D02*
X306623Y350895D01*
X306623Y352391D02*
X301897Y352391D01*
X301897Y353887D02*
X306623Y353887D01*
X306623Y355383D02*
X301897Y355383D01*
X301897Y356879D02*
X306623Y356879D01*
X289197Y357133D02*
X289197Y346407D01*
X289197Y357133D02*
X293923Y357133D01*
X293923Y346407D01*
X289197Y346407D01*
X289197Y347903D02*
X293923Y347903D01*
X293923Y349399D02*
X289197Y349399D01*
X289197Y350895D02*
X293923Y350895D01*
X293923Y352391D02*
X289197Y352391D01*
X289197Y353887D02*
X293923Y353887D01*
X293923Y355383D02*
X289197Y355383D01*
X289197Y356879D02*
X293923Y356879D01*
X276497Y357133D02*
X276497Y346407D01*
X276497Y357133D02*
X281223Y357133D01*
X281223Y346407D01*
X276497Y346407D01*
X276497Y347903D02*
X281223Y347903D01*
X281223Y349399D02*
X276497Y349399D01*
X276497Y350895D02*
X281223Y350895D01*
X281223Y352391D02*
X276497Y352391D01*
X276497Y353887D02*
X281223Y353887D01*
X281223Y355383D02*
X276497Y355383D01*
X276497Y356879D02*
X281223Y356879D01*
X263797Y357133D02*
X263797Y346407D01*
X263797Y357133D02*
X268523Y357133D01*
X268523Y346407D01*
X263797Y346407D01*
X263797Y347903D02*
X268523Y347903D01*
X268523Y349399D02*
X263797Y349399D01*
X263797Y350895D02*
X268523Y350895D01*
X268523Y352391D02*
X263797Y352391D01*
X263797Y353887D02*
X268523Y353887D01*
X268523Y355383D02*
X263797Y355383D01*
X263797Y356879D02*
X268523Y356879D01*
X268523Y327233D02*
X268523Y316507D01*
X263797Y316507D01*
X263797Y327233D01*
X268523Y327233D01*
X268523Y318003D02*
X263797Y318003D01*
X263797Y319499D02*
X268523Y319499D01*
X268523Y320995D02*
X263797Y320995D01*
X263797Y322491D02*
X268523Y322491D01*
X268523Y323987D02*
X263797Y323987D01*
X263797Y325483D02*
X268523Y325483D01*
X268523Y326979D02*
X263797Y326979D01*
X281223Y327233D02*
X281223Y316507D01*
X276497Y316507D01*
X276497Y327233D01*
X281223Y327233D01*
X281223Y318003D02*
X276497Y318003D01*
X276497Y319499D02*
X281223Y319499D01*
X281223Y320995D02*
X276497Y320995D01*
X276497Y322491D02*
X281223Y322491D01*
X281223Y323987D02*
X276497Y323987D01*
X276497Y325483D02*
X281223Y325483D01*
X281223Y326979D02*
X276497Y326979D01*
X293923Y327233D02*
X293923Y316507D01*
X289197Y316507D01*
X289197Y327233D01*
X293923Y327233D01*
X293923Y318003D02*
X289197Y318003D01*
X289197Y319499D02*
X293923Y319499D01*
X293923Y320995D02*
X289197Y320995D01*
X289197Y322491D02*
X293923Y322491D01*
X293923Y323987D02*
X289197Y323987D01*
X289197Y325483D02*
X293923Y325483D01*
X293923Y326979D02*
X289197Y326979D01*
X306623Y327233D02*
X306623Y316507D01*
X301897Y316507D01*
X301897Y327233D01*
X306623Y327233D01*
X306623Y318003D02*
X301897Y318003D01*
X301897Y319499D02*
X306623Y319499D01*
X306623Y320995D02*
X301897Y320995D01*
X301897Y322491D02*
X306623Y322491D01*
X306623Y323987D02*
X301897Y323987D01*
X301897Y325483D02*
X306623Y325483D01*
X306623Y326979D02*
X301897Y326979D01*
X319323Y327233D02*
X319323Y316507D01*
X314597Y316507D01*
X314597Y327233D01*
X319323Y327233D01*
X319323Y318003D02*
X314597Y318003D01*
X314597Y319499D02*
X319323Y319499D01*
X319323Y320995D02*
X314597Y320995D01*
X314597Y322491D02*
X319323Y322491D01*
X319323Y323987D02*
X314597Y323987D01*
X314597Y325483D02*
X319323Y325483D01*
X319323Y326979D02*
X314597Y326979D01*
X314597Y499427D02*
X314597Y510153D01*
X319323Y510153D01*
X319323Y499427D01*
X314597Y499427D01*
X314597Y500923D02*
X319323Y500923D01*
X319323Y502419D02*
X314597Y502419D01*
X314597Y503915D02*
X319323Y503915D01*
X319323Y505411D02*
X314597Y505411D01*
X314597Y506907D02*
X319323Y506907D01*
X319323Y508403D02*
X314597Y508403D01*
X314597Y509899D02*
X319323Y509899D01*
X301897Y510153D02*
X301897Y499427D01*
X301897Y510153D02*
X306623Y510153D01*
X306623Y499427D01*
X301897Y499427D01*
X301897Y500923D02*
X306623Y500923D01*
X306623Y502419D02*
X301897Y502419D01*
X301897Y503915D02*
X306623Y503915D01*
X306623Y505411D02*
X301897Y505411D01*
X301897Y506907D02*
X306623Y506907D01*
X306623Y508403D02*
X301897Y508403D01*
X301897Y509899D02*
X306623Y509899D01*
X289197Y510153D02*
X289197Y499427D01*
X289197Y510153D02*
X293923Y510153D01*
X293923Y499427D01*
X289197Y499427D01*
X289197Y500923D02*
X293923Y500923D01*
X293923Y502419D02*
X289197Y502419D01*
X289197Y503915D02*
X293923Y503915D01*
X293923Y505411D02*
X289197Y505411D01*
X289197Y506907D02*
X293923Y506907D01*
X293923Y508403D02*
X289197Y508403D01*
X289197Y509899D02*
X293923Y509899D01*
X276497Y510153D02*
X276497Y499427D01*
X276497Y510153D02*
X281223Y510153D01*
X281223Y499427D01*
X276497Y499427D01*
X276497Y500923D02*
X281223Y500923D01*
X281223Y502419D02*
X276497Y502419D01*
X276497Y503915D02*
X281223Y503915D01*
X281223Y505411D02*
X276497Y505411D01*
X276497Y506907D02*
X281223Y506907D01*
X281223Y508403D02*
X276497Y508403D01*
X276497Y509899D02*
X281223Y509899D01*
X263797Y510153D02*
X263797Y499427D01*
X263797Y510153D02*
X268523Y510153D01*
X268523Y499427D01*
X263797Y499427D01*
X263797Y500923D02*
X268523Y500923D01*
X268523Y502419D02*
X263797Y502419D01*
X263797Y503915D02*
X268523Y503915D01*
X268523Y505411D02*
X263797Y505411D01*
X263797Y506907D02*
X268523Y506907D01*
X268523Y508403D02*
X263797Y508403D01*
X263797Y509899D02*
X268523Y509899D01*
X268523Y480253D02*
X268523Y469527D01*
X263797Y469527D01*
X263797Y480253D01*
X268523Y480253D01*
X268523Y471023D02*
X263797Y471023D01*
X263797Y472519D02*
X268523Y472519D01*
X268523Y474015D02*
X263797Y474015D01*
X263797Y475511D02*
X268523Y475511D01*
X268523Y477007D02*
X263797Y477007D01*
X263797Y478503D02*
X268523Y478503D01*
X268523Y479999D02*
X263797Y479999D01*
X281223Y480253D02*
X281223Y469527D01*
X276497Y469527D01*
X276497Y480253D01*
X281223Y480253D01*
X281223Y471023D02*
X276497Y471023D01*
X276497Y472519D02*
X281223Y472519D01*
X281223Y474015D02*
X276497Y474015D01*
X276497Y475511D02*
X281223Y475511D01*
X281223Y477007D02*
X276497Y477007D01*
X276497Y478503D02*
X281223Y478503D01*
X281223Y479999D02*
X276497Y479999D01*
X293923Y480253D02*
X293923Y469527D01*
X289197Y469527D01*
X289197Y480253D01*
X293923Y480253D01*
X293923Y471023D02*
X289197Y471023D01*
X289197Y472519D02*
X293923Y472519D01*
X293923Y474015D02*
X289197Y474015D01*
X289197Y475511D02*
X293923Y475511D01*
X293923Y477007D02*
X289197Y477007D01*
X289197Y478503D02*
X293923Y478503D01*
X293923Y479999D02*
X289197Y479999D01*
X306623Y480253D02*
X306623Y469527D01*
X301897Y469527D01*
X301897Y480253D01*
X306623Y480253D01*
X306623Y471023D02*
X301897Y471023D01*
X301897Y472519D02*
X306623Y472519D01*
X306623Y474015D02*
X301897Y474015D01*
X301897Y475511D02*
X306623Y475511D01*
X306623Y477007D02*
X301897Y477007D01*
X301897Y478503D02*
X306623Y478503D01*
X306623Y479999D02*
X301897Y479999D01*
X319323Y480253D02*
X319323Y469527D01*
X314597Y469527D01*
X314597Y480253D01*
X319323Y480253D01*
X319323Y471023D02*
X314597Y471023D01*
X314597Y472519D02*
X319323Y472519D01*
X319323Y474015D02*
X314597Y474015D01*
X314597Y475511D02*
X319323Y475511D01*
X319323Y477007D02*
X314597Y477007D01*
X314597Y478503D02*
X319323Y478503D01*
X319323Y479999D02*
X314597Y479999D01*
D17*
X729735Y210895D02*
X729735Y204245D01*
X728685Y204245D01*
X728685Y210895D01*
X729735Y210895D01*
X729735Y205242D02*
X728685Y205242D01*
X728685Y206239D02*
X729735Y206239D01*
X729735Y207236D02*
X728685Y207236D01*
X728685Y208233D02*
X729735Y208233D01*
X729735Y209230D02*
X728685Y209230D01*
X728685Y210227D02*
X729735Y210227D01*
X734735Y210895D02*
X734735Y204245D01*
X733685Y204245D01*
X733685Y210895D01*
X734735Y210895D01*
X734735Y205242D02*
X733685Y205242D01*
X733685Y206239D02*
X734735Y206239D01*
X734735Y207236D02*
X733685Y207236D01*
X733685Y208233D02*
X734735Y208233D01*
X734735Y209230D02*
X733685Y209230D01*
X733685Y210227D02*
X734735Y210227D01*
X739735Y210895D02*
X739735Y204245D01*
X738685Y204245D01*
X738685Y210895D01*
X739735Y210895D01*
X739735Y205242D02*
X738685Y205242D01*
X738685Y206239D02*
X739735Y206239D01*
X739735Y207236D02*
X738685Y207236D01*
X738685Y208233D02*
X739735Y208233D01*
X739735Y209230D02*
X738685Y209230D01*
X738685Y210227D02*
X739735Y210227D01*
X744735Y210895D02*
X744735Y204245D01*
X743685Y204245D01*
X743685Y210895D01*
X744735Y210895D01*
X744735Y205242D02*
X743685Y205242D01*
X743685Y206239D02*
X744735Y206239D01*
X744735Y207236D02*
X743685Y207236D01*
X743685Y208233D02*
X744735Y208233D01*
X744735Y209230D02*
X743685Y209230D01*
X743685Y210227D02*
X744735Y210227D01*
X743685Y220245D02*
X743685Y226895D01*
X744735Y226895D01*
X744735Y220245D01*
X743685Y220245D01*
X743685Y221242D02*
X744735Y221242D01*
X744735Y222239D02*
X743685Y222239D01*
X743685Y223236D02*
X744735Y223236D01*
X744735Y224233D02*
X743685Y224233D01*
X743685Y225230D02*
X744735Y225230D01*
X744735Y226227D02*
X743685Y226227D01*
X738685Y226895D02*
X738685Y220245D01*
X738685Y226895D02*
X739735Y226895D01*
X739735Y220245D01*
X738685Y220245D01*
X738685Y221242D02*
X739735Y221242D01*
X739735Y222239D02*
X738685Y222239D01*
X738685Y223236D02*
X739735Y223236D01*
X739735Y224233D02*
X738685Y224233D01*
X738685Y225230D02*
X739735Y225230D01*
X739735Y226227D02*
X738685Y226227D01*
X733685Y226895D02*
X733685Y220245D01*
X733685Y226895D02*
X734735Y226895D01*
X734735Y220245D01*
X733685Y220245D01*
X733685Y221242D02*
X734735Y221242D01*
X734735Y222239D02*
X733685Y222239D01*
X733685Y223236D02*
X734735Y223236D01*
X734735Y224233D02*
X733685Y224233D01*
X733685Y225230D02*
X734735Y225230D01*
X734735Y226227D02*
X733685Y226227D01*
X728685Y226895D02*
X728685Y220245D01*
X728685Y226895D02*
X729735Y226895D01*
X729735Y220245D01*
X728685Y220245D01*
X728685Y221242D02*
X729735Y221242D01*
X729735Y222239D02*
X728685Y222239D01*
X728685Y223236D02*
X729735Y223236D01*
X729735Y224233D02*
X728685Y224233D01*
X728685Y225230D02*
X729735Y225230D01*
X729735Y226227D02*
X728685Y226227D01*
D18*
X315137Y269937D02*
X315137Y280663D01*
X319863Y280663D01*
X319863Y269937D01*
X315137Y269937D01*
X315137Y271433D02*
X319863Y271433D01*
X319863Y272929D02*
X315137Y272929D01*
X315137Y274425D02*
X319863Y274425D01*
X319863Y275921D02*
X315137Y275921D01*
X315137Y277417D02*
X319863Y277417D01*
X319863Y278913D02*
X315137Y278913D01*
X315137Y280409D02*
X319863Y280409D01*
X302437Y280663D02*
X302437Y269937D01*
X302437Y280663D02*
X307163Y280663D01*
X307163Y269937D01*
X302437Y269937D01*
X302437Y271433D02*
X307163Y271433D01*
X307163Y272929D02*
X302437Y272929D01*
X302437Y274425D02*
X307163Y274425D01*
X307163Y275921D02*
X302437Y275921D01*
X302437Y277417D02*
X307163Y277417D01*
X307163Y278913D02*
X302437Y278913D01*
X302437Y280409D02*
X307163Y280409D01*
X289737Y280663D02*
X289737Y269937D01*
X289737Y280663D02*
X294463Y280663D01*
X294463Y269937D01*
X289737Y269937D01*
X289737Y271433D02*
X294463Y271433D01*
X294463Y272929D02*
X289737Y272929D01*
X289737Y274425D02*
X294463Y274425D01*
X294463Y275921D02*
X289737Y275921D01*
X289737Y277417D02*
X294463Y277417D01*
X294463Y278913D02*
X289737Y278913D01*
X289737Y280409D02*
X294463Y280409D01*
X277037Y280663D02*
X277037Y269937D01*
X277037Y280663D02*
X281763Y280663D01*
X281763Y269937D01*
X277037Y269937D01*
X277037Y271433D02*
X281763Y271433D01*
X281763Y272929D02*
X277037Y272929D01*
X277037Y274425D02*
X281763Y274425D01*
X281763Y275921D02*
X277037Y275921D01*
X277037Y277417D02*
X281763Y277417D01*
X281763Y278913D02*
X277037Y278913D01*
X277037Y280409D02*
X281763Y280409D01*
X264337Y280663D02*
X264337Y269937D01*
X264337Y280663D02*
X269063Y280663D01*
X269063Y269937D01*
X264337Y269937D01*
X264337Y271433D02*
X269063Y271433D01*
X269063Y272929D02*
X264337Y272929D01*
X264337Y274425D02*
X269063Y274425D01*
X269063Y275921D02*
X264337Y275921D01*
X264337Y277417D02*
X269063Y277417D01*
X269063Y278913D02*
X264337Y278913D01*
X264337Y280409D02*
X269063Y280409D01*
X269063Y250763D02*
X269063Y240037D01*
X264337Y240037D01*
X264337Y250763D01*
X269063Y250763D01*
X269063Y241533D02*
X264337Y241533D01*
X264337Y243029D02*
X269063Y243029D01*
X269063Y244525D02*
X264337Y244525D01*
X264337Y246021D02*
X269063Y246021D01*
X269063Y247517D02*
X264337Y247517D01*
X264337Y249013D02*
X269063Y249013D01*
X269063Y250509D02*
X264337Y250509D01*
X281763Y250763D02*
X281763Y240037D01*
X277037Y240037D01*
X277037Y250763D01*
X281763Y250763D01*
X281763Y241533D02*
X277037Y241533D01*
X277037Y243029D02*
X281763Y243029D01*
X281763Y244525D02*
X277037Y244525D01*
X277037Y246021D02*
X281763Y246021D01*
X281763Y247517D02*
X277037Y247517D01*
X277037Y249013D02*
X281763Y249013D01*
X281763Y250509D02*
X277037Y250509D01*
X294463Y250763D02*
X294463Y240037D01*
X289737Y240037D01*
X289737Y250763D01*
X294463Y250763D01*
X294463Y241533D02*
X289737Y241533D01*
X289737Y243029D02*
X294463Y243029D01*
X294463Y244525D02*
X289737Y244525D01*
X289737Y246021D02*
X294463Y246021D01*
X294463Y247517D02*
X289737Y247517D01*
X289737Y249013D02*
X294463Y249013D01*
X294463Y250509D02*
X289737Y250509D01*
X307163Y250763D02*
X307163Y240037D01*
X302437Y240037D01*
X302437Y250763D01*
X307163Y250763D01*
X307163Y241533D02*
X302437Y241533D01*
X302437Y243029D02*
X307163Y243029D01*
X307163Y244525D02*
X302437Y244525D01*
X302437Y246021D02*
X307163Y246021D01*
X307163Y247517D02*
X302437Y247517D01*
X302437Y249013D02*
X307163Y249013D01*
X307163Y250509D02*
X302437Y250509D01*
X319863Y250763D02*
X319863Y240037D01*
X315137Y240037D01*
X315137Y250763D01*
X319863Y250763D01*
X319863Y241533D02*
X315137Y241533D01*
X315137Y243029D02*
X319863Y243029D01*
X319863Y244525D02*
X315137Y244525D01*
X315137Y246021D02*
X319863Y246021D01*
X319863Y247517D02*
X315137Y247517D01*
X315137Y249013D02*
X319863Y249013D01*
X319863Y250509D02*
X315137Y250509D01*
D19*
X317500Y622300D03*
X292100Y622300D03*
X266700Y622300D03*
X241300Y622300D03*
X215900Y622300D03*
X190500Y622300D03*
X165100Y622300D03*
X342900Y622300D03*
X368300Y139700D03*
X342900Y139700D03*
X317500Y139700D03*
X292100Y139700D03*
X266700Y139700D03*
X241300Y139700D03*
X215900Y139700D03*
X393700Y139700D03*
X546100Y622300D03*
X520700Y622300D03*
X495300Y622300D03*
X469900Y622300D03*
X444500Y622300D03*
X419100Y622300D03*
X393700Y622300D03*
X571500Y622300D03*
X596900Y139700D03*
X571500Y139700D03*
X546100Y139700D03*
X520700Y139700D03*
X495300Y139700D03*
X469900Y139700D03*
X444500Y139700D03*
X622300Y139700D03*
X815340Y139700D03*
X789940Y139700D03*
X764540Y139700D03*
X739140Y139700D03*
X713740Y139700D03*
X688340Y139700D03*
X662940Y139700D03*
X840740Y139700D03*
X139700Y571500D03*
X114300Y571500D03*
X139700Y139700D03*
X114300Y139700D03*
X749300Y622300D03*
X723900Y622300D03*
X698500Y622300D03*
X673100Y622300D03*
X647700Y622300D03*
X622300Y622300D03*
D20*
X419100Y571500D03*
D21*
X730410Y426060D03*
X730410Y407060D03*
X751410Y416560D03*
D22*
X702310Y425060D03*
X702310Y408060D03*
X765810Y425060D03*
X765810Y408060D03*
D21*
X730410Y464160D03*
X730410Y445160D03*
X751410Y454660D03*
D22*
X702310Y463160D03*
X702310Y446160D03*
X765810Y463160D03*
X765810Y446160D03*
D23*
X848280Y443170D03*
X848280Y499170D03*
D24*
X811530Y456170D03*
X811530Y466170D03*
X811530Y476170D03*
X811530Y486170D03*
D23*
X848280Y366970D03*
X848280Y422970D03*
D24*
X811530Y379970D03*
X811530Y389970D03*
X811530Y399970D03*
X811530Y409970D03*
D25*
X779780Y471170D03*
X739798Y416172D03*
M02*
