G04 EAGLE Gerber RS-274X export*
G75*
%MOMM*%
%FSLAX34Y34*%
%LPD*%
%INSoldermask Bottom*%
%IPPOS*%
%AMOC8*
5,1,8,0,0,1.08239X$1,22.5*%
G01*
%ADD10C,1.400000*%
%ADD11C,1.318000*%
%ADD12C,1.879600*%
%ADD13C,3.200000*%
%ADD14C,0.914400*%


D10*
X77470Y493780D03*
X77470Y303780D03*
D11*
X7470Y493580D03*
X7470Y303980D03*
D12*
X317500Y622300D03*
X292100Y622300D03*
X266700Y622300D03*
X241300Y622300D03*
X215900Y622300D03*
X190500Y622300D03*
X165100Y622300D03*
X342900Y622300D03*
X368300Y139700D03*
X342900Y139700D03*
X317500Y139700D03*
X292100Y139700D03*
X266700Y139700D03*
X241300Y139700D03*
X215900Y139700D03*
X393700Y139700D03*
X546100Y622300D03*
X520700Y622300D03*
X495300Y622300D03*
X469900Y622300D03*
X444500Y622300D03*
X419100Y622300D03*
X393700Y622300D03*
X571500Y622300D03*
X596900Y139700D03*
X571500Y139700D03*
X546100Y139700D03*
X520700Y139700D03*
X495300Y139700D03*
X469900Y139700D03*
X444500Y139700D03*
X622300Y139700D03*
X815340Y139700D03*
X789940Y139700D03*
X764540Y139700D03*
X739140Y139700D03*
X713740Y139700D03*
X688340Y139700D03*
X662940Y139700D03*
X840740Y139700D03*
X139700Y571500D03*
X114300Y571500D03*
X139700Y139700D03*
X114300Y139700D03*
X749300Y622300D03*
X723900Y622300D03*
X698500Y622300D03*
X673100Y622300D03*
X647700Y622300D03*
X622300Y622300D03*
D13*
X419100Y571500D03*
D14*
X779780Y471170D03*
X739798Y416172D03*
M02*
