M48
;GenerationSoftware,Autodesk,EAGLE,9.6.2*%
;CreationDate,2023-07-28T14:22:33Z*%
FMAT,2
ICI,OFF
METRIC,TZ,000.000
T7C0.350
T6C0.381
T5C0.508
T4C0.810
T3C1.016
T2C1.400
T1C3.200
%
G90
M71
T1
X41910Y57150
T2
X7747Y30378
X7747Y49378
T3
X69850Y62230
X72390Y62230
X74930Y62230
X11430Y13970
X13970Y13970
X11430Y57150
X13970Y57150
X84074Y13970
X66294Y13970
X68834Y13970
X71374Y13970
X73914Y13970
X76454Y13970
X78994Y13970
X81534Y13970
X62230Y13970
X44450Y13970
X46990Y13970
X49530Y13970
X52070Y13970
X54610Y13970
X57150Y13970
X59690Y13970
X57150Y62230
X39370Y62230
X41910Y62230
X44450Y62230
X46990Y62230
X49530Y62230
X52070Y62230
X54610Y62230
X39370Y13970
X21590Y13970
X24130Y13970
X67310Y62230
X64770Y62230
X62230Y62230
X26670Y13970
X29210Y13970
X31750Y62230
X29210Y62230
X26670Y62230
X24130Y62230
X21590Y62230
X19050Y62230
X16510Y62230
X34290Y62230
X36830Y13970
X34290Y13970
X31750Y13970
T4
X747Y30398
X747Y49358
T5
X77978Y47117
X73980Y41617
T6
X36068Y58674
X32639Y57912
X8890Y59309
X16383Y54356
X45593Y58039
X52705Y58039
X16129Y43180
X22479Y43053
X33782Y45847
X33274Y20574
X35687Y19177
X41402Y23114
X42545Y20574
X41656Y15748
X64135Y17145
X20066Y24384
X23876Y24257
X12319Y43180
X14859Y40640
X80772Y43561
X14732Y21844
X28194Y18669
X20701Y21463
X30988Y18034
X70485Y49784
X76962Y52451
X40132Y42926
X35433Y41275
X39116Y52959
X18288Y32131
X16002Y31750
X18161Y27178
X12446Y24384
X12700Y17780
X2540Y35560
X2540Y44450
X13970Y49530
X15240Y46990
X43180Y49530
X57150Y40640
X46990Y31750
X44450Y38100
X35306Y51181
X21209Y35941
T7
X27146Y46196
X30639Y41434
X20955Y42228
X17304Y46196
X30480Y38259
X10160Y37465
X20638Y56515
X20796Y43974
X29686Y52546
X25717Y45402
X22860Y46831
X21590Y48895
X26670Y52387
X20003Y52705
X16510Y57467
X27464Y28734
X26035Y38576
X5398Y36830
X12382Y37941
X18098Y52229
X22542Y20479
X38576Y18098
X49530Y20479
X51752Y23495
X54610Y20003
X60007Y19685
X56039Y19685
X63341Y23654
X31591Y33496
X30004Y16510
X11271Y37465
X13017Y26352
X32861Y21907
X34131Y23971
X19526Y21431
X12700Y39846
X25717Y48419
X24130Y59055
X36195Y45879
X32861Y49212
X30797Y57309
X25876Y41593
X27464Y37465
X28099Y41434
X10001Y41434
X29051Y51752
X5398Y46196
X23495Y40799
X24130Y55404
X73978Y39846
X74295Y44609
X10795Y33338
X5398Y34925
X25559Y33655
X24924Y56197
X23654Y50482
X22860Y47942
X28257Y52387
X28257Y56515
X30004Y58102
X17304Y59531
X10160Y43180
X31274Y43815
X30004Y55404
X29051Y36513
X32067Y53657
X29845Y33338
X35719Y56515
X76835Y47466
X38259Y55721
X50482Y52705
X23654Y53816
X34131Y54451
X21749Y54451
X29210Y54610
X10795Y28257
X9843Y32067
X25559Y31115
X27305Y25717
X60484Y18098
X61436Y19685
X11271Y41434
X5398Y44609
X21114Y40958
X24924Y24924
X36195Y20479
X51276Y19685
X23654Y49371
X22860Y45720
X30480Y46196
X30480Y53181
X37783Y48577
X45402Y56197
X22225Y32544
X18891Y35878
X33814Y36195
X48736Y58261
X30797Y21431
X21749Y21431
X15081Y34131
X30956Y30956
X51276Y56832
X29369Y41434
X25082Y39688
X23495Y39688
X11906Y40640
M30