G04 EAGLE Gerber RS-274X export*
G75*
%MOMM*%
%FSLAX34Y34*%
%LPD*%
%INBottom Copper*%
%IPPOS*%
%AMOC8*
5,1,8,0,0,1.08239X$1,22.5*%
G01*
%ADD10R,0.550000X2.800000*%
%ADD11C,0.381000*%
%ADD12C,0.787400*%


D10*
X298000Y99650D03*
X290000Y99650D03*
X282000Y99650D03*
X274000Y99650D03*
X266000Y99650D03*
X258000Y99650D03*
X250000Y99650D03*
X210000Y99650D03*
X202000Y99650D03*
X194000Y99650D03*
X186000Y99650D03*
X178000Y99650D03*
X170000Y99650D03*
D11*
X151250Y656712D02*
X151250Y800850D01*
X202177Y605785D02*
X202177Y189657D01*
X202177Y605785D02*
X151250Y656712D01*
D12*
X151250Y800850D03*
D11*
X178000Y165480D02*
X178000Y99650D01*
X178000Y165480D02*
X202177Y189657D01*
X189350Y626874D02*
X189350Y756400D01*
X208019Y608205D02*
X208019Y187237D01*
X208019Y608205D02*
X189350Y626874D01*
X189350Y756400D02*
X187826Y756400D01*
D12*
X187826Y756400D03*
D11*
X186000Y165218D02*
X186000Y99650D01*
X186000Y165218D02*
X208019Y187237D01*
X220084Y799834D02*
X221100Y800850D01*
X220084Y799834D02*
X220084Y182778D01*
D12*
X221100Y800850D03*
D11*
X202000Y164694D02*
X202000Y99650D01*
X202000Y164694D02*
X220084Y182778D01*
X225926Y180358D02*
X225926Y748526D01*
X233800Y756400D01*
D12*
X233800Y756400D03*
D11*
X210000Y164432D02*
X210000Y99650D01*
X210000Y164432D02*
X225926Y180358D01*
X265423Y597523D02*
X310000Y642100D01*
X310000Y743700D01*
X322700Y756400D01*
X265423Y597523D02*
X265423Y189657D01*
D12*
X322700Y756400D03*
D11*
X290000Y165080D02*
X290000Y99650D01*
X290000Y165080D02*
X265423Y189657D01*
X271265Y192076D02*
X271265Y594191D01*
X322700Y645626D01*
X322700Y711950D01*
D12*
X322700Y711950D03*
D11*
X298000Y165341D02*
X298000Y99650D01*
X298000Y165341D02*
X271265Y192076D01*
X196335Y192076D02*
X196335Y603365D01*
X144900Y654800D02*
X144900Y756400D01*
X144900Y654800D02*
X196335Y603365D01*
X144900Y756400D02*
X143376Y756400D01*
D12*
X143376Y756400D03*
D11*
X170000Y165741D02*
X170000Y99650D01*
X170000Y165741D02*
X196335Y192076D01*
X214242Y185198D02*
X214242Y610858D01*
X195700Y629400D01*
X195700Y800850D01*
D12*
X195700Y800850D03*
D11*
X194000Y164956D02*
X194000Y99650D01*
X194000Y164956D02*
X214242Y185198D01*
X253739Y604889D02*
X279520Y630670D01*
X279520Y710680D01*
X278250Y711950D01*
D12*
X278250Y711950D03*
D11*
X253739Y604889D02*
X253739Y186200D01*
X253739Y184817D01*
X274000Y164556D02*
X274000Y99650D01*
X274000Y164556D02*
X253739Y184817D01*
X259581Y187237D02*
X259581Y599943D01*
X303650Y644012D02*
X303650Y781800D01*
X322700Y800850D01*
X303650Y644012D02*
X259581Y599943D01*
D12*
X322700Y800850D03*
D11*
X282000Y164818D02*
X282000Y99650D01*
X282000Y164818D02*
X259581Y187237D01*
X242055Y764655D02*
X278250Y800850D01*
X242055Y764655D02*
X242055Y179977D01*
D12*
X278250Y800850D03*
D11*
X258000Y164032D02*
X258000Y99650D01*
X258000Y164032D02*
X242055Y179977D01*
X247897Y182397D02*
X247897Y726047D01*
D12*
X278250Y756400D03*
D11*
X247897Y726047D01*
X266000Y164294D02*
X266000Y99650D01*
X266000Y164294D02*
X247897Y182397D01*
M02*
